<?xml version="1.0" encoding="utf-8"?>
<!-- Generator: Adobe Illustrator 26.3.1, SVG Export Plug-In . SVG Version: 6.00 Build 0)  -->
<svg version="1.1" id="레이어_1" xmlns="http://www.w3.org/2000/svg" xmlns:xlink="http://www.w3.org/1999/xlink" x="0px"
	 y="0px" viewBox="0 0 1280 1024" style="enable-background:new 0 0 1280 1024;" xml:space="preserve">
<style type="text/css">
	.st0{fill:#FFEBF9;}
	.st1{fill:none;stroke:#000000;stroke-width:2;stroke-miterlimit:10;}
	.st2{fill:#FFC600;stroke:#000000;stroke-width:2;stroke-miterlimit:10;}
</style>
<g id="XMLID_00000130642162731235225900000018434521524639262091_">
	<g>
		<path class="st0" d="M1032.27,519.72c66.45,14.75,90.71,37.95,88.14,66.58c-2.56,28.63-9.56,49.01-85.89,49.2
			c-8.25-5.75-21-13-31.26-19.25c-39.76-25.94-88.77-45.82-126.15-61.7c40.51-3.06,93.64-12.63,150.91-33.26
			C1029.52,520.72,1030.89,520.28,1032.27,519.72L1032.27,519.72z"/>
		<path class="st0" d="M511.6,494.21l1.19-4c-14.5-6.88-58.76-29.94-86.83-45.95c-35.82-20.44-84.77-62.08-134.78-121.53
			c-1.31-1.5-2.63-3-3.81-4.44c-51.32-61.89-41.01-85.27-29.26-102.46c21.94-21.32,49.82-19.5,90.83,8c0,0,0,0,0.06,0.06
			c13.5,9,28.44,20.94,45.01,35.69c51.7,43.76,97.77,102.33,124.46,134.4c9.31,11.25,18.94,23.07,32.44,39.76l1-0.81
			c-3.88-6.31-29.76-57.89-46.01-90.08c-18.88-37.26-38.01-99.96-46.76-179.04c-8.63-79.14,10.31-92.33,29.44-100.15
			c22.5-4.25,41.26,2.44,57.57,24.94c12.19,16.94,22.88,42.7,32.63,79.45c18.88,64.45,26.32,145.09,30.76,186.1
			c1.69,14.88,3.06,32.88,5.19,55.51h7.81c-0.19-22.69,0.38-40.88,0.44-55.95c0.25-41.26-1.88-112.65,10.31-178.66
			c5.94-37.63,13.13-65.64,22.57-84.96v-0.06c12.44-25.57,28.82-36.07,51.57-34.19c19.82,5.75,46.38,14.13,45.82,93.83
			c0,4.44-0.06,8.94-0.25,13.38c-2.06,74.95-17,146.91-31.26,183.79c-8.63,26.94-26.38,61.51-34.13,78.27l6.44,1.56
			c11.44-16.44,17.5-26.38,25.57-37.76c24.01-33.57,66.64-94.65,114.52-141.59c11.69-12,22.57-22.38,32.69-31.26
			c43.88-37.95,74.83-46.2,99.83-25.38c12.82,16.19,25.94,40.13-20.38,104.96c-46.2,64.83-107.96,121.53-142.59,144.84
			c-23.25,15.63-44.7,26.69-62.45,37.2l2.25,5.88c19.25-7.19,33.07-12.25,46.38-17.13c38.76-13.94,107.59-40.7,173.72-52.07
			c11.25-2.25,21.82-4,31.63-5.31c66.01-8.63,99.65,4.25,108.96,37.95c1.38,20.19-1.31,46.13-72.08,72.52
			c-1.38,0.56-2.81,1-4.25,1.56c-57.26,20.63-110.34,30.19-150.91,33.26c-12.44,1-23.69,1.38-33.57,1.19
			c-31.32-0.38-79.39-2.81-96.15-4.25l-2.88,14.94c0-1.31,53.2,26.32,86.64,45.95c35.51,20.94,87.58,66.76,136.47,127.34l0.06,0.06
			c0.81,1,1.75,2.06,2.63,3.19c49.76,62.26,35.7,88.71,23.44,105.71c-23.25,21.38-52.26,14.13-94.33-18.07
			c-12.44-9.5-26.01-21.13-41.01-34.88c-49.82-46.88-91.27-97.9-117.02-130.03c-9.38-11.82-19.88-27.88-33.82-45.82
			c-0.81-1.13-3.81,1-4.63,0c9.56,17.75,31.51,56.32,43.7,82.64c17.75,38.38,35.32,108.59,41.63,189.1
			c0.06,1.31,0.19,2.63,0.25,3.88v0.06c5.13,76.77-22.75,86.08-41.76,93.33c-31.07,4.94-49.64-14.69-65.89-65.45
			c-4.44-14.07-8.81-30.57-13.19-49.64c-16.94-65.89-21.82-140.03-25.13-181.73c-1-12.94-1.88-38.32-2.06-45.57l-4.94,0.19
			c-1.19,16.94-5.31,63.7-9.94,94.83c-5.88,38.51-27.13,99.08-61.64,162.85c-2.63,4.94-5.38,9.94-8.19,14.88
			c-39.26,69.14-68.45,61.7-88.71,56.64c-23.07-15.63-32.63-46.51-12.19-111.77c2.5-8,5.5-16.44,8.94-25.44
			c22.13-63.33,59.39-128.59,79.77-164.35c7-12.25,17-25.94,27.32-43.51l-16.25-1c-11.5,12.25-44.32,44.82-67.2,65.89
			c-24.44,22.57-64.89,50.51-117.4,75.77c-13.69,6.63-28.26,13-43.51,19.13c-73.89,29.38-88.14,10.13-100.77-6.63
			c-16.07-33.57,0.44-63.01,61.01-101.96c6.13-3.88,12.63-7.88,19.69-12.07c56.89-35.51,123.34-63.39,161.66-78.64
			c13.75-5.38,28.26-11.06,49.01-19.07l-4.06-10.88c-10.69,2.88-55.95,10.31-89.52,13.32c-35.32,3.06-94.65-0.56-158.78-14.13
			c-12.75-2.69-25.63-5.75-38.57-9.31c-78.39-21.32-80.14-47.76-80.58-68.45c6.44-34.51,36.07-48.32,103.21-44.32
			c0,0.06,0.06,0.06,0.06,0.06c9.75,0.56,20.25,1.5,31.69,2.88c68.08,6.25,140.22,27.69,180.73,38.76
			C475.59,484.08,490.59,488.27,511.6,494.21z"/>
		<path class="st0" d="M1034.52,635.43c55.01,38.7,65.08,82.64,51.2,105.58c-13.94,23.07-43.26,29.94-117.96-1.31l-0.06-0.06
			C918.81,679,866.73,633.18,831.23,612.3c-33.44-19.63-86.64-47.2-86.64-45.95l2.88-14.94c16.75,1.5,64.83,3.88,96.15,4.25
			c9.88,0.19,21.13-0.19,33.57-1.19c37.38,15.88,86.39,35.82,126.15,61.7C1013.52,622.43,1026.27,629.68,1034.52,635.43z"/>
		<path class="st0" d="M1082.22,301.8c5.69,20,10.63,46.51-58.07,90.27c-9.19,5.88-19.69,11.88-28.76,17.13
			c-9.75,1.31-20.38,3.06-31.63,5.31c-66.2,11.31-134.97,38.13-173.72,52.07c-13.32,4.81-27.13,9.94-46.38,17.13l-2.25-5.88
			c17.75-10.5,39.26-21.57,62.45-37.2c34.69-23.32,96.4-80.02,142.59-144.84C1029.39,258.72,1063.53,266.29,1082.22,301.8z"/>
		<path class="st0" d="M899.24,830.85c28.19,62.08,27.07,93.33-3.88,113.15c-20.07,7.81-72.52,0.44-106.84-48.45v-0.06
			c-0.06-1.31-0.19-2.63-0.25-3.88c-6.31-80.52-23.88-150.72-41.63-189.1c-12.19-26.32-34.13-64.89-43.7-82.64
			c0.81,1,3.81-1.13,4.63,0c13.94,17.94,24.44,34.01,33.82,45.82c25.76,32.19,67.2,83.2,117.02,130.03
			c14.94,13.75,28.57,25.38,41.01,34.88L899.24,830.85z"/>
		<path class="st0" d="M870.61,94.57c15.63,13.75,35.7,42.51-3.63,121.59c-10.13,8.81-21,19.25-32.69,31.26
			C786.41,294.36,743.77,355.43,719.77,389c-8.06,11.31-14.13,21.32-25.57,37.76l-6.44-1.56c7.69-16.75,25.44-51.32,34.13-78.27
			c14.25-36.88,29.19-108.84,31.26-183.79C801.1,95.25,836.42,74.87,870.61,94.57z"/>
		<path class="st0" d="M667.69,873.79c4.38,19.07,8.75,35.63,13.19,49.64c-12.38,51.14-29.82,76.52-62.2,75.7
			c-20.94-4.94-51.01-13.5-54.2-94.52l-0.44-0.19c34.51-63.76,55.76-124.4,61.64-162.85c4.63-31.13,8.75-77.89,9.94-94.83l4.94-0.19
			c0.19,7.25,1,32.63,2.06,45.57C645.81,733.82,650.75,807.9,667.69,873.79z"/>
		<path class="st0" d="M656,90.13v0.06c-9.5,19.32-16.63,47.32-22.57,84.96c-12.19,66.01-10.06,137.4-10.31,178.66
			c-0.06,15.07-0.62,33.26-0.44,55.95h-7.81c-2.13-22.57-3.56-40.63-5.19-55.51c-4.44-41.01-11.88-121.71-30.76-186.1
			c-9.75-36.82-20.44-62.58-32.63-79.45c6.5-40.51,23.51-62.01,52.07-65.83C618.24,24.11,641.62,35.05,656,90.13z"/>
		<path class="st0" d="M554.73,629.8l16.25,1c-10.31,17.57-20.38,31.26-27.32,43.51c-20.38,35.82-57.64,101.08-79.77,164.35
			c-3.44,9-6.44,17.5-8.94,25.44c-52.14,61.26-91.64,75.02-124.46,52.7c-15.07-15.32-28.88-36.32,12-106.33
			c6.81-11.69,16.44-27.32,27.63-39.07c52.51-25.26,92.96-53.2,117.4-75.77C510.41,674.56,543.23,642.06,554.73,629.8z"/>
		<path class="st0" d="M551.92,433.07l-1,0.81c-13.5-16.75-23.13-28.57-32.44-39.76c-26.69-32.07-72.77-90.64-124.46-134.4
			c-16.57-14.75-31.51-26.69-45.01-35.69c-0.06-0.06-0.06-0.06-0.06-0.06c-33.57-72.58-32.69-111.4,1.13-131.72
			c20.19-7.19,58.57-14.94,109.15,71.77c8.75,79.14,27.88,141.78,46.76,179.04C522.22,375.12,548.04,426.76,551.92,433.07z"/>
		<path class="st0" d="M513.1,561.35l4.06,10.88c-20.75,8-35.26,13.69-49.01,19.07c-38.32,15.25-104.77,43.13-161.66,78.64
			c-7.06,4.19-13.57,8.19-19.69,12.07c-70.64,13.5-111.77,5.13-124.28-31.32c-3-21.75-4.81-48.82,70.26-79.95
			c9-3.69,23.13-7,32.01-10.25c64.14,13.57,123.46,17.19,158.78,14.13C457.15,571.67,502.41,564.23,513.1,561.35z"/>
		<path class="st0" d="M512.78,490.21l-1.19,4c-21-5.94-36.01-10.13-50.32-14.07c-40.51-11.06-112.65-32.51-180.73-38.76
			c-11.44-1.38-21.94-2.31-31.69-2.88c0,0-0.06,0-0.06-0.06c-75.02-40.32-105.9-72.33-90.21-111.02
			c12.07-18.38,27.63-41.95,104.58-16c5.75,1.94,22.38,9.31,28.01,11.31c50.01,59.39,99.02,101.08,134.78,121.53
			C454.02,460.33,498.28,483.33,512.78,490.21z"/>
	</g>
	<g>
		<path class="st1" d="M551.92,432.32c0.62,1.56,0.62,1.75,0,0.75c-3.88-6.31-29.76-57.89-46.01-90.08
			c-18.88-37.26-38.01-99.96-46.76-179.04c-8.63-79.14,10.31-92.33,29.44-100.15c22.5-4.25,41.26,2.44,57.57,24.94
			c12.19,16.94,22.88,42.7,32.63,79.45c18.88,64.45,26.32,145.09,30.76,186.1c1.69,14.88,3.06,32.88,5.19,55.51"/>
		<path class="st1" d="M656,90.19c-9.5,19.32-16.63,47.32-22.57,84.96c-12.19,66.01-10.06,137.4-10.31,178.66
			c-0.06,15.07-0.62,33.26-0.44,55.95"/>
		<path class="st1" d="M687.76,425.13c7.69-16.75,25.44-51.32,34.13-78.27c14.25-36.88,29.19-108.84,31.26-183.79
			c0.19-4.44,0.25-8.94,0.25-13.38c0.56-79.64-26.01-88.02-45.82-93.83c-22.75-1.88-39.13,8.63-51.57,34.19"/>
		<path class="st1" d="M946.5,295.73c46.32-64.83,33.19-88.77,20.38-104.96c-25.01-20.82-55.95-12.57-99.83,25.38
			c-10.13,8.81-21,19.25-32.69,31.26C786.47,294.36,743.83,355.43,719.83,389c-8.06,11.31-14.13,21.32-25.57,37.76"/>
		<path class="st1" d="M741.4,477.77c17.75-10.5,39.26-21.57,62.45-37.2c34.69-23.32,96.4-80.02,142.59-144.84"/>
		<path class="st1" d="M747.46,551.41c16.75,1.5,64.83,3.88,96.15,4.25c9.88,0.19,21.13-0.19,33.57-1.19
			c40.51-3.06,93.64-12.63,150.91-33.26c1.5-0.56,2.88-1,4.25-1.56c70.77-26.38,73.45-52.32,72.08-72.52
			c-9.31-33.63-42.95-46.57-108.96-37.95c-9.75,1.31-20.38,3.06-31.63,5.31c-66.2,11.31-134.97,38.13-173.72,52.07
			c-13.32,4.81-27.13,9.94-46.38,17.13c-1.19,0.56-2.5,1-3.81,1.5"/>
		<path class="st1" d="M517.54,492.21c-0.19-0.25-0.56-0.56-1-0.94"/>
		<path class="st1" d="M348.94,223.9c-41.01-27.51-68.89-29.26-90.83-8c-11.69,17.19-22,40.51,29.26,102.46
			c1.19,1.5,2.5,3,3.81,4.44c50.01,59.39,99.02,101.08,134.78,121.53c28.07,16,72.33,39.07,86.83,45.95
			c2.69,1.19,4.38,1.94,4.75,1.94c0.06,0,0.06,0,0.06,0"/>
		<path class="st1" d="M552.61,436.01c-0.56-0.75-1.13-1.38-1.69-2.13c-13.5-16.75-23.13-28.57-32.44-39.76
			c-26.69-32.07-72.77-90.64-124.46-134.4c-16.57-14.75-31.51-26.69-45.01-35.69"/>
		<path class="st1" d="M967.69,739.64C918.81,679,866.73,633.18,831.23,612.3c-33.44-19.63-86.64-47.2-86.64-45.95
			c0,0.19,0.38,0.44,1.19,1"/>
		<path class="st1" d="M702.95,619.8c0.81,1,3.81-1.13,4.63,0c13.94,17.94,24.44,34.01,33.82,45.82
			c25.76,32.19,67.2,83.21,117.02,130.03c14.94,13.75,28.57,25.38,41.01,34.88c42.13,32.19,71.14,39.45,94.33,18.07
			c12.25-17,26.32-43.38-23.44-105.71c-0.81-1.13-1.75-2.13-2.63-3.19"/>
		<path class="st1" d="M788.53,895.48c-0.06-1.31-0.19-2.63-0.25-3.88c-6.31-80.52-23.88-150.72-41.63-189.1
			c-12.19-26.32-34.13-64.89-43.7-82.64"/>
		<path class="st1" d="M640.44,644.56c0,0,0,0.75,0.06,1.94c0.19,7.25,1,32.63,2.06,45.57c3.25,41.76,8.19,115.84,25.13,181.73
			c4.38,19.07,8.75,35.63,13.19,49.64c16.25,50.76,34.88,70.39,65.89,65.45c18.94-7.25,46.88-16.57,41.76-93.33"/>
		<path class="st1" d="M570.98,630.8c-10.31,17.57-20.38,31.26-27.32,43.51c-20.38,35.82-57.64,101.08-79.77,164.35
			c-3.44,9-6.44,17.5-8.94,25.44c-20.44,65.26-10.88,96.15,12.19,111.77c20.25,5.13,49.45,12.57,88.71-56.64
			c2.81-4.94,5.56-9.94,8.19-14.88c34.51-63.76,55.76-124.4,61.64-162.85c4.63-31.13,8.75-77.89,9.94-94.83"/>
		<path class="st1" d="M521.35,570.73c-1.13,0.38-2.25,0.81-3.38,1.19c-0.25,0.06-0.56,0.19-0.81,0.25
			c-20.75,8-35.26,13.69-49.01,19.07c-38.32,15.25-104.77,43.13-161.66,78.64c-7.06,4.19-13.57,8.19-19.69,12.07
			c-60.51,38.95-77.08,68.45-61.01,101.96c12.63,16.75,26.88,36.01,100.77,6.63c15.25-6.13,29.82-12.57,43.51-19.13
			c52.51-25.26,92.96-53.2,117.4-75.77c22.88-21.13,55.7-53.64,67.2-65.89c4-4.38,5.38-6.25,2.88-4.19"/>
		<path class="st1" d="M248.79,438.45c-67.14-4-96.77,9.88-103.21,44.32c0.44,20.63,2.25,47.13,80.58,68.45
			c12.94,3.56,25.82,6.63,38.57,9.31c64.14,13.57,123.46,17.19,158.78,14.13c33.57-3,78.83-10.44,89.52-13.32
			c2.88-0.75,3.38-1.13,0.75-1.13"/>
		<path class="st1" d="M513.85,494.9c-0.75-0.19-1.5-0.44-2.25-0.62c-21-5.94-36.01-10.13-50.32-14.07
			c-40.51-11.06-112.65-32.51-180.73-38.76c-11.44-1.38-21.94-2.31-31.69-2.88"/>
		<path class="st1" d="M656,90.19v-0.06c-14.32-55.01-37.76-66.01-57.76-67.2c-28.57,3.81-45.57,25.32-52.07,65.83"/>
		<path class="st1" d="M866.98,216.15c39.32-79.14,19.25-107.84,3.63-121.59c-34.19-19.69-69.51,0.63-117.52,68.51"/>
		<path class="st1" d="M995.39,409.19c9-5.19,19.5-11.25,28.76-17.13c68.7-43.76,63.76-70.26,58.07-90.27
			c-18.69-35.51-52.82-43.07-135.72-6.06"/>
		<path class="st1" d="M1034.52,635.43c76.33-0.19,83.27-20.57,85.89-49.2c2.63-28.63-21.69-51.76-88.14-66.58"/>
		<path class="st1" d="M1034.52,635.43c-8.25-5.75-21-13-31.26-19.25c-39.76-25.94-88.77-45.82-126.15-61.7
			c-0.19-0.06-0.25-0.06-0.44-0.19"/>
		<path class="st1" d="M967.76,739.76c74.77,31.26,104.02,24.38,117.96,1.31c13.88-22.94,3.81-66.95-51.2-105.58"/>
		<path class="st1" d="M967.51,739.58c0,0,0.06,0,0.19,0.06"/>
		<line class="st1" x1="967.69" y1="739.64" x2="967.76" y2="739.76"/>
		<path class="st1" d="M971.19,741.51c0,0-0.06-0.06-0.19-0.06c-0.56-0.38-2.63-1.31-3.25-1.69"/>
		<path class="st1" d="M788.53,895.48v0.06c34.32,48.89,86.71,56.26,106.84,48.45c30.94-19.82,32.07-51.01,3.88-113.15"/>
		<path class="st1" d="M564.48,904.61c3.19,81.08,33.26,89.64,54.2,94.52c32.38,0.81,49.82-24.57,62.2-75.7"/>
		<path class="st1" d="M370.13,771.46c-11.13,11.69-20.82,27.32-27.63,39.07c-40.88,70.01-27.07,91.02-12,106.33
			c32.82,22.32,72.33,8.56,124.46-52.7"/>
		<path class="st1" d="M264.8,560.54c-8.81,3.25-22.94,6.5-32.01,10.25c-75.14,31.13-73.27,58.2-70.26,79.95
			c12.57,36.45,53.64,44.82,124.28,31.32"/>
		<path class="st1" d="M291.18,322.8c-5.56-2.06-22.19-9.38-28.01-11.31c-76.95-25.94-92.52-2.44-104.58,16
			c-15.69,38.7,15.13,70.64,90.21,111.02c0,0.06,0.06,0.06,0.06,0.06"/>
		<path class="st1" d="M459.15,163.95C408.58,77.25,370.19,85,350,92.19c-33.82,20.38-34.69,59.14-1.13,131.72c0,0,0,0,0.06,0.06
			c0.25,0.56,0.56,1.19,0.81,1.88"/>
	</g>
</g>
<circle class="st2" cx="630.68" cy="528.28" r="118.53"/>
</svg>
