<?xml version="1.0" encoding="utf-8"?>
<!-- Generator: Adobe Illustrator 26.3.1, SVG Export Plug-In . SVG Version: 6.00 Build 0)  -->
<svg version="1.1" id="레이어_1" xmlns="http://www.w3.org/2000/svg" xmlns:xlink="http://www.w3.org/1999/xlink" x="0px"
	 y="0px" viewBox="0 0 1280 1024" style="enable-background:new 0 0 1280 1024;" xml:space="preserve">
<style type="text/css">
	.st0{fill:url(#SVGID_1_);stroke:#000000;stroke-miterlimit:10;}
	.st1{fill:#B3B3B3;stroke:#000000;stroke-width:2;stroke-miterlimit:10;}
	.st2{fill:none;stroke:#000000;stroke-width:2;stroke-miterlimit:10;}
	.st3{fill:#FFEBF9;}
	.st4{fill:#FFC600;stroke:#000000;stroke-width:2;stroke-miterlimit:10;}
</style>
<linearGradient id="SVGID_1_" gradientUnits="userSpaceOnUse" x1="115.6079" y1="509.9527" x2="1182.5955" y2="509.9527">
	<stop  offset="0" style="stop-color:#C1C1C1"/>
	<stop  offset="0.9942" style="stop-color:#B29CD3"/>
	<stop  offset="1" style="stop-color:#B29CD3"/>
</linearGradient>
<path class="st0" d="M295.55,534.71c0,27.69-10.88,50.64-32.65,68.84c-21.29,17.81-47.55,26.72-78.79,26.72
	c-17.99,0-33.47-3.97-46.44-11.91c-14.7-9-22.06-21.11-22.06-36.31c0-7.65,1.85-14.45,5.57-20.41c3.71-5.95,8.61-8.93,14.68-8.93
	c4.43,0,7.86,1.16,10.27,3.49c2.41,2.32,3.61,5.23,3.61,8.71c0,3.1-0.27,5.45-0.8,7.04c-0.53,1.6-1.43,3.12-2.69,4.58
	c-0.68,0.78-1.21,1.16-1.6,1.16c-0.29,0-0.73-0.8-1.31-2.4s-1.4-2.93-2.47-3.99c-1.45-1.55-3.25-2.32-5.37-2.32
	c-3.1,0-5.47,1.57-7.12,4.72c-1.65,3.15-2.47,6.71-2.47,10.67c0,11.81,5.9,21.01,17.72,27.59c10.07,5.61,22.37,8.42,36.89,8.42
	c25.66,0,47.39-7.94,65.21-23.82c18.88-16.75,28.32-38.34,28.32-64.77c0-8.52-1.77-16.39-5.3-23.6c-3.53-7.21-8.26-12.8-14.16-16.77
	c-3.77,4.94-8.59,9.25-14.48,12.92c-6.95,4.36-13.62,6.54-19.99,6.54c-7.05,0-12.36-1.35-15.93-4.07c-3.09-2.32-4.64-5.52-4.64-9.59
	c0-4.94,2.65-9.32,7.96-13.14c5.31-3.82,11.34-6.22,18.1-7.19c3.86-0.48,7.24-0.73,10.14-0.73c4.34,0,8.2,0.44,11.58,1.31
	c2.03-4.26,3.65-8.59,4.87-13c1.21-4.4,1.82-9.08,1.82-14.01c0-15.1-6.68-27.01-20.04-35.73c-11.81-7.74-26.05-11.62-42.7-11.62
	c-15.3,0-29.07,3.73-41.32,11.18c-12.25,7.46-19,16.51-20.26,27.16c-0.2,1.74-0.29,3-0.29,3.78c0,3.39,0.68,5.98,2.03,7.77
	c1.35,1.79,3.19,2.69,5.52,2.69c2.13,0,3.92-0.39,5.37-1.16c0.68-0.39,1.5-1.06,2.47-2.03c0.39-0.68,0.73-0.97,1.02-0.87
	c0.29,0.1,0.44,0.39,0.44,0.87c0.58,3.29-1.16,6.49-5.23,9.58c-2.81,2.13-6.2,3.19-10.16,3.19c-3.58,0-6.73-1.6-9.44-4.79
	c-3-3.49-4.5-7.99-4.5-13.51c0-13.84,7.65-26.14,22.95-36.89c15.97-11.23,34.95-16.85,56.93-16.85c20.91,0,38.49,4.07,52.72,12.2
	c16.94,9.68,25.42,23.72,25.42,42.12c0,6.68-1.21,12.88-3.63,18.59c-1.74,4.16-4.89,9.39-9.44,15.68
	c7.65,3.39,14.86,9.73,21.64,19.02C291.53,511.91,295.55,523.19,295.55,534.71z M195.19,597.8c0.2,0.19,0.34,0.48,0.44,0.86
	c0.1,0.29,0.15,0.52,0.15,0.72c0,1.05-0.88,1.57-2.62,1.57c-0.97,0.1-3.86-0.02-8.67-0.36c-4.81-0.34-8.14-0.51-9.98-0.51
	c-3.11,0-7.77,0.24-13.99,0.73c-2.33,0.19-3.98,0.24-4.95,0.15c-1.65,0-2.48-0.58-2.48-1.74c0-0.48,0.14-0.87,0.44-1.16
	c0.29-0.39,2.37-2.08,6.24-5.08c3-2.32,4.5-4.4,4.5-6.24V453.1c0-3-0.92-5.13-2.76-6.39c-2.23-0.87-3.75-1.53-4.57-1.96
	c-0.82-0.43-1.23-0.94-1.23-1.52c0-0.58,0.44-1.07,1.31-1.45c0.78-0.68,2.28-1.64,4.52-2.9c7.09-3.97,11.32-6.39,12.68-7.26
	c2.33-1.45,6.22-4.11,11.66-7.99c3.98-2.9,6.61-4.5,7.87-4.79c1.07-0.48,1.6-0.19,1.6,0.87c0,0.29-0.15,0.68-0.44,1.16
	c-3.63,6.01-6.18,11.82-7.65,17.44c-1.77,6.88-2.65,14.34-2.65,22.38v126.16c0,1.84,1.47,3.88,4.41,6.1
	C192.93,595.9,194.99,597.52,195.19,597.8z M242.68,486.5c-3.78-1.26-8.04-1.89-12.78-1.89c-1.55,0-3.49,0.12-5.81,0.36
	c-2.32,0.24-5.08,1.19-8.28,2.83c-3.97,2.13-5.95,4.7-5.95,7.7c0,2.71,1.5,4.55,4.5,5.52c1.74,0.58,3.44,0.87,5.08,0.87
	c4.36,0,8.79-1.53,13.29-4.58C237.24,494.27,240.55,490.66,242.68,486.5z M371.65,596.37c1.16,1.14,1.74,2.09,1.74,2.86
	c0,1.14-1.07,1.72-3.19,1.72c-1.74,0-3.2-0.06-4.36-0.17c-6-0.56-9.97-0.85-11.91-0.85c-3.48,0-6.32,0.11-8.5,0.34
	c-2.18,0.23-4.67,0.45-7.48,0.68c-2.32,0-3.48-0.59-3.48-1.77c0-0.59,0.48-1.48,1.45-2.66c2.42-1.97,4.21-3.49,5.37-4.58
	c2.23-1.93,3.34-3.72,3.34-5.37V431.31c0-2.8-0.1-5.03-0.29-6.68c-0.19-1.64-1.36-2.32-3.48-2.03c-1.07,0.2-2.86,1.14-5.37,2.83
	c-2.52,1.7-4.21,2.69-5.08,2.98c-1.45,0.49-2.18-0.05-2.18-1.6c0-0.49,0.29-1.16,0.87-2.04c0.58-0.87,3.24-3.59,7.99-8.16
	c3.78-3.69,6.77-6.66,9-8.89c3.29-3.3,6.87-7.24,10.75-11.81c2.71-3.2,4.45-5.1,5.23-5.68c0.19-0.19,0.48-0.34,0.87-0.44
	c0.29-0.09,0.53-0.15,0.73-0.15c0.87,0,1.31,0.78,1.31,2.33c-0.49,3.11-0.9,6.96-1.23,11.57c-0.34,4.61-0.51,9.48-0.51,14.62v168.71
	c0,1.55,1.02,3.25,3.05,5.09C368.02,593.46,369.81,594.94,371.65,596.37z M674.59,554.18c0,15.3-6.63,27.84-19.9,37.61
	c-12.39,9.2-27.16,13.8-44.29,13.8c-14.52,0-26.58-2.37-36.16-7.12c-11.72-5.81-17.57-14.38-17.57-25.71
	c0-8.62,3.17-15.9,9.51-21.86c6.34-5.95,13.92-8.93,22.73-8.93c9.1,0,16.51,1.65,22.22,4.94c6.48,3.78,9.73,9.1,9.73,15.97
	c0,4.36-1.57,8.16-4.72,11.4c-3.15,3.24-6.9,4.86-11.26,4.86c-4.16,0-7.17-0.77-9-2.32c-0.49-0.48-0.73-0.87-0.73-1.16
	c0-0.68,0.63-1.16,1.89-1.45c1.64-0.58,3.03-1.6,4.14-3.05c1.11-1.45,1.67-3.73,1.67-6.83c0-2.81-1.5-5.11-4.5-6.9
	c-3-1.79-6.24-2.69-9.73-2.69c-6.87,0-12.66,1.65-17.35,4.94c-4.7,3.29-7.04,7.84-7.04,13.65c0,8.13,5.18,14.43,15.54,18.88
	c8.62,3.68,18.83,5.52,30.64,5.52c12.29,0,23.04-2.76,32.24-8.28c10.84-6.49,16.27-15.25,16.27-26.29
	c0-11.04-3.97-19.22-11.91-24.54c-4.94-3.29-14.33-6.63-28.18-10.02c-7.94-1.74-15.83-3.53-23.67-5.37
	c-8.91-2.42-15.44-5.57-19.61-9.44c-5.42-5.03-8.13-12.1-8.13-21.2c0-10.36,5.47-18.93,16.41-25.71
	c10.07-6.29,21.64-9.44,34.71-9.44c11.81,0,21.35,1.5,28.61,4.5c9.59,3.97,14.38,10.12,14.38,18.44c0,5.32-2.57,9.73-7.7,13.21
	c-4.74,3.2-10.21,4.79-16.41,4.79c-5.91,0-10.84-1.11-14.81-3.34c-4.84-2.71-7.26-6.58-7.26-11.62c0-2.61,0.89-4.91,2.69-6.9
	c1.79-1.98,3.8-3.32,6.03-3.99c0.97-0.19,1.5-0.29,1.6-0.29c0.68,0,1.02,0.48,1.02,1.45l-0.29,2.9c0,2.13,0.68,3.87,2.03,5.23
	c1.74,1.74,4.55,2.61,8.42,2.61c2.52,0,4.69-0.87,6.53-2.61c1.84-1.74,2.76-3.78,2.76-6.1c0-4.36-3.15-7.45-9.44-9.29
	c-4.65-1.35-10.7-2.03-18.15-2.03c-9.29,0-17.67,2.08-25.12,6.24c-8.23,4.65-12.34,10.41-12.34,17.28c0,6.2,2.71,11.04,8.13,14.52
	c3.39,2.23,14.23,5.42,32.53,9.59c11.33,2.61,20.04,5.13,26.14,7.55c8.52,3.39,14.91,7.55,19.17,12.49
	C672.07,537.91,674.59,545.27,674.59,554.18z M819.24,554.18c0,15.3-6.63,27.84-19.9,37.61c-12.4,9.2-27.16,13.8-44.3,13.8
	c-14.52,0-26.58-2.37-36.16-7.12c-11.72-5.81-17.57-14.38-17.57-25.71c0-8.62,3.17-15.9,9.51-21.86c6.34-5.95,13.92-8.93,22.73-8.93
	c9.1,0,16.51,1.65,22.22,4.94c6.48,3.78,9.73,9.1,9.73,15.97c0,4.36-1.57,8.16-4.72,11.4c-3.15,3.24-6.9,4.86-11.26,4.86
	c-4.16,0-7.17-0.77-9-2.32c-0.48-0.48-0.73-0.87-0.73-1.16c0-0.68,0.63-1.16,1.89-1.45c1.65-0.58,3.03-1.6,4.14-3.05
	c1.11-1.45,1.67-3.73,1.67-6.83c0-2.81-1.5-5.11-4.5-6.9c-3-1.79-6.24-2.69-9.73-2.69c-6.88,0-12.66,1.65-17.35,4.94
	c-4.7,3.29-7.05,7.84-7.05,13.65c0,8.13,5.18,14.43,15.54,18.88c8.62,3.68,18.83,5.52,30.64,5.52c12.29,0,23.04-2.76,32.24-8.28
	c10.84-6.49,16.26-15.25,16.26-26.29c0-11.04-3.97-19.22-11.91-24.54c-4.94-3.29-14.33-6.63-28.17-10.02
	c-7.94-1.74-15.83-3.53-23.67-5.37c-8.91-2.42-15.44-5.57-19.61-9.44c-5.42-5.03-8.13-12.1-8.13-21.2
	c0-10.36,5.47-18.93,16.41-25.71c10.07-6.29,21.64-9.44,34.71-9.44c11.81,0,21.35,1.5,28.61,4.5c9.58,3.97,14.38,10.12,14.38,18.44
	c0,5.32-2.57,9.73-7.69,13.21c-4.74,3.2-10.22,4.79-16.41,4.79c-5.91,0-10.84-1.11-14.81-3.34c-4.84-2.71-7.26-6.58-7.26-11.62
	c0-2.61,0.9-4.91,2.69-6.9c1.79-1.98,3.8-3.32,6.03-3.99c0.97-0.19,1.5-0.29,1.6-0.29c0.68,0,1.02,0.48,1.02,1.45l-0.29,2.9
	c0,2.13,0.68,3.87,2.03,5.23c1.74,1.74,4.55,2.61,8.42,2.61c2.52,0,4.69-0.87,6.53-2.61c1.84-1.74,2.76-3.78,2.76-6.1
	c0-4.36-3.15-7.45-9.44-9.29c-4.65-1.35-10.7-2.03-18.15-2.03c-9.29,0-17.67,2.08-25.13,6.24c-8.23,4.65-12.34,10.41-12.34,17.28
	c0,6.2,2.71,11.04,8.13,14.52c3.39,2.23,14.23,5.42,32.53,9.59c11.33,2.61,20.04,5.13,26.14,7.55c8.52,3.39,14.91,7.55,19.17,12.49
	C816.72,537.91,819.24,545.27,819.24,554.18z M1182.6,511.25c0,12.7-3.24,26.22-9.73,40.56c-6.1,13.47-14.28,26.02-24.54,37.65
	c0.29,0,0.8,0.02,1.53,0.07c0.73,0.05,1.72,0.07,2.98,0.07c3,0,5.86-0.17,8.57-0.51c2.71-0.34,5.37-1.43,7.99-3.27
	c1.55-1.26,3.14-2.56,4.79-3.92c0.58-0.58,1.16-0.68,1.74-0.29c0.48,0.39,0.68,1.07,0.58,2.03c-0.29,1.94-0.56,3.85-0.8,5.74
	c-0.24,1.89-0.36,3.27-0.36,4.14c0,2.13,0.07,3.9,0.22,5.3c0.15,1.4,0.36,3.02,0.65,4.87c0.19,1.64-0.15,2.47-1.02,2.47
	c-0.68,0-1.4-0.34-2.18-1.02c-1.84-1.26-3.87-2.28-6.1-3.05c-2.23-0.78-4.28-1.31-6.17-1.6c-1.89-0.29-4.92-0.44-9.08-0.44
	c-2.81,0-5.03,0.04-6.68,0.11c-1.65,0.07-3.83,0.29-6.53,0.65c-0.39,0.07-0.73,0.11-1.02,0.11c-0.49,0-0.82,0-1.02,0
	c-1.84,0-2.76-0.63-2.76-1.89c0-0.58,0.34-1.45,1.02-2.61c4.84-7.45,9.05-14.55,12.63-21.32c4.74-8.9,8.37-17.12,10.89-24.66
	c3.1-9.28,4.65-17.65,4.65-25.1c0-15.86-2.28-28.19-6.82-36.99c-5.42-10.35-13.89-15.52-25.42-15.52c-4.74,0-9.25,0.94-13.51,2.83
	c-4.26,1.89-8.08,4.82-11.47,8.79c1.74,4.74,3,10.51,3.78,17.28c0.77,6.78,1.16,13.99,1.16,21.64c0,9.49-2.23,20.58-6.68,33.26
	c-3.49,9.97-7.84,19.75-13.07,29.34c-4.26,7.84-7.26,12.63-9,14.38c-0.29,0.39-0.92,0.58-1.89,0.58c-1.55,0-2.47-0.29-2.76-0.87
	c-0.29-0.38-0.34-0.92-0.14-1.6c0.58-1.36,0.92-2.18,1.02-2.47c8.52-17.62,12.78-41.05,12.78-70.29c0-14.13-2.71-26.14-8.13-36.02
	c-5.91-10.65-13.56-15.97-22.95-15.97c-6.39,0-12.39,2.66-18.01,7.99c-4.75,4.45-8.23,9.73-10.46,15.83v89.03
	c0,1.64,1.11,3.38,3.34,5.22c1.74,1.47,3.53,2.95,5.37,4.43c1.16,1.18,1.74,2.17,1.74,2.95c0,1.18-1.07,1.77-3.2,1.77
	c-1.07,0-3.87-0.15-8.42-0.44c-4.55-0.29-7.26-0.44-8.13-0.44c-3.49,0-6.32,0.1-8.5,0.29c-2.18,0.19-4.67,0.39-7.48,0.58
	c-2.23,0-3.34-0.54-3.34-1.62c0-0.78,0.53-1.72,1.6-2.8c2.32-1.97,4.07-3.49,5.23-4.58c2.13-1.93,3.2-3.72,3.2-5.37v-85.88
	c0-8.22-2.57-14.89-7.7-20.02c-1.94-1.93-5.66-4.45-11.18-7.55c-0.78-0.48-1.16-1.06-1.16-1.74c0-0.48,0.29-0.97,0.87-1.45
	c1.55-1.16,3.78-3.19,6.68-6.09c1.45-1.45,2.56-2.61,3.34-3.48c0.77-0.87,1.48-1.67,2.11-2.39c0.63-0.73,1.18-1.09,1.67-1.09
	c0.48,0,1.02,0.29,1.6,0.87c3.68,3.19,7.36,7.21,11.04,12.05c5.13,6.68,8.13,12.44,9,17.28c3.39-7.07,7.26-12.87,11.62-17.43
	c7.74-8.13,16.65-12.2,26.72-12.2c8.33,0,15.73,2.32,22.22,6.97c4.45,3.19,8.86,7.84,13.22,13.94c3.87-5.81,8.28-10.5,13.21-14.09
	c6.29-4.55,13.02-6.83,20.19-6.83c16.65,0,29.09,6.45,37.32,19.34C1179.55,486.39,1182.6,497.87,1182.6,511.25z"/>
<circle class="st1" cx="467.38" cy="533.12" r="18.96"/>
<path class="st2" d="M454.77,517.77c0.76,1.84-4.33-8.32-7.35-14.29c-3.02-5.97-6.09-15.99-7.48-28.65
	c-1.39-12.66,1.65-14.77,4.7-16.02c6.31-1.18,10.79,2.97,14.43,16.71c3.02,10.3,4.21,23.21,4.92,29.77
	c0.26,2.39,0.49,5.27,0.83,8.88 M476.5,516.63c1.24-2.68,4.08-8.22,5.46-12.53c2.4-6.25,4.95-18.81,5.04-31.54
	c0.09-12.73-4.16-14.07-7.32-15.01c-6.4-0.53-9.65,5.06-11.87,19.09c-1.95,10.55-1.61,21.98-1.66,28.58
	c-0.02,2.4-0.09,5.32-0.07,8.95 M517.89,495.92c7.4-10.36,5.31-14.2,3.26-16.78c-4.93-4.11-11.32-1.15-21.21,9.05
	c-7.67,7.51-14.49,17.28-18.33,22.65c-1.29,1.81-2.26,3.4-4.09,6.04 M485.09,525.04c2.83-1.67,6.27-3.45,9.99-5.94
	c5.56-3.73,15.42-12.81,22.82-23.17 M486.04,536.82c2.69,0.24,10.37,0.62,15.39,0.69c6.69,0.09,17.52-1.2,29.5-5.52
	s12.43-8.57,12.21-11.86c-1.72-6.19-8.55-7.99-22.49-5.22c-10.58,1.82-21.58,6.1-27.79,8.34c-2.26,0.82-4.64,1.7-8.03,2.97
	 M454.88,518.36c-2.3-2.85-3.91-4.83-5.46-6.7c-4.25-5.13-11.64-14.5-19.91-21.5c-10.71-9.55-17.06-11.53-21.73-7.02
	c-1.88,2.75-3.52,6.49,4.69,16.39c8.21,9.9,16.29,16.81,22.17,20.16c5.88,3.35,16.15,8.64,14.49,7.51 M478.93,547.77
	c0.13,0.17,0.61-0.18,0.74,0c2.22,2.86,3.91,5.45,5.41,7.32c4.12,5.16,10.75,13.32,18.73,20.81c10.47,9.63,16.83,12.9,21.64,8.46
	c1.96-2.72,4.21-6.95-3.75-16.9c-7.95-9.95-16.47-17.5-22.26-20.9s-15.3-8.32-13.66-7.18 M468.93,551.72c0,0,0.15,5.17,0.34,7.6
	c0.52,6.67,1.31,18.53,4.02,29.06c3.23,14.03,6.3,19.43,12.65,18.42c3.09-1.18,7.65-2.7,6.64-15.58
	c-1.01-12.88-3.81-24.1-6.66-30.25c-1.95-4.22-5.46-10.38-6.99-13.22 M457.82,549.52c-1.65,2.82-3.26,5-4.37,6.96
	c-3.25,5.73-9.22,16.16-12.76,26.29c-5.04,13.28-3.61,19.14,0.52,21.96c3.25,0.82,7.91,2,14.19-9.05
	c6.28-11.06,10.16-21.8,11.17-28.44c0.75-4.98,1.4-12.46,1.6-15.17 M467.76,552.08 M449.88,539.91c-0.17,0.06-0.35,0.13-0.54,0.2
	c-3.38,1.29-5.74,2.21-7.97,3.09c-6.12,2.44-16.76,6.89-25.86,12.58c-12.24,7.21-15.74,12.34-12.9,18.24
	c2.03,2.68,4.3,5.76,16.11,1.05s20.82-10.62,25.75-15.18s12.77-12.45,11.21-11.21 M448.68,527.78c-3.55-1.02-6.04-1.71-8.4-2.35
	c-6.49-1.76-18.03-5.2-28.91-6.2c-14.37-1.69-20.42,0.3-21.59,6.61c0.08,3.31,0.36,7.55,12.89,10.95c12.53,3.4,24.8,4.35,31.58,3.74
	s16.46-2.32,14.44-2.29 M471.41,463.04c-2.28-8.82-6.04-10.57-9.23-10.77c-4.57,0.61-7.29,4.05-8.34,10.53 M505.18,483.19
	c6.29-12.66,3.08-17.24,0.58-19.45c-5.47-3.15-11.12,0.11-18.79,10.96 M525.71,514.06c1.44-0.83,3.12-1.8,4.6-2.74
	c10.99-6.99,10.2-11.24,9.3-14.43c-3-5.69-8.45-6.89-21.71-0.98 M531.98,550.27c12.21-0.03,13.32-3.29,13.73-7.87
	s-3.47-8.28-14.09-10.66 M531.98,550.27c-1.33-0.93-3.37-2.09-4.99-3.08c-6.4-4.16-14.27-7.35-20.26-9.9 M521.81,567.21
	c0.21,0.09-0.74-0.37-0.53-0.28c11.97,5.01,16.66,3.9,18.88,0.23s0.61-10.72-8.18-16.89 M492.62,591.86
	c5.48,7.84,13.88,9.01,17.09,7.77c4.95-3.17,5.13-8.16,0.62-18.1 M456.78,593.31c0.51,12.96,5.32,14.35,8.67,15.12
	c5.18,0.15,7.97-3.91,9.96-12.1 M425.68,572.03c-1.78,1.86-3.32,4.36-4.41,6.23c-6.55,11.2-4.32,14.56-1.92,17.02
	c5.26,3.57,11.57,1.37,19.92-8.43 M408.83,538.28c-1.4,0.51-3.67,1.03-5.11,1.63c-12.01,4.98-11.71,9.32-11.24,12.8
	c2.01,5.82,8.57,7.16,19.88,5.01 M413.07,500.25c-0.9-0.33-3.55-1.51-4.48-1.82c-12.3-4.14-14.8-0.38-16.72,2.56
	c-2.51,6.19,2.42,11.3,14.44,17.77 M439.94,474.84c-8.1-13.87-14.24-12.63-17.47-11.48c-5.45,3.28-5.55,9.57-0.02,21.37
	 M439.32,475.52 M440.53,477.45"/>
<g id="XMLID_00000130642162731235225900000018434521524639262091_">
	<g>
		<path class="st3" d="M975.92,538.62c10.63,2.36,14.51,6.07,14.1,10.65s-1.53,7.84-13.74,7.87c-1.32-0.92-3.36-2.08-5-3.08
			c-6.36-4.15-14.2-7.33-20.18-9.87c6.48-0.49,14.98-2.02,24.14-5.32c0.24-0.09,0.46-0.16,0.68-0.25V538.62z"/>
		<path class="st3" d="M892.63,534.54l0.19-0.64c-2.32-1.1-9.4-4.79-13.89-7.35c-5.73-3.27-13.56-9.93-21.56-19.44
			c-0.21-0.24-0.42-0.48-0.61-0.71c-8.21-9.9-6.56-13.64-4.68-16.39c3.51-3.41,7.97-3.12,14.53,1.28c0,0,0,0,0.01,0.01
			c2.16,1.44,4.55,3.35,7.2,5.71c8.27,7,15.64,16.37,19.91,21.5c1.49,1.8,3.03,3.69,5.19,6.36l0.16-0.13
			c-0.62-1.01-4.76-9.26-7.36-14.41c-3.02-5.96-6.08-15.99-7.48-28.64c-1.38-12.66,1.65-14.77,4.71-16.02
			c3.6-0.68,6.6,0.39,9.21,3.99c1.95,2.71,3.66,6.83,5.22,12.71c3.02,10.31,4.21,23.21,4.92,29.77c0.27,2.38,0.49,5.26,0.83,8.88
			h1.25c-0.03-3.63,0.06-6.54,0.07-8.95c0.04-6.6-0.3-18.02,1.65-28.58c0.95-6.02,2.1-10.5,3.61-13.59v-0.01
			c1.99-4.09,4.61-5.77,8.25-5.47c3.17,0.92,7.42,2.26,7.33,15.01c0,0.71-0.01,1.43-0.04,2.14c-0.33,11.99-2.72,23.5-5,29.4
			c-1.38,4.31-4.22,9.84-5.46,12.52l1.03,0.25c1.83-2.63,2.8-4.22,4.09-6.04c3.84-5.37,10.66-15.14,18.32-22.65
			c1.87-1.92,3.61-3.58,5.23-5c7.02-6.07,11.97-7.39,15.97-4.06c2.05,2.59,4.15,6.42-3.26,16.79
			c-7.39,10.37-17.27,19.44-22.81,23.17c-3.72,2.5-7.15,4.27-9.99,5.95l0.36,0.94c3.08-1.15,5.29-1.96,7.42-2.74
			c6.2-2.23,17.21-6.51,27.79-8.33c1.8-0.36,3.49-0.64,5.06-0.85c10.56-1.38,15.94,0.68,17.43,6.07c0.22,3.23-0.21,7.38-11.53,11.6
			c-0.22,0.09-0.45,0.16-0.68,0.25c-9.16,3.3-17.65,4.83-24.14,5.32c-1.99,0.16-3.79,0.22-5.37,0.19
			c-5.01-0.06-12.7-0.45-15.38-0.68l-0.46,2.39c0-0.21,8.51,4.21,13.86,7.35c5.68,3.35,14.01,10.68,21.83,20.37l0.01,0.01
			c0.13,0.16,0.28,0.33,0.42,0.51c7.96,9.96,5.71,14.19,3.75,16.91c-3.72,3.42-8.36,2.26-15.09-2.89c-1.99-1.52-4.16-3.38-6.56-5.58
			c-7.97-7.5-14.6-15.66-18.72-20.8c-1.5-1.89-3.18-4.46-5.41-7.33c-0.13-0.18-0.61,0.16-0.74,0c1.53,2.84,5.04,9.01,6.99,13.22
			c2.84,6.14,5.65,17.37,6.66,30.25c0.01,0.21,0.03,0.42,0.04,0.62v0.01c0.82,12.28-3.64,13.77-6.68,14.93
			c-4.97,0.79-7.94-2.35-10.54-10.47c-0.71-2.25-1.41-4.89-2.11-7.94c-2.71-10.54-3.49-22.4-4.02-29.07
			c-0.16-2.07-0.3-6.13-0.33-7.29l-0.79,0.03c-0.19,2.71-0.85,10.19-1.59,15.17c-0.94,6.16-4.34,15.85-9.86,26.05
			c-0.42,0.79-0.86,1.59-1.31,2.38c-6.28,11.06-10.95,9.87-14.19,9.06c-3.69-2.5-5.22-7.44-1.95-17.88c0.4-1.28,0.88-2.63,1.43-4.07
			c3.54-10.13,9.5-20.57,12.76-26.29c1.12-1.96,2.72-4.15,4.37-6.96l-2.6-0.16c-1.84,1.96-7.09,7.17-10.75,10.54
			c-3.91,3.61-10.38,8.08-18.78,12.12c-2.19,1.06-4.52,2.08-6.96,3.06c-11.82,4.7-14.1,1.62-16.12-1.06
			c-2.57-5.37,0.07-10.08,9.76-16.31c0.98-0.62,2.02-1.26,3.15-1.93c9.1-5.68,19.73-10.14,25.86-12.58c2.2-0.86,4.52-1.77,7.84-3.05
			l-0.65-1.74c-1.71,0.46-8.95,1.65-14.32,2.13c-5.65,0.49-15.14-0.09-25.4-2.26c-2.04-0.43-4.1-0.92-6.17-1.49
			c-12.54-3.41-12.82-7.64-12.89-10.95c1.03-5.52,5.77-7.73,16.51-7.09c0,0.01,0.01,0.01,0.01,0.01c1.56,0.09,3.24,0.24,5.07,0.46
			c10.89,1,22.43,4.43,28.91,6.2C886.87,532.92,889.27,533.59,892.63,534.54z"/>
		<path class="st3" d="M976.28,557.13c8.8,6.19,10.41,13.22,8.19,16.89c-2.23,3.69-6.92,4.79-18.87-0.21l-0.01-0.01
			c-7.82-9.7-16.15-17.03-21.83-20.37c-5.35-3.14-13.86-7.55-13.86-7.35l0.46-2.39c2.68,0.24,10.37,0.62,15.38,0.68
			c1.58,0.03,3.38-0.03,5.37-0.19c5.98,2.54,13.82,5.73,20.18,9.87C972.92,555.05,974.96,556.21,976.28,557.13z"/>
		<path class="st3" d="M983.91,503.76c0.91,3.2,1.7,7.44-9.29,14.44c-1.47,0.94-3.15,1.9-4.6,2.74c-1.56,0.21-3.26,0.49-5.06,0.85
			c-10.59,1.81-21.59,6.1-27.79,8.33c-2.13,0.77-4.34,1.59-7.42,2.74l-0.36-0.94c2.84-1.68,6.28-3.45,9.99-5.95
			c5.55-3.73,15.42-12.8,22.81-23.17C975.46,496.87,980.92,498.08,983.91,503.76z"/>
		<path class="st3" d="M954.64,588.39c4.51,9.93,4.33,14.93-0.62,18.1c-3.21,1.25-11.6,0.07-17.09-7.75v-0.01
			c-0.01-0.21-0.03-0.42-0.04-0.62c-1.01-12.88-3.82-24.11-6.66-30.25c-1.95-4.21-5.46-10.38-6.99-13.22c0.13,0.16,0.61-0.18,0.74,0
			c2.23,2.87,3.91,5.44,5.41,7.33c4.12,5.15,10.75,13.31,18.72,20.8c2.39,2.2,4.57,4.06,6.56,5.58L954.64,588.39z"/>
		<path class="st3" d="M950.06,470.61c2.5,2.2,5.71,6.8-0.58,19.45c-1.62,1.41-3.36,3.08-5.23,5c-7.66,7.51-14.48,17.28-18.32,22.65
			c-1.29,1.81-2.26,3.41-4.09,6.04l-1.03-0.25c1.23-2.68,4.07-8.21,5.46-12.52c2.28-5.9,4.67-17.41,5-29.4
			C938.94,470.72,944.59,467.46,950.06,470.61z"/>
		<path class="st3" d="M917.6,595.26c0.7,3.05,1.4,5.7,2.11,7.94c-1.98,8.18-4.77,12.24-9.95,12.11c-3.35-0.79-8.16-2.16-8.67-15.12
			l-0.07-0.03c5.52-10.2,8.92-19.9,9.86-26.05c0.74-4.98,1.4-12.46,1.59-15.17l0.79-0.03c0.03,1.16,0.16,5.22,0.33,7.29
			C914.1,572.87,914.89,584.72,917.6,595.26z"/>
		<path class="st3" d="M915.73,469.9v0.01c-1.52,3.09-2.66,7.57-3.61,13.59c-1.95,10.56-1.61,21.98-1.65,28.58
			c-0.01,2.41-0.1,5.32-0.07,8.95h-1.25c-0.34-3.61-0.57-6.5-0.83-8.88c-0.71-6.56-1.9-19.47-4.92-29.77
			c-1.56-5.89-3.27-10.01-5.22-12.71c1.04-6.48,3.76-9.92,8.33-10.53C909.69,459.34,913.43,461.09,915.73,469.9z"/>
		<path class="st3" d="M899.53,556.23l2.6,0.16c-1.65,2.81-3.26,5-4.37,6.96c-3.26,5.73-9.22,16.17-12.76,26.29
			c-0.55,1.44-1.03,2.8-1.43,4.07c-8.34,9.8-14.66,12-19.91,8.43c-2.41-2.45-4.62-5.81,1.92-17.01c1.09-1.87,2.63-4.37,4.42-6.25
			c8.4-4.04,14.87-8.51,18.78-12.12C892.44,563.39,897.69,558.19,899.53,556.23z"/>
		<path class="st3" d="M899.08,524.76l-0.16,0.13c-2.16-2.68-3.7-4.57-5.19-6.36c-4.27-5.13-11.64-14.5-19.91-21.5
			c-2.65-2.36-5.04-4.27-7.2-5.71c-0.01-0.01-0.01-0.01-0.01-0.01c-5.37-11.61-5.23-17.82,0.18-21.07
			c3.23-1.15,9.37-2.39,17.46,11.48c1.4,12.66,4.46,22.68,7.48,28.64C894.33,515.49,898.46,523.75,899.08,524.76z"/>
		<path class="st3" d="M892.87,545.28l0.65,1.74c-3.32,1.28-5.64,2.19-7.84,3.05c-6.13,2.44-16.76,6.9-25.86,12.58
			c-1.13,0.67-2.17,1.31-3.15,1.93c-11.3,2.16-17.88,0.82-19.88-5.01c-0.48-3.48-0.77-7.81,11.24-12.79
			c1.44-0.59,3.7-1.12,5.12-1.64c10.26,2.17,19.75,2.75,25.4,2.26C883.92,546.93,891.16,545.74,892.87,545.28z"/>
		<path class="st3" d="M892.82,533.9l-0.19,0.64c-3.36-0.95-5.76-1.62-8.05-2.25c-6.48-1.77-18.02-5.2-28.91-6.2
			c-1.83-0.22-3.51-0.37-5.07-0.46c0,0-0.01,0-0.01-0.01c-12-6.45-16.94-11.57-14.43-17.76c1.93-2.94,4.42-6.71,16.73-2.56
			c0.92,0.31,3.58,1.49,4.48,1.81c8,9.5,15.84,16.17,21.56,19.44C883.42,529.12,890.5,532.8,892.82,533.9z"/>
	</g>
	<g>
		<path class="st2" d="M899.08,524.64c0.1,0.25,0.1,0.28,0,0.12c-0.62-1.01-4.76-9.26-7.36-14.41c-3.02-5.96-6.08-15.99-7.48-28.64
			c-1.38-12.66,1.65-14.77,4.71-16.02c3.6-0.68,6.6,0.39,9.21,3.99c1.95,2.71,3.66,6.83,5.22,12.71
			c3.02,10.31,4.21,23.21,4.92,29.77c0.27,2.38,0.49,5.26,0.83,8.88"/>
		<path class="st2" d="M915.73,469.91c-1.52,3.09-2.66,7.57-3.61,13.59c-1.95,10.56-1.61,21.98-1.65,28.58
			c-0.01,2.41-0.1,5.32-0.07,8.95"/>
		<path class="st2" d="M920.81,523.49c1.23-2.68,4.07-8.21,5.46-12.52c2.28-5.9,4.67-17.41,5-29.4c0.03-0.71,0.04-1.43,0.04-2.14
			c0.09-12.74-4.16-14.08-7.33-15.01c-3.64-0.3-6.26,1.38-8.25,5.47"/>
		<path class="st2" d="M962.2,502.79c7.41-10.37,5.31-14.2,3.26-16.79c-4-3.33-8.95-2.01-15.97,4.06c-1.62,1.41-3.36,3.08-5.23,5
			c-7.66,7.51-14.48,17.28-18.32,22.65c-1.29,1.81-2.26,3.41-4.09,6.04"/>
		<path class="st2" d="M929.39,531.91c2.84-1.68,6.28-3.45,9.99-5.95c5.55-3.73,15.42-12.8,22.81-23.17"/>
		<path class="st2" d="M930.36,543.69c2.68,0.24,10.37,0.62,15.38,0.68c1.58,0.03,3.38-0.03,5.37-0.19
			c6.48-0.49,14.98-2.02,24.14-5.32c0.24-0.09,0.46-0.16,0.68-0.25c11.32-4.22,11.75-8.37,11.53-11.6
			c-1.49-5.38-6.87-7.45-17.43-6.07c-1.56,0.21-3.26,0.49-5.06,0.85c-10.59,1.81-21.59,6.1-27.79,8.33
			c-2.13,0.77-4.34,1.59-7.42,2.74c-0.19,0.09-0.4,0.16-0.61,0.24"/>
		<path class="st2" d="M893.58,534.22c-0.03-0.04-0.09-0.09-0.16-0.15"/>
		<path class="st2" d="M866.61,491.3c-6.56-4.4-11.02-4.68-14.53-1.28c-1.87,2.75-3.52,6.48,4.68,16.39
			c0.19,0.24,0.4,0.48,0.61,0.71c8,9.5,15.84,16.17,21.56,19.44c4.49,2.56,11.57,6.25,13.89,7.35c0.43,0.19,0.7,0.31,0.76,0.31
			c0.01,0,0.01,0,0.01,0"/>
		<path class="st2" d="M899.19,525.23c-0.09-0.12-0.18-0.22-0.27-0.34c-2.16-2.68-3.7-4.57-5.19-6.36
			c-4.27-5.13-11.64-14.5-19.91-21.5c-2.65-2.36-5.04-4.27-7.2-5.71"/>
		<path class="st2" d="M965.59,573.8c-7.82-9.7-16.15-17.03-21.83-20.37c-5.35-3.14-13.86-7.55-13.86-7.35
			c0,0.03,0.06,0.07,0.19,0.16"/>
		<path class="st2" d="M923.24,554.63c0.13,0.16,0.61-0.18,0.74,0c2.23,2.87,3.91,5.44,5.41,7.33c4.12,5.15,10.75,13.31,18.72,20.8
			c2.39,2.2,4.57,4.06,6.56,5.58c6.74,5.15,11.38,6.31,15.09,2.89c1.96-2.72,4.21-6.94-3.75-16.91c-0.13-0.18-0.28-0.34-0.42-0.51"
			/>
		<path class="st2" d="M936.93,598.73c-0.01-0.21-0.03-0.42-0.04-0.62c-1.01-12.88-3.82-24.11-6.66-30.25
			c-1.95-4.21-5.46-10.38-6.99-13.22"/>
		<path class="st2" d="M913.24,558.59c0,0,0,0.12,0.01,0.31c0.03,1.16,0.16,5.22,0.33,7.29c0.52,6.68,1.31,18.53,4.02,29.07
			c0.7,3.05,1.4,5.7,2.11,7.94c2.6,8.12,5.58,11.26,10.54,10.47c3.03-1.16,7.5-2.65,6.68-14.93"/>
		<path class="st2" d="M902.13,556.39c-1.65,2.81-3.26,5-4.37,6.96c-3.26,5.73-9.22,16.17-12.76,26.29
			c-0.55,1.44-1.03,2.8-1.43,4.07c-3.27,10.44-1.74,15.38,1.95,17.88c3.24,0.82,7.91,2.01,14.19-9.06c0.45-0.79,0.89-1.59,1.31-2.38
			c5.52-10.2,8.92-19.9,9.86-26.05c0.74-4.98,1.4-12.46,1.59-15.17"/>
		<path class="st2" d="M894.19,546.78c-0.18,0.06-0.36,0.13-0.54,0.19c-0.04,0.01-0.09,0.03-0.13,0.04
			c-3.32,1.28-5.64,2.19-7.84,3.05c-6.13,2.44-16.76,6.9-25.86,12.58c-1.13,0.67-2.17,1.31-3.15,1.93
			c-9.68,6.23-12.33,10.95-9.76,16.31c2.02,2.68,4.3,5.76,16.12,1.06c2.44-0.98,4.77-2.01,6.96-3.06
			c8.4-4.04,14.87-8.51,18.78-12.12c3.66-3.38,8.91-8.58,10.75-10.54c0.64-0.7,0.86-1,0.46-0.67"/>
		<path class="st2" d="M850.59,525.62c-10.74-0.64-15.48,1.58-16.51,7.09c0.07,3.3,0.36,7.54,12.89,10.95
			c2.07,0.57,4.13,1.06,6.17,1.49c10.26,2.17,19.75,2.75,25.4,2.26c5.37-0.48,12.61-1.67,14.32-2.13c0.46-0.12,0.54-0.18,0.12-0.18"
			/>
		<path class="st2" d="M892.99,534.65c-0.12-0.03-0.24-0.07-0.36-0.1c-3.36-0.95-5.76-1.62-8.05-2.25
			c-6.48-1.77-18.02-5.2-28.91-6.2c-1.83-0.22-3.51-0.37-5.07-0.46"/>
		<path class="st2" d="M915.73,469.91v-0.01c-2.29-8.8-6.04-10.56-9.24-10.75c-4.57,0.61-7.29,4.05-8.33,10.53"/>
		<path class="st2" d="M949.48,490.06c6.29-12.66,3.08-17.25,0.58-19.45c-5.47-3.15-11.12,0.1-18.8,10.96"/>
		<path class="st2" d="M970.02,520.94c1.44-0.83,3.12-1.8,4.6-2.74c10.99-7,10.2-11.24,9.29-14.44c-2.99-5.68-8.45-6.89-21.71-0.97"
			/>
		<path class="st2" d="M976.28,557.13c12.21-0.03,13.32-3.29,13.74-7.87s-3.47-8.28-14.1-10.65"/>
		<path class="st2" d="M976.28,557.13c-1.32-0.92-3.36-2.08-5-3.08c-6.36-4.15-14.2-7.33-20.18-9.87c-0.03-0.01-0.04-0.01-0.07-0.03
			"/>
		<path class="st2" d="M965.6,573.82c11.96,5,16.64,3.9,18.87,0.21c2.22-3.67,0.61-10.71-8.19-16.89"/>
		<path class="st2" d="M965.56,573.79c0,0,0.01,0,0.03,0.01"/>
		<line class="st2" x1="965.59" y1="573.8" x2="965.6" y2="573.82"/>
		<path class="st2" d="M966.15,574.1c0,0-0.01-0.01-0.03-0.01c-0.09-0.06-0.42-0.21-0.52-0.27"/>
		<path class="st2" d="M936.93,598.73v0.01c5.49,7.82,13.87,9,17.09,7.75c4.95-3.17,5.13-8.16,0.62-18.1"/>
		<path class="st2" d="M901.09,600.19c0.51,12.97,5.32,14.34,8.67,15.12c5.18,0.13,7.97-3.93,9.95-12.11"/>
		<path class="st2" d="M870,578.89c-1.78,1.87-3.33,4.37-4.42,6.25c-6.54,11.2-4.33,14.56-1.92,17.01
			c5.25,3.57,11.57,1.37,19.91-8.43"/>
		<path class="st2" d="M853.15,545.15c-1.41,0.52-3.67,1.04-5.12,1.64c-12.02,4.98-11.72,9.31-11.24,12.79
			c2.01,5.83,8.58,7.17,19.88,5.01"/>
		<path class="st2" d="M857.37,507.12c-0.89-0.33-3.55-1.5-4.48-1.81c-12.31-4.15-14.8-0.39-16.73,2.56
			c-2.51,6.19,2.42,11.3,14.43,17.76c0,0.01,0.01,0.01,0.01,0.01"/>
		<path class="st2" d="M884.24,481.71c-8.09-13.87-14.23-12.63-17.46-11.48c-5.41,3.26-5.55,9.46-0.18,21.07c0,0,0,0,0.01,0.01
			c0.04,0.09,0.09,0.19,0.13,0.3"/>
	</g>
</g>
<circle class="st4" cx="911.68" cy="539.99" r="18.96"/>
</svg>
