<!-- 회색-> 핑크, X아웃라인 -->

<?xml version="1.0" encoding="utf-8"?>
<!-- Generator: Adobe Illustrator 26.3.1, SVG Export Plug-In . SVG Version: 6.00 Build 0)  -->
<svg version="1.1" id="레이어_1" xmlns="http://www.w3.org/2000/svg" xmlns:xlink="http://www.w3.org/1999/xlink" x="0px"
	 y="0px" viewBox="0 0 1280 1024" style="enable-background:new 0 0 1280 1024;" xml:space="preserve">
<style type="text/css">
	.st0{fill:url(#SVGID_1_);}
	.st1{fill:#B3B3B3;stroke:#000000;stroke-width:2;stroke-miterlimit:10;}
	.st2{fill:none;stroke:#000000;stroke-width:2;stroke-miterlimit:10;}
	.st3{fill:#FFEBF9;}
	.st4{fill:#FFC600;stroke:#000000;stroke-width:2;stroke-miterlimit:10;}
</style>
<linearGradient id="SVGID_1_" gradientUnits="userSpaceOnUse" x1="101.4132" y1="497.4624" x2="1171.5955" y2="497.4624">
	<stop  offset="0" style="stop-color:#ADADAD"/>
	<stop  offset="0.3761" style="stop-color:#C5AAAA"/>
	<stop  offset="1" style="stop-color:#F4A4A4"/>
</linearGradient>
<path class="st0" d="M281.89,522.3c0,27.77-10.91,50.79-32.75,69.04c-21.35,17.87-47.69,26.8-79.03,26.8
	c-18.05,0-33.58-3.98-46.58-11.94c-14.75-9.03-22.12-21.17-22.12-36.41c0-7.67,1.86-14.49,5.58-20.47
	c3.73-5.97,8.63-8.96,14.72-8.96c4.45,0,7.88,1.17,10.3,3.5c2.42,2.33,3.63,5.24,3.63,8.74c0,3.11-0.27,5.46-0.8,7.06
	c-0.54,1.6-1.43,3.13-2.7,4.59c-0.68,0.78-1.22,1.16-1.6,1.16c-0.29,0-0.73-0.8-1.31-2.4c-0.58-1.6-1.41-2.94-2.48-4.01
	c-1.46-1.55-3.26-2.33-5.39-2.33c-3.11,0-5.49,1.58-7.14,4.73c-1.65,3.16-2.48,6.73-2.48,10.71c0,11.85,5.92,21.07,17.77,27.68
	c10.1,5.63,22.43,8.45,37,8.45c25.73,0,47.53-7.96,65.4-23.89c18.94-16.8,28.4-38.45,28.4-64.97c0-8.54-1.77-16.43-5.32-23.67
	c-3.54-7.23-8.28-12.84-14.2-16.82c-3.78,4.95-8.62,9.27-14.53,12.96c-6.97,4.37-13.66,6.56-20.05,6.56
	c-7.07,0-12.4-1.36-15.98-4.08c-3.1-2.33-4.65-5.53-4.65-9.62c0-4.95,2.66-9.34,7.99-13.18c5.32-3.84,11.37-6.24,18.15-7.21
	c3.87-0.49,7.26-0.73,10.17-0.73c4.36,0,8.23,0.44,11.62,1.31c2.04-4.27,3.66-8.62,4.88-13.04c1.21-4.42,1.82-9.1,1.82-14.06
	c0-15.15-6.7-27.09-20.1-35.83c-11.85-7.77-26.13-11.65-42.83-11.65c-15.34,0-29.16,3.74-41.44,11.22
	c-12.29,7.48-19.06,16.56-20.32,27.24c-0.2,1.75-0.29,3.01-0.29,3.79c0,3.4,0.68,6,2.04,7.79c1.36,1.8,3.2,2.7,5.53,2.7
	c2.13,0,3.93-0.39,5.39-1.17c0.68-0.39,1.5-1.07,2.48-2.04c0.39-0.68,0.73-0.97,1.02-0.87c0.29,0.1,0.44,0.39,0.44,0.87
	c0.58,3.3-1.17,6.51-5.24,9.61c-2.82,2.14-6.21,3.2-10.2,3.2c-3.59,0-6.75-1.6-9.47-4.81c-3.01-3.5-4.52-8.01-4.52-13.55
	c0-13.88,7.67-26.22,23.01-37c16.02-11.26,35.05-16.9,57.1-16.9c20.98,0,38.6,4.08,52.88,12.24c16.99,9.71,25.49,23.79,25.49,42.24
	c0,6.7-1.22,12.92-3.64,18.64c-1.75,4.18-4.9,9.42-9.47,15.73c7.67,3.4,14.91,9.76,21.7,19.08
	C277.86,499.43,281.89,510.74,281.89,522.3z M181.23,585.57c0.2,0.19,0.34,0.48,0.44,0.86c0.1,0.29,0.15,0.53,0.15,0.72
	c0,1.05-0.88,1.57-2.63,1.57c-0.97,0.1-3.87-0.02-8.7-0.36c-4.83-0.34-8.16-0.51-10.01-0.51c-3.12,0-7.79,0.24-14.03,0.73
	c-2.34,0.19-3.99,0.24-4.97,0.15c-1.66,0-2.48-0.58-2.48-1.75c0-0.49,0.14-0.87,0.44-1.17c0.29-0.39,2.38-2.09,6.26-5.1
	c3.01-2.33,4.52-4.42,4.52-6.26V440.44c0-3.01-0.92-5.15-2.77-6.41c-2.23-0.87-3.76-1.53-4.59-1.97c-0.83-0.44-1.24-0.95-1.24-1.53
	c0-0.58,0.44-1.07,1.32-1.46c0.78-0.68,2.29-1.65,4.53-2.91c7.11-3.98,11.35-6.41,12.72-7.28c2.34-1.46,6.24-4.13,11.7-8.01
	c3.99-2.91,6.63-4.52,7.89-4.81c1.07-0.49,1.61-0.19,1.61,0.87c0,0.29-0.15,0.68-0.44,1.17c-3.64,6.03-6.2,11.86-7.68,17.49
	c-1.77,6.9-2.66,14.38-2.66,22.45v126.54c0,1.85,1.48,3.89,4.43,6.12C178.97,583.67,181.03,585.29,181.23,585.57z M228.87,473.94
	c-3.79-1.26-8.06-1.89-12.82-1.89c-1.55,0-3.5,0.12-5.83,0.36c-2.33,0.24-5.1,1.19-8.3,2.84c-3.98,2.14-5.97,4.71-5.97,7.72
	c0,2.72,1.5,4.57,4.52,5.53c1.75,0.58,3.45,0.87,5.1,0.87c4.37,0,8.81-1.53,13.33-4.59C223.41,481.73,226.73,478.11,228.87,473.94z
	 M358.22,584.14c1.17,1.15,1.75,2.1,1.75,2.86c0,1.15-1.07,1.72-3.2,1.72c-1.75,0-3.21-0.06-4.37-0.17
	c-6.02-0.56-10-0.85-11.94-0.85c-3.49,0-6.34,0.11-8.52,0.34c-2.18,0.23-4.69,0.45-7.5,0.68c-2.33,0-3.49-0.59-3.49-1.78
	c0-0.59,0.48-1.48,1.46-2.66c2.43-1.97,4.22-3.5,5.39-4.59c2.23-1.94,3.35-3.73,3.35-5.38V418.58c0-2.81-0.1-5.05-0.29-6.7
	c-0.19-1.65-1.36-2.33-3.49-2.04c-1.07,0.2-2.87,1.14-5.39,2.84c-2.53,1.7-4.22,2.7-5.1,2.99c-1.46,0.49-2.19-0.05-2.19-1.61
	c0-0.49,0.29-1.17,0.87-2.05c0.58-0.88,3.25-3.6,8.01-8.19c3.79-3.7,6.79-6.68,9.03-8.92c3.3-3.31,6.89-7.26,10.78-11.84
	c2.72-3.21,4.47-5.12,5.24-5.7c0.19-0.19,0.48-0.34,0.87-0.44c0.29-0.09,0.53-0.15,0.73-0.15c0.87,0,1.31,0.78,1.31,2.33
	c-0.49,3.11-0.9,6.98-1.24,11.6c-0.34,4.62-0.51,9.51-0.51,14.66v169.21c0,1.56,1.02,3.26,3.06,5.1
	C354.58,581.22,356.37,582.7,358.22,584.14z M662.07,541.82c0,15.34-6.65,27.92-19.96,37.73c-12.43,9.22-27.24,13.84-44.43,13.84
	c-14.57,0-26.66-2.38-36.27-7.14c-11.75-5.83-17.63-14.42-17.63-25.78c0-8.64,3.18-15.95,9.54-21.92c6.36-5.97,13.96-8.96,22.8-8.96
	c9.13,0,16.55,1.65,22.29,4.95c6.5,3.79,9.76,9.13,9.76,16.02c0,4.37-1.58,8.18-4.73,11.44c-3.16,3.25-6.92,4.88-11.29,4.88
	c-4.18,0-7.19-0.77-9.03-2.33c-0.49-0.49-0.73-0.87-0.73-1.17c0-0.68,0.63-1.17,1.89-1.46c1.65-0.58,3.03-1.6,4.15-3.06
	c1.12-1.46,1.67-3.74,1.67-6.85c0-2.81-1.51-5.12-4.52-6.92c-3.01-1.8-6.26-2.7-9.76-2.7c-6.89,0-12.7,1.65-17.41,4.95
	c-4.71,3.3-7.06,7.87-7.06,13.69c0,8.16,5.19,14.47,15.59,18.94c8.64,3.69,18.89,5.54,30.74,5.54c12.33,0,23.11-2.77,32.34-8.3
	c10.88-6.51,16.32-15.29,16.32-26.37c0-11.07-3.98-19.27-11.94-24.62c-4.95-3.3-14.37-6.65-28.26-10.05
	c-7.96-1.75-15.88-3.54-23.74-5.39c-8.94-2.43-15.49-5.58-19.66-9.47c-5.44-5.05-8.16-12.14-8.16-21.27
	c0-10.39,5.49-18.98,16.46-25.78c10.1-6.31,21.7-9.47,34.81-9.47c11.85,0,21.41,1.51,28.7,4.52c9.62,3.98,14.42,10.15,14.42,18.5
	c0,5.34-2.58,9.76-7.72,13.25c-4.76,3.21-10.25,4.81-16.46,4.81c-5.92,0-10.88-1.11-14.86-3.35c-4.86-2.72-7.28-6.6-7.28-11.65
	c0-2.62,0.9-4.93,2.69-6.92c1.8-1.99,3.81-3.33,6.05-4.01c0.97-0.19,1.5-0.29,1.6-0.29c0.68,0,1.02,0.49,1.02,1.46l-0.29,2.91
	c0,2.14,0.68,3.89,2.04,5.24c1.75,1.75,4.56,2.62,8.45,2.62c2.52,0,4.71-0.87,6.55-2.62c1.84-1.75,2.77-3.79,2.77-6.12
	c0-4.37-3.16-7.48-9.47-9.32c-4.66-1.36-10.73-2.04-18.21-2.04c-9.32,0-17.72,2.09-25.2,6.26c-8.26,4.66-12.38,10.44-12.38,17.33
	c0,6.22,2.72,11.07,8.16,14.57c3.4,2.24,14.28,5.44,32.63,9.62c11.36,2.62,20.1,5.15,26.22,7.57c8.54,3.4,14.95,7.57,19.23,12.53
	C659.54,525.5,662.07,532.88,662.07,541.82z M807.15,541.82c0,15.34-6.65,27.92-19.95,37.73c-12.43,9.22-27.24,13.84-44.43,13.84
	c-14.57,0-26.66-2.38-36.27-7.14c-11.75-5.83-17.63-14.42-17.63-25.78c0-8.64,3.18-15.95,9.54-21.92c6.36-5.97,13.96-8.96,22.8-8.96
	c9.13,0,16.56,1.65,22.29,4.95c6.5,3.79,9.76,9.13,9.76,16.02c0,4.37-1.58,8.18-4.73,11.44c-3.16,3.25-6.92,4.88-11.29,4.88
	c-4.18,0-7.19-0.77-9.03-2.33c-0.49-0.49-0.73-0.87-0.73-1.17c0-0.68,0.63-1.17,1.89-1.46c1.65-0.58,3.03-1.6,4.15-3.06
	c1.12-1.46,1.68-3.74,1.68-6.85c0-2.81-1.51-5.12-4.52-6.92c-3.01-1.8-6.26-2.7-9.76-2.7c-6.9,0-12.7,1.65-17.41,4.95
	c-4.71,3.3-7.07,7.87-7.07,13.69c0,8.16,5.19,14.47,15.59,18.94c8.64,3.69,18.89,5.54,30.73,5.54c12.33,0,23.11-2.77,32.34-8.3
	c10.87-6.51,16.31-15.29,16.31-26.37c0-11.07-3.98-19.27-11.94-24.62c-4.95-3.3-14.37-6.65-28.26-10.05
	c-7.96-1.75-15.88-3.54-23.74-5.39c-8.93-2.43-15.49-5.58-19.66-9.47c-5.44-5.05-8.16-12.14-8.16-21.27
	c0-10.39,5.48-18.98,16.46-25.78c10.1-6.31,21.7-9.47,34.81-9.47c11.85,0,21.41,1.51,28.7,4.52c9.61,3.98,14.42,10.15,14.42,18.5
	c0,5.34-2.57,9.76-7.72,13.25c-4.76,3.21-10.25,4.81-16.46,4.81c-5.93,0-10.88-1.11-14.86-3.35c-4.86-2.72-7.28-6.6-7.28-11.65
	c0-2.62,0.9-4.93,2.7-6.92c1.8-1.99,3.81-3.33,6.05-4.01c0.97-0.19,1.5-0.29,1.6-0.29c0.68,0,1.02,0.49,1.02,1.46l-0.29,2.91
	c0,2.14,0.68,3.89,2.04,5.24c1.75,1.75,4.56,2.62,8.45,2.62c2.52,0,4.71-0.87,6.55-2.62c1.84-1.75,2.77-3.79,2.77-6.12
	c0-4.37-3.16-7.48-9.47-9.32c-4.66-1.36-10.73-2.04-18.21-2.04c-9.32,0-17.72,2.09-25.2,6.26c-8.26,4.66-12.38,10.44-12.38,17.33
	c0,6.22,2.72,11.07,8.16,14.57c3.4,2.24,14.28,5.44,32.63,9.62c11.36,2.62,20.1,5.15,26.22,7.57c8.54,3.4,14.95,7.57,19.23,12.53
	C804.62,525.5,807.15,532.88,807.15,541.82z M1171.6,498.76c0,12.74-3.25,26.3-9.76,40.69c-6.12,13.51-14.32,26.1-24.62,37.77
	c0.29,0,0.8,0.02,1.53,0.07c0.73,0.05,1.72,0.07,2.99,0.07c3.01,0,5.87-0.17,8.59-0.51c2.72-0.34,5.39-1.43,8.01-3.28
	c1.55-1.26,3.15-2.57,4.81-3.93c0.58-0.58,1.17-0.68,1.75-0.29c0.49,0.39,0.68,1.07,0.58,2.04c-0.29,1.94-0.56,3.86-0.8,5.75
	c-0.24,1.89-0.36,3.28-0.36,4.15c0,2.14,0.07,3.91,0.22,5.32c0.15,1.41,0.36,3.03,0.66,4.88c0.19,1.65-0.15,2.48-1.02,2.48
	c-0.68,0-1.41-0.34-2.18-1.02c-1.85-1.26-3.89-2.28-6.12-3.06c-2.23-0.78-4.3-1.31-6.19-1.6c-1.89-0.29-4.93-0.44-9.1-0.44
	c-2.82,0-5.05,0.04-6.7,0.11c-1.65,0.07-3.84,0.29-6.55,0.66c-0.39,0.07-0.73,0.11-1.02,0.11c-0.49,0-0.83,0-1.02,0
	c-1.85,0-2.77-0.63-2.77-1.89c0-0.58,0.34-1.45,1.02-2.62c4.85-7.47,9.08-14.6,12.67-21.39c4.76-8.92,8.4-17.17,10.93-24.73
	c3.11-9.31,4.66-17.7,4.66-25.17c0-15.91-2.28-28.28-6.84-37.1c-5.44-10.38-13.94-15.57-25.49-15.57c-4.76,0-9.27,0.95-13.55,2.84
	s-8.11,4.83-11.51,8.81c1.75,4.76,3.01,10.54,3.79,17.33c0.78,6.8,1.17,14.03,1.17,21.7c0,9.52-2.23,20.64-6.7,33.36
	c-3.5,10-7.87,19.81-13.11,29.42c-4.27,7.87-7.28,12.67-9.03,14.42c-0.29,0.39-0.92,0.58-1.89,0.58c-1.55,0-2.48-0.29-2.77-0.87
	c-0.29-0.39-0.34-0.92-0.14-1.6c0.58-1.36,0.92-2.19,1.02-2.48c8.54-17.67,12.82-41.17,12.82-70.5c0-14.18-2.72-26.22-8.16-36.12
	c-5.93-10.68-13.6-16.02-23.02-16.02c-6.41,0-12.43,2.67-18.06,8.01c-4.76,4.47-8.25,9.76-10.49,15.88v89.3
	c0,1.65,1.12,3.39,3.35,5.23c1.75,1.48,3.54,2.96,5.39,4.44c1.17,1.18,1.75,2.17,1.75,2.96c0,1.18-1.07,1.78-3.21,1.78
	c-1.07,0-3.88-0.15-8.45-0.44c-4.57-0.29-7.28-0.44-8.16-0.44c-3.5,0-6.34,0.1-8.52,0.29c-2.19,0.19-4.69,0.39-7.5,0.58
	c-2.24,0-3.35-0.54-3.35-1.63c0-0.79,0.53-1.73,1.6-2.81c2.33-1.97,4.08-3.5,5.24-4.59c2.13-1.94,3.21-3.73,3.21-5.38v-86.14
	c0-8.24-2.58-14.94-7.72-20.08c-1.94-1.94-5.68-4.46-11.22-7.57c-0.78-0.48-1.17-1.07-1.17-1.75c0-0.49,0.29-0.97,0.87-1.45
	c1.55-1.16,3.79-3.2,6.7-6.11c1.46-1.45,2.57-2.62,3.35-3.49c0.78-0.87,1.48-1.67,2.11-2.4c0.63-0.73,1.19-1.09,1.67-1.09
	c0.49,0,1.02,0.29,1.6,0.87c3.69,3.2,7.38,7.23,11.07,12.09c5.15,6.7,8.16,12.48,9.03,17.33c3.4-7.09,7.28-12.91,11.65-17.48
	c7.77-8.16,16.7-12.24,26.8-12.24c8.35,0,15.78,2.33,22.29,6.99c4.47,3.2,8.89,7.87,13.26,13.98c3.88-5.83,8.3-10.54,13.25-14.13
	c6.31-4.56,13.06-6.85,20.25-6.85c16.7,0,29.18,6.47,37.44,19.39C1168.54,473.83,1171.6,485.35,1171.6,498.76z"/>
<circle class="st1" cx="454.24" cy="520.7" r="19.01"/>
<path class="st2" d="M441.59,505.31c0.77,1.84-4.34-8.34-7.37-14.33s-6.11-16.04-7.5-28.73c-1.39-12.7,1.66-14.82,4.72-16.07
	c6.33-1.18,10.82,2.98,14.47,16.76c3.03,10.33,4.22,23.28,4.94,29.86c0.26,2.4,0.49,5.29,0.83,8.91 M463.39,504.16
	c1.25-2.69,4.09-8.24,5.48-12.57c2.41-6.27,4.96-18.86,5.05-31.63c0.09-12.77-4.17-14.12-7.34-15.05
	c-6.42-0.53-9.68,5.07-11.91,19.15c-1.96,10.59-1.62,22.05-1.66,28.66c-0.02,2.41-0.09,5.34-0.07,8.97 M504.9,483.39
	c7.42-10.4,5.33-14.24,3.27-16.83c-4.94-4.13-11.35-1.15-21.27,9.08c-7.69,7.53-14.54,17.33-18.38,22.72
	c-1.3,1.82-2.27,3.41-4.1,6.06 M472,512.59c2.84-1.68,6.29-3.46,10.02-5.96c5.57-3.74,15.47-12.85,22.89-23.24 M472.96,524.41
	c2.7,0.24,10.4,0.62,15.44,0.69c6.71,0.09,17.58-1.2,29.59-5.53s12.46-8.6,12.24-11.9c-1.72-6.21-8.58-8.01-22.56-5.24
	c-10.61,1.82-21.65,6.12-27.87,8.36c-2.27,0.82-4.65,1.7-8.05,2.98 M441.7,505.9c-2.3-2.86-3.93-4.85-5.48-6.72
	c-4.27-5.15-11.67-14.54-19.97-21.56c-10.75-9.58-17.11-11.56-21.8-7.04c-1.89,2.76-3.53,6.51,4.71,16.44s16.34,16.86,22.24,20.22
	c5.89,3.36,16.2,8.66,14.53,7.53 M465.82,535.39c0.13,0.17,0.61-0.18,0.75,0c2.23,2.87,3.92,5.46,5.43,7.35
	c4.13,5.17,10.78,13.36,18.78,20.87c10.5,9.66,16.88,12.93,21.71,8.49c1.97-2.73,4.22-6.97-3.76-16.95
	c-7.98-9.98-16.52-17.55-22.33-20.96c-5.81-3.41-15.35-8.34-13.71-7.2 M455.79,539.36c0,0,0.15,5.18,0.34,7.62
	c0.52,6.69,1.32,18.59,4.04,29.15c3.24,14.07,6.32,19.49,12.68,18.48c3.1-1.18,7.67-2.71,6.66-15.62
	c-1.01-12.91-3.82-24.17-6.68-30.34c-1.96-4.23-5.47-10.41-7.01-13.26 M444.65,537.15c-1.66,2.83-3.27,5.02-4.38,6.98
	c-3.26,5.75-9.24,16.21-12.8,26.37c-5.06,13.32-3.62,19.2,0.52,22.02c3.26,0.82,7.93,2.01,14.23-9.08
	c6.3-11.09,10.19-21.87,11.2-28.52c0.75-4.99,1.4-12.5,1.61-15.21 M454.62,539.72 M436.69,527.51c-0.17,0.06-0.35,0.13-0.54,0.2
	c-3.39,1.29-5.76,2.21-7.99,3.1c-6.14,2.44-16.81,6.91-25.94,12.62c-12.28,7.23-15.79,12.38-12.94,18.3
	c2.03,2.68,4.31,5.77,16.16,1.06s20.88-10.65,25.83-15.22c4.95-4.57,12.81-12.48,11.24-11.24 M435.48,515.34
	c-3.56-1.02-6.06-1.72-8.43-2.36c-6.51-1.77-18.08-5.21-28.99-6.22c-14.41-1.7-20.48,0.3-21.66,6.63
	c0.08,3.32,0.36,7.58,12.93,10.98s24.88,4.36,31.67,3.75c6.79-0.61,16.51-2.33,14.48-2.3 M458.28,450.41
	c-2.29-8.84-6.05-10.6-9.26-10.8c-4.58,0.61-7.31,4.06-8.36,10.56 M492.15,470.62c6.3-12.69,3.09-17.29,0.58-19.51
	c-5.49-3.16-11.16,0.11-18.85,10.99 M512.75,501.58c1.45-0.83,3.13-1.81,4.61-2.75c11.03-7.01,10.23-11.28,9.32-14.47
	c-3.01-5.71-8.48-6.91-21.78-0.98 M519.03,537.9c12.24-0.03,13.36-3.3,13.78-7.89c0.42-4.59-3.48-8.31-14.13-10.69 M519.03,537.9
	c-1.34-0.94-3.38-2.09-5.01-3.09c-6.42-4.18-14.31-7.38-20.32-9.93 M508.83,554.9c0.21,0.09-0.74-0.37-0.53-0.28
	c12,5.02,16.71,3.92,18.93,0.23c2.23-3.69,0.61-10.75-8.21-16.94 M479.56,579.61c5.5,7.86,13.93,9.04,17.14,7.79
	c4.96-3.18,5.14-8.18,0.63-18.16 M443.61,581.07c0.51,13,5.34,14.39,8.7,15.17c5.2,0.15,7.99-3.92,9.99-12.14 M412.42,559.72
	c-1.78,1.87-3.33,4.38-4.43,6.25c-6.57,11.23-4.34,14.6-1.92,17.07c5.27,3.58,11.6,1.37,19.98-8.46 M395.52,525.88
	c-1.41,0.52-3.68,1.03-5.13,1.63c-12.05,5-11.75,9.34-11.27,12.83c2.01,5.84,8.6,7.18,19.94,5.03 M399.76,487.74
	c-0.9-0.33-3.56-1.51-4.5-1.83c-12.34-4.15-14.84-0.38-16.77,2.56c-2.52,6.21,2.42,11.34,14.48,17.82 M426.72,462.24
	c-8.12-13.91-14.28-12.66-17.52-11.51c-5.47,3.29-5.57,9.6-0.02,21.44 M426.1,462.93 M427.31,464.86"/>
<g id="XMLID_00000028296982944688585690000001738520759505405619_">
	<g>
		<path class="st3" d="M964.32,526.21c10.65,2.39,14.54,6.1,14.13,10.69c-0.42,4.58-1.54,7.86-13.78,7.89
			c-1.33-0.94-3.37-2.1-5.01-3.1c-6.38-4.16-14.24-7.34-20.24-9.89c6.5-0.49,15.02-2.03,24.22-5.34
			C963.87,526.37,964.09,526.3,964.32,526.21z"/>
		<path class="st3" d="M918.14,533.71c0-0.22,8.53,4.22,13.9,7.37c5.7,3.34,14.04,10.69,21.87,20.4c0,0,0,0,0.01,0.01h0.01
			c0.15,0.18,0.28,0.36,0.43,0.54c7.98,9.98,5.73,14.23,3.76,16.96c-3.73,3.43-8.38,2.25-15.14-2.91c-2-1.51-4.18-3.39-6.56-5.58
			c-8.01-7.52-14.66-15.71-18.79-20.88c-1.51-1.88-3.19-4.47-5.43-7.34c-0.13-0.18-0.61,0.16-0.75,0c1.54,2.85,5.06,9.02,7.01,13.26
			c2.85,6.16,5.67,17.42,6.68,30.34c0.01,0.21,0.03,0.42,0.04,0.61c0.82,12.34-3.65,13.84-6.7,15.01
			c-4.98,0.79-7.95-2.34-10.56-10.5v-0.01c-0.73-2.25-1.43-4.91-2.13-7.97c-2.71-10.56-3.51-22.46-4.03-29.15
			c-0.16-2.07-0.3-6.12-0.34-7.29l-0.76,0.01c-0.21,2.7-0.87,10.22-1.61,15.2c-0.94,6.19-4.36,15.9-9.87,26.13
			c-0.43,0.79-0.87,1.6-1.33,2.4c-6.29,11.08-10.96,9.9-14.23,9.08c-3.7-2.51-5.24-7.46-1.95-17.93c0.4-1.28,0.88-2.66,1.43-4.1
			c3.56-10.16,9.53-20.61,12.8-26.36c1.12-1.97,2.73-4.16,4.39-7l-2.61-0.15c-1.85,1.97-7.11,7.19-10.78,10.58
			c-3.92,3.62-10.41,8.1-18.84,12.16c-2.19,1.06-4.53,2.09-6.98,3.06c-11.86,4.73-14.14,1.63-16.17-1.04
			c-2.58-5.38,0.07-10.11,9.78-16.36c0.98-0.63,2.03-1.27,3.16-1.94c9.13-5.71,19.79-10.17,25.94-12.62
			c2.21-0.88,4.55-1.77,7.86-3.06L881,532.9c-1.72,0.45-8.96,1.64-14.36,2.12c-5.67,0.51-15.18-0.07-25.48-2.25
			c-2.04-0.45-4.12-0.94-6.19-1.51c-12.56-3.4-12.84-7.67-12.93-10.98c1.03-5.53,5.79-7.76,16.56-7.11c0,0.01,0.01,0.01,0.01,0.01
			c1.57,0.09,3.25,0.24,5.09,0.46c10.92,1.01,22.49,4.46,29,6.22c2.3,0.63,4.7,1.3,8.08,2.27l0.19-0.64
			c-2.33-1.1-9.44-4.8-13.95-7.37c-5.74-3.28-13.6-9.96-21.61-19.51c-0.21-0.24-0.42-0.48-0.61-0.72
			c-8.25-9.93-6.59-13.68-4.71-16.44c3.52-3.4,8.01-3.12,14.6,1.33c2.16,1.45,4.55,3.34,7.2,5.71c8.29,7.03,15.71,16.42,19.97,21.57
			c1.51,1.8,3.07,3.74,5.27,6.44l0.15-0.12c-0.37-0.54-4.71-9.19-7.43-14.53c-3.03-6-6.1-16.03-7.49-28.73
			c-1.4-12.71,1.66-14.83,4.71-16.08c3.61-0.67,6.62,0.39,9.23,4c1.94,2.7,3.67,6.85,5.24,12.77c3.03,10.32,4.22,23.27,4.94,29.85
			c0.27,2.4,0.49,5.3,0.84,8.9h1.25c-0.03-3.62,0.06-6.56,0.07-8.96c0.04-6.62-0.3-18.08,1.66-28.67
			c0.97-6.06,2.12-10.53,3.62-13.63c2-4.13,4.62-5.82,8.29-5.52c3.16,0.94,7.43,2.28,7.34,15.05c0,0.72-0.01,1.43-0.04,2.15
			c-0.33,12.02-2.73,23.58-5.01,29.49c-1.39,4.33-4.22,9.87-5.47,12.57l1.03,0.25c1.83-2.65,2.8-4.25,4.1-6.07
			c3.85-5.38,10.69-15.18,18.38-22.72c1.86-1.92,3.61-3.59,5.25-5.01c7.04-6.09,12.02-7.41,16.03-4.06
			c2.06,2.58,4.15,6.43-3.28,16.83c-7.41,10.4-17.3,19.51-22.88,23.24c-3.73,2.51-7.17,4.3-10.02,5.97l0.36,0.95
			c3.09-1.15,5.31-1.97,7.44-2.74c6.23-2.25,17.27-6.55,27.88-8.37c1.8-0.36,3.51-0.64,5.07-0.85c10.59-1.39,15.99,0.69,17.48,6.09
			c0.22,3.25-0.21,7.41-11.54,11.65c-0.22,0.09-0.45,0.16-0.69,0.25c-9.2,3.31-17.72,4.85-24.22,5.34c-2,0.16-3.79,0.21-5.37,0.19
			c-5.04-0.07-12.75-0.45-15.44-0.69L918.14,533.71z"/>
		<path class="st3" d="M964.66,544.79c8.83,6.19,10.44,13.26,8.22,16.94c-2.24,3.68-6.94,4.79-18.94-0.24h-0.01
			c-0.01-0.01-0.01-0.01-0.01-0.01c-7.83-9.71-16.17-17.06-21.87-20.4c-5.37-3.15-13.9-7.59-13.9-7.37l0.46-2.4
			c2.68,0.24,10.4,0.61,15.44,0.69c1.58,0.01,3.37-0.03,5.37-0.19c6,2.55,13.86,5.73,20.24,9.89
			C961.29,542.69,963.33,543.85,964.66,544.79z"/>
		<path class="st3" d="M972.31,491.26c0.91,3.19,1.72,7.46-9.32,14.47c-1.48,0.94-3.16,1.91-4.61,2.74
			c-1.57,0.21-3.27,0.49-5.07,0.85c-10.61,1.82-21.64,6.12-27.88,8.37c-2.13,0.78-4.36,1.6-7.44,2.74l-0.36-0.95
			c2.85-1.67,6.29-3.46,10.02-5.97c5.58-3.73,15.47-12.84,22.88-23.24C963.84,484.35,969.31,485.55,972.31,491.26z"/>
		<path class="st3" d="M942.96,576.13c4.52,9.98,4.34,14.99-0.63,18.17c-3.22,1.25-11.65,0.06-17.14-7.8
			c-0.01-0.19-0.03-0.4-0.04-0.61c-1.01-12.92-3.83-24.18-6.68-30.34c-1.95-4.24-5.47-10.41-7.01-13.26c0.13,0.16,0.61-0.18,0.75,0
			c2.24,2.86,3.92,5.46,5.43,7.34c4.13,5.18,10.78,13.36,18.79,20.88c2.39,2.19,4.56,4.07,6.56,5.58L942.96,576.13z"/>
		<path class="st3" d="M938.36,458c2.52,2.22,5.73,6.82-0.58,19.51c-1.64,1.42-3.39,3.09-5.25,5.01
			c-7.68,7.53-14.53,17.33-18.38,22.72c-1.3,1.82-2.27,3.42-4.1,6.07l-1.03-0.25c1.25-2.7,4.09-8.25,5.47-12.57
			c2.28-5.91,4.68-17.47,5.01-29.49C927.21,458.1,932.88,454.85,938.36,458z"/>
		<path class="st3" d="M907.94,590.99V591c-2,8.2-4.79,12.28-9.99,12.13c-3.36-0.78-8.19-2.16-8.7-15.17l-0.06-0.03
			c5.52-10.23,8.93-19.94,9.87-26.13c0.75-4.98,1.4-12.5,1.61-15.2l0.76-0.01c0.04,1.18,0.18,5.22,0.34,7.29
			c0.52,6.68,1.31,18.59,4.03,29.15C906.5,586.08,907.21,588.73,907.94,590.99z"/>
		<path class="st3" d="M903.92,457.31c-1.51,3.1-2.66,7.58-3.62,13.63c-1.95,10.59-1.61,22.05-1.66,28.67
			c-0.01,2.4-0.1,5.34-0.07,8.96h-1.25c-0.34-3.61-0.57-6.5-0.84-8.9c-0.72-6.58-1.91-19.52-4.94-29.85
			c-1.57-5.92-3.3-10.07-5.24-12.77c1.04-6.5,3.77-9.95,8.35-10.56C897.87,446.7,901.63,448.46,903.92,457.31z"/>
		<path class="st3" d="M887.68,543.88l2.61,0.15c-1.66,2.83-3.27,5.03-4.39,7c-3.27,5.74-9.23,16.2-12.8,26.36
			c-0.55,1.45-1.03,2.82-1.43,4.1c-8.37,9.81-14.69,12.02-19.97,8.44c-2.42-2.46-4.64-5.83,1.92-17.06
			c1.09-1.86,2.64-4.39,4.43-6.25c8.43-4.06,14.92-8.53,18.84-12.16C880.57,551.07,885.83,545.85,887.68,543.88z"/>
		<path class="st3" d="M887.28,512.39l-0.15,0.12c-2.19-2.7-3.76-4.64-5.27-6.44c-4.27-5.15-11.68-14.54-19.97-21.57
			c-2.66-2.37-5.04-4.27-7.2-5.71c-5.41-11.66-5.27-17.9,0.15-21.17c3.24-1.15,9.4-2.4,17.53,11.52
			c1.39,12.69,4.46,22.73,7.49,28.73C882.56,503.21,886.9,511.86,887.28,512.39z"/>
		<path class="st3" d="M881,532.9l0.66,1.75c-3.31,1.28-5.65,2.18-7.86,3.06c-6.15,2.45-16.81,6.91-25.94,12.62
			c-1.13,0.67-2.18,1.31-3.16,1.94c-11.34,2.16-17.93,0.81-19.94-5.03c-0.48-3.49-0.78-7.83,11.28-12.84
			c1.45-0.6,3.71-1.12,5.13-1.63c10.29,2.18,19.81,2.76,25.48,2.25C872.03,534.54,879.28,533.35,881,532.9z"/>
		<path class="st3" d="M880.97,521.49l-0.19,0.64c-3.39-0.97-5.79-1.64-8.08-2.27c-6.5-1.76-18.08-5.21-29-6.22
			c-1.83-0.22-3.52-0.37-5.09-0.46c0,0-0.01,0-0.01-0.01c-12.04-6.47-16.97-11.6-14.47-17.81c1.94-2.94,4.44-6.71,16.78-2.57
			c0.92,0.31,3.59,1.51,4.49,1.83l0.01-0.01c8.01,9.55,15.87,16.23,21.61,19.51C871.53,516.69,878.64,520.39,880.97,521.49z"/>
	</g>
	<g>
		<path class="st2" d="M887.23,512.2c0.09,0.19,0.09,0.25,0.04,0.19c-0.37-0.54-4.71-9.19-7.43-14.53c-3.03-6-6.1-16.03-7.49-28.73
			c-1.4-12.71,1.66-14.83,4.71-16.08c3.61-0.67,6.62,0.39,9.23,4c1.94,2.7,3.67,6.85,5.24,12.77c3.03,10.32,4.22,23.27,4.94,29.85
			c0.27,2.4,0.49,5.3,0.84,8.9"/>
		<path class="st2" d="M909.03,511.05c1.25-2.7,4.09-8.25,5.47-12.57c2.28-5.91,4.68-17.47,5.01-29.49
			c0.03-0.72,0.04-1.43,0.04-2.15c0.09-12.77-4.18-14.11-7.34-15.05c-3.67-0.3-6.29,1.39-8.29,5.52c-1.51,3.1-2.66,7.58-3.62,13.63
			c-1.95,10.59-1.61,22.05-1.66,28.67c-0.01,2.4-0.1,5.34-0.07,8.96"/>
		<path class="st2" d="M950.54,490.27c7.43-10.4,5.34-14.24,3.28-16.83c-4.01-3.36-8.99-2.03-16.03,4.06
			c-1.64,1.42-3.39,3.09-5.25,5.01c-7.68,7.53-14.53,17.33-18.38,22.72c-1.3,1.82-2.27,3.42-4.1,6.07"/>
		<path class="st2" d="M917.63,519.48c2.85-1.67,6.29-3.46,10.02-5.97c5.58-3.73,15.47-12.84,22.88-23.24"/>
		<path class="st2" d="M918.6,531.31c2.68,0.24,10.4,0.61,15.44,0.69c1.58,0.01,3.37-0.03,5.37-0.19c6.5-0.49,15.02-2.03,24.22-5.34
			c0.24-0.09,0.46-0.16,0.69-0.25c11.34-4.24,11.77-8.4,11.54-11.65c-1.49-5.4-6.89-7.47-17.48-6.09c-1.57,0.21-3.27,0.49-5.07,0.85
			c-10.61,1.82-21.64,6.12-27.88,8.37c-2.13,0.78-4.36,1.6-7.44,2.74c-0.19,0.09-0.4,0.16-0.61,0.24"/>
		<path class="st2" d="M881.73,521.81c-0.03-0.04-0.09-0.09-0.16-0.15"/>
		<path class="st2" d="M887.34,512.78c-0.07-0.09-0.15-0.18-0.21-0.27c-2.19-2.7-3.76-4.64-5.27-6.44
			c-4.27-5.15-11.68-14.54-19.97-21.57c-2.66-2.37-5.04-4.27-7.2-5.71c-6.59-4.44-11.08-4.73-14.6-1.33
			c-1.88,2.76-3.54,6.5,4.71,16.44c0.19,0.24,0.4,0.48,0.61,0.72c8.01,9.55,15.87,16.23,21.61,19.51c4.5,2.57,11.62,6.26,13.95,7.37
			c0.43,0.19,0.7,0.31,0.76,0.31c0.01,0,0.01,0,0.01,0"/>
		<path class="st2" d="M918.14,533.71c0,0.03,0.06,0.07,0.19,0.16"/>
		<path class="st2" d="M911.46,542.29c0.13,0.16,0.61-0.18,0.75,0c2.24,2.86,3.92,5.46,5.43,7.34c4.13,5.18,10.78,13.36,18.79,20.88
			c2.39,2.19,4.56,4.07,6.56,5.58c6.76,5.16,11.41,6.34,15.14,2.91c1.97-2.73,4.22-6.98-3.76-16.96c-0.15-0.18-0.28-0.36-0.43-0.54"
			/>
		<path class="st2" d="M907.94,591c2.61,8.16,5.58,11.29,10.56,10.5c3.04-1.16,7.52-2.67,6.7-15.01c-0.01-0.19-0.03-0.4-0.04-0.61
			c-1.01-12.92-3.83-24.18-6.68-30.34c-1.95-4.24-5.47-10.41-7.01-13.26"/>
		<path class="st2" d="M901.43,546.25c0,0,0,0.12,0,0.33c0.04,1.18,0.18,5.22,0.34,7.29c0.52,6.68,1.31,18.59,4.03,29.15
			c0.7,3.06,1.4,5.71,2.13,7.97"/>
		<path class="st2" d="M890.29,544.03c-1.66,2.83-3.27,5.03-4.39,7c-3.27,5.74-9.23,16.2-12.8,26.36c-0.55,1.45-1.03,2.82-1.43,4.1
			c-3.28,10.47-1.75,15.42,1.95,17.93c3.27,0.82,7.94,2,14.23-9.08c0.46-0.81,0.89-1.61,1.33-2.4c5.52-10.23,8.93-19.94,9.87-26.13
			c0.75-4.98,1.4-12.5,1.61-15.2"/>
		<path class="st2" d="M882.33,534.39c-0.18,0.07-0.36,0.13-0.54,0.21c-0.04,0.01-0.09,0.03-0.13,0.04
			c-3.31,1.28-5.65,2.18-7.86,3.06c-6.15,2.45-16.81,6.91-25.94,12.62c-1.13,0.67-2.18,1.31-3.16,1.94
			c-9.71,6.25-12.37,10.98-9.78,16.36c2.03,2.67,4.31,5.77,16.17,1.04c2.45-0.97,4.79-2,6.98-3.06c8.43-4.06,14.92-8.53,18.84-12.16
			c3.67-3.39,8.93-8.61,10.78-10.58c0.64-0.7,0.87-1,0.46-0.67"/>
		<path class="st2" d="M838.59,513.17c-10.77-0.64-15.53,1.58-16.56,7.11c0.09,3.31,0.37,7.58,12.93,10.98
			c2.07,0.57,4.15,1.06,6.19,1.51c10.29,2.18,19.81,2.76,25.48,2.25c5.4-0.48,12.65-1.67,14.36-2.12c0.46-0.12,0.54-0.18,0.12-0.18"
			/>
		<path class="st2" d="M881.12,522.24c-0.12-0.03-0.22-0.06-0.34-0.1c-3.39-0.97-5.79-1.64-8.08-2.27c-6.5-1.76-18.08-5.21-29-6.22
			c-1.83-0.22-3.52-0.37-5.09-0.46"/>
		<path class="st2" d="M903.92,457.31c-2.3-8.85-6.06-10.61-9.26-10.81c-4.58,0.61-7.31,4.06-8.35,10.56"/>
		<path class="st2" d="M937.78,477.51c6.31-12.69,3.1-17.29,0.58-19.51c-5.49-3.15-11.16,0.1-18.85,10.99"/>
		<path class="st2" d="M958.38,508.47c1.45-0.84,3.13-1.8,4.61-2.74c11.04-7.01,10.23-11.28,9.32-14.47
			c-3-5.71-8.47-6.91-21.78-0.98"/>
		<path class="st2" d="M964.66,544.79c12.25-0.03,13.36-3.31,13.78-7.89c0.42-4.59-3.48-8.31-14.13-10.69"/>
		<path class="st2" d="M964.66,544.79c-1.33-0.94-3.37-2.1-5.01-3.1c-6.38-4.16-14.24-7.34-20.24-9.89
			c-0.03-0.01-0.04-0.01-0.07-0.03"/>
		<path class="st2" d="M953.94,561.5c12.01,5.03,16.71,3.92,18.94,0.24c2.22-3.68,0.61-10.75-8.22-16.94"/>
		<path class="st2" d="M954.5,561.8c0,0-0.01-0.01-0.03-0.01c-0.09-0.06-0.45-0.22-0.54-0.28h-0.01c-0.01-0.01-0.01-0.01-0.01-0.01
			c-7.83-9.71-16.17-17.06-21.87-20.4c-5.37-3.15-13.9-7.59-13.9-7.37"/>
		<path class="st2" d="M925.19,586.5c5.49,7.86,13.92,9.05,17.14,7.8c4.97-3.18,5.15-8.19,0.63-18.17"/>
		<path class="st2" d="M889.25,587.96c0.51,13.01,5.34,14.39,8.7,15.17c5.21,0.15,7.99-3.92,9.99-12.13v-0.01"/>
		<path class="st2" d="M858.06,566.61c-1.79,1.86-3.34,4.39-4.43,6.25c-6.56,11.23-4.34,14.6-1.92,17.06
			c5.28,3.58,11.6,1.37,19.97-8.44"/>
		<path class="st2" d="M841.16,532.77c-1.42,0.51-3.68,1.03-5.13,1.63c-12.05,5.01-11.75,9.35-11.28,12.84
			c2.01,5.83,8.61,7.19,19.94,5.03"/>
		<path class="st2" d="M845.39,494.63c-0.89-0.33-3.56-1.52-4.49-1.83c-12.34-4.15-14.84-0.37-16.78,2.57
			c-2.51,6.2,2.43,11.34,14.47,17.81c0,0.01,0.01,0.01,0.01,0.01"/>
		<path class="st2" d="M872.36,469.14c-8.13-13.92-14.29-12.66-17.53-11.52c-5.41,3.27-5.56,9.5-0.15,21.17
			c0.04,0.09,0.09,0.18,0.13,0.27"/>
	</g>
</g>
<circle class="st4" cx="899.87" cy="527.59" r="19.01"/>
</svg>
