<!-- 회색 -> 보라, 아웃라인 --> 
<?xml version="1.0" encoding="utf-8"?>
<!-- Generator: Adobe Illustrator 26.3.1, SVG Export Plug-In . SVG Version: 6.00 Build 0)  -->
<svg version="1.1" id="레이어_1" xmlns="http://www.w3.org/2000/svg" xmlns:xlink="http://www.w3.org/1999/xlink" x="0px"
	 y="0px" viewBox="0 0 1280 1024" style="enable-background:new 0 0 1280 1024;" xml:space="preserve">
<style type="text/css">
	.st0{fill:url(#SVGID_1_);}
	.st1{fill:#B3B3B3;stroke:#000000;stroke-width:2;stroke-miterlimit:10;}
	.st2{fill:none;stroke:#000000;stroke-width:2;stroke-miterlimit:10;}
	.st3{fill:#FFEBF9;}
	.st4{fill:#FFC600;stroke:#000000;stroke-width:2;stroke-miterlimit:10;}
</style>
<linearGradient id="SVGID_1_" gradientUnits="userSpaceOnUse" x1="111.3845" y1="518.4025" x2="1193.7855" y2="518.4025">
	<stop  offset="0" style="stop-color:#C1C1C1"/>
	<stop  offset="0.9942" style="stop-color:#B29CD3"/>
	<stop  offset="1" style="stop-color:#B29CD3"/>
</linearGradient>
<path class="st0" d="M293.92,543.52c0,28.09-11.04,51.37-33.12,69.83c-21.59,18.07-48.23,27.11-79.93,27.11
	c-18.25,0-33.96-4.03-47.11-12.08c-14.92-9.13-22.38-21.41-22.38-36.83c0-7.76,1.88-14.66,5.65-20.7c3.77-6.04,8.73-9.06,14.89-9.06
	c4.5,0,7.97,1.18,10.42,3.54c2.44,2.36,3.67,5.3,3.67,8.84c0,3.14-0.27,5.52-0.81,7.15c-0.54,1.62-1.45,3.17-2.73,4.64
	c-0.69,0.79-1.23,1.18-1.62,1.18c-0.29,0-0.74-0.81-1.33-2.43c-0.59-1.62-1.42-2.97-2.5-4.05c-1.47-1.57-3.29-2.36-5.45-2.36
	c-3.14,0-5.55,1.6-7.22,4.79c-1.67,3.19-2.5,6.8-2.5,10.83c0,11.98,5.99,21.31,17.97,27.99c10.21,5.7,22.69,8.55,37.42,8.55
	c26.03,0,48.08-8.05,66.15-24.16c19.15-16.99,28.73-38.89,28.73-65.71c0-8.64-1.79-16.62-5.38-23.94
	c-3.59-7.31-8.37-12.99-14.36-17.02c-3.82,5.01-8.72,9.38-14.69,13.11c-7.05,4.42-13.81,6.63-20.28,6.63
	c-7.15,0-12.54-1.37-16.16-4.12c-3.14-2.36-4.7-5.6-4.7-9.72c0-5.01,2.69-9.45,8.08-13.33c5.39-3.88,11.5-6.31,18.36-7.29
	c3.92-0.49,7.34-0.74,10.28-0.74c4.41,0,8.32,0.44,11.75,1.33c2.06-4.32,3.71-8.72,4.94-13.19c1.23-4.47,1.84-9.21,1.84-14.22
	c0-15.32-6.78-27.4-20.33-36.24c-11.98-7.86-26.42-11.79-43.31-11.79c-15.52,0-29.49,3.78-41.91,11.34
	c-12.43,7.56-19.28,16.75-20.55,27.55c-0.2,1.77-0.3,3.05-0.3,3.83c0,3.44,0.69,6.07,2.06,7.88c1.37,1.82,3.24,2.73,5.6,2.73
	c2.16,0,3.98-0.39,5.45-1.18c0.69-0.39,1.52-1.08,2.5-2.06c0.39-0.69,0.74-0.98,1.03-0.88c0.3,0.1,0.44,0.39,0.44,0.88
	c0.59,3.34-1.18,6.58-5.3,9.72c-2.85,2.16-6.29,3.24-10.31,3.24c-3.64,0-6.83-1.62-9.58-4.86c-3.05-3.54-4.57-8.1-4.57-13.7
	c0-14.04,7.76-26.52,23.28-37.42c16.21-11.39,35.45-17.09,57.75-17.09c21.22,0,39.04,4.12,53.48,12.37
	c17.19,9.82,25.78,24.06,25.78,42.72c0,6.78-1.23,13.06-3.68,18.86c-1.77,4.22-4.96,9.53-9.58,15.91
	c7.76,3.44,15.08,9.87,21.95,19.3C289.85,520.39,293.92,531.84,293.92,543.52z M192.11,607.52c0.2,0.19,0.34,0.48,0.45,0.87
	c0.1,0.29,0.15,0.53,0.15,0.73c0,1.06-0.89,1.59-2.66,1.59c-0.99,0.1-3.92-0.02-8.8-0.37c-4.88-0.34-8.26-0.52-10.13-0.52
	c-3.15,0-7.88,0.25-14.19,0.74c-2.37,0.2-4.04,0.25-5.03,0.15c-1.68,0-2.51-0.59-2.51-1.77c0-0.49,0.15-0.88,0.44-1.18
	c0.29-0.39,2.4-2.11,6.33-5.16c3.04-2.36,4.57-4.47,4.57-6.33V460.73c0-3.04-0.94-5.2-2.8-6.48c-2.26-0.88-3.81-1.55-4.64-1.99
	c-0.84-0.44-1.25-0.96-1.25-1.55c0-0.59,0.44-1.08,1.33-1.47c0.79-0.69,2.32-1.67,4.58-2.95c7.2-4.03,11.48-6.48,12.87-7.37
	c2.36-1.47,6.31-4.17,11.83-8.1c4.04-2.95,6.7-4.57,7.98-4.86c1.08-0.49,1.63-0.19,1.63,0.88c0,0.29-0.15,0.69-0.45,1.18
	c-3.68,6.09-6.27,11.99-7.76,17.69c-1.79,6.98-2.69,14.55-2.69,22.71v127.99c0,1.87,1.49,3.93,4.48,6.19
	C189.82,605.59,191.91,607.23,192.11,607.52z M240.29,494.61c-3.83-1.27-8.15-1.92-12.96-1.92c-1.57,0-3.54,0.12-5.89,0.37
	c-2.36,0.25-5.16,1.2-8.4,2.87c-4.03,2.16-6.04,4.76-6.04,7.81c0,2.75,1.52,4.62,4.57,5.6c1.77,0.59,3.49,0.88,5.16,0.88
	c4.42,0,8.91-1.55,13.48-4.64S238.13,498.83,240.29,494.61z M371.12,606.07c1.18,1.16,1.77,2.12,1.77,2.9
	c0,1.16-1.08,1.74-3.24,1.74c-1.77,0-3.24-0.06-4.42-0.17c-6.09-0.57-10.12-0.86-12.08-0.86c-3.53,0-6.41,0.11-8.62,0.34
	c-2.21,0.23-4.74,0.46-7.59,0.69c-2.36,0-3.53-0.6-3.53-1.8c0-0.6,0.49-1.5,1.47-2.69c2.45-1.99,4.27-3.54,5.45-4.64
	c2.26-1.96,3.39-3.78,3.39-5.45v-157.5c0-2.85-0.1-5.1-0.29-6.77c-0.2-1.67-1.38-2.35-3.53-2.06c-1.08,0.2-2.9,1.16-5.45,2.87
	c-2.55,1.72-4.27,2.73-5.16,3.02c-1.47,0.49-2.21-0.05-2.21-1.63c0-0.49,0.3-1.18,0.88-2.07c0.59-0.89,3.29-3.64,8.1-8.28
	c3.83-3.74,6.87-6.75,9.13-9.02c3.34-3.35,6.97-7.35,10.9-11.98c2.75-3.25,4.52-5.17,5.3-5.77c0.19-0.2,0.49-0.34,0.88-0.44
	c0.29-0.1,0.54-0.15,0.74-0.15c0.88,0,1.33,0.79,1.33,2.36c-0.49,3.15-0.91,7.06-1.25,11.73c-0.34,4.67-0.52,9.61-0.52,14.83v171.14
	c0,1.57,1.03,3.29,3.09,5.16C367.44,603.12,369.25,604.61,371.12,606.07z M678.44,563.26c0,15.52-6.73,28.24-20.18,38.16
	c-12.57,9.33-27.55,14-44.93,14c-14.73,0-26.96-2.41-36.68-7.22c-11.89-5.89-17.83-14.59-17.83-26.08c0-8.74,3.22-16.13,9.65-22.17
	c6.43-6.04,14.12-9.06,23.06-9.06c9.23,0,16.74,1.67,22.54,5.01c6.58,3.83,9.87,9.23,9.87,16.21c0,4.42-1.6,8.28-4.79,11.57
	c-3.19,3.29-7,4.93-11.42,4.93c-4.22,0-7.27-0.78-9.13-2.36c-0.49-0.49-0.74-0.88-0.74-1.18c0-0.69,0.64-1.18,1.92-1.47
	c1.67-0.59,3.07-1.62,4.2-3.09c1.13-1.47,1.69-3.78,1.69-6.92c0-2.85-1.52-5.18-4.57-7c-3.05-1.82-6.33-2.73-9.87-2.73
	c-6.97,0-12.84,1.67-17.6,5.01c-4.76,3.34-7.15,7.96-7.15,13.85c0,8.25,5.25,14.64,15.76,19.15c8.74,3.74,19.1,5.6,31.09,5.6
	c12.47,0,23.37-2.8,32.71-8.4c11-6.58,16.5-15.47,16.5-26.67c0-11.2-4.03-19.49-12.08-24.9c-5.01-3.34-14.54-6.73-28.58-10.17
	c-8.05-1.77-16.06-3.58-24.01-5.45c-9.04-2.46-15.67-5.65-19.89-9.58c-5.5-5.11-8.25-12.28-8.25-21.51
	c0-10.51,5.55-19.2,16.65-26.08c10.21-6.38,21.95-9.58,35.21-9.58c11.98,0,21.66,1.52,29.02,4.57c9.72,4.03,14.59,10.26,14.59,18.71
	c0,5.4-2.6,9.87-7.81,13.41c-4.81,3.24-10.36,4.86-16.65,4.86c-5.99,0-11-1.13-15.03-3.39c-4.91-2.75-7.37-6.68-7.37-11.78
	c0-2.65,0.91-4.98,2.72-7c1.82-2.01,3.85-3.36,6.11-4.05c0.98-0.2,1.52-0.29,1.62-0.29c0.69,0,1.03,0.49,1.03,1.47l-0.29,2.95
	c0,2.16,0.69,3.93,2.06,5.3c1.77,1.77,4.61,2.65,8.54,2.65c2.55,0,4.76-0.88,6.63-2.65c1.86-1.77,2.8-3.83,2.8-6.19
	c0-4.42-3.19-7.56-9.58-9.43c-4.71-1.37-10.85-2.06-18.42-2.06c-9.43,0-17.93,2.11-25.49,6.33c-8.35,4.71-12.52,10.56-12.52,17.53
	c0,6.29,2.75,11.2,8.25,14.73c3.44,2.26,14.44,5.5,33,9.72c11.49,2.65,20.33,5.21,26.52,7.66c8.64,3.44,15.12,7.66,19.45,12.67
	C675.89,546.76,678.44,554.23,678.44,563.26z M825.18,563.26c0,15.52-6.73,28.24-20.18,38.16c-12.58,9.33-27.55,14-44.94,14
	c-14.73,0-26.96-2.41-36.68-7.22c-11.89-5.89-17.83-14.59-17.83-26.08c0-8.74,3.22-16.13,9.65-22.17
	c6.43-6.04,14.12-9.06,23.06-9.06c9.23,0,16.75,1.67,22.54,5.01c6.58,3.83,9.87,9.23,9.87,16.21c0,4.42-1.6,8.28-4.79,11.57
	c-3.19,3.29-7,4.93-11.42,4.93c-4.22,0-7.27-0.78-9.13-2.36c-0.49-0.49-0.74-0.88-0.74-1.18c0-0.69,0.64-1.18,1.92-1.47
	c1.67-0.59,3.07-1.62,4.2-3.09c1.13-1.47,1.7-3.78,1.7-6.92c0-2.85-1.52-5.18-4.57-7c-3.05-1.82-6.33-2.73-9.87-2.73
	c-6.98,0-12.84,1.67-17.6,5.01c-4.77,3.34-7.15,7.96-7.15,13.85c0,8.25,5.25,14.64,15.77,19.15c8.74,3.74,19.1,5.6,31.08,5.6
	c12.47,0,23.37-2.8,32.71-8.4c11-6.58,16.5-15.47,16.5-26.67c0-11.2-4.03-19.49-12.08-24.9c-5.01-3.34-14.54-6.73-28.58-10.17
	c-8.05-1.77-16.06-3.58-24.02-5.45c-9.04-2.46-15.67-5.65-19.89-9.58c-5.5-5.11-8.25-12.28-8.25-21.51
	c0-10.51,5.55-19.2,16.65-26.08c10.21-6.38,21.95-9.58,35.21-9.58c11.98,0,21.66,1.52,29.02,4.57c9.72,4.03,14.58,10.26,14.58,18.71
	c0,5.4-2.6,9.87-7.81,13.41c-4.81,3.24-10.37,4.86-16.65,4.86c-5.99,0-11-1.13-15.03-3.39c-4.91-2.75-7.37-6.68-7.37-11.78
	c0-2.65,0.91-4.98,2.73-7c1.82-2.01,3.85-3.36,6.11-4.05c0.98-0.2,1.52-0.29,1.62-0.29c0.69,0,1.03,0.49,1.03,1.47l-0.29,2.95
	c0,2.16,0.69,3.93,2.06,5.3c1.77,1.77,4.61,2.65,8.55,2.65c2.55,0,4.76-0.88,6.63-2.65c1.86-1.77,2.8-3.83,2.8-6.19
	c0-4.42-3.19-7.56-9.58-9.43c-4.72-1.37-10.85-2.06-18.42-2.06c-9.43,0-17.93,2.11-25.49,6.33c-8.35,4.71-12.52,10.56-12.52,17.53
	c0,6.29,2.75,11.2,8.25,14.73c3.44,2.26,14.44,5.5,33,9.72c11.49,2.65,20.33,5.21,26.52,7.66c8.64,3.44,15.12,7.66,19.45,12.67
	C822.62,546.76,825.18,554.23,825.18,563.26z M1193.79,519.71c0,12.88-3.29,26.6-9.87,41.15c-6.19,13.67-14.49,26.4-24.9,38.2
	c0.3,0,0.81,0.03,1.55,0.07c0.74,0.05,1.74,0.07,3.02,0.07c3.04,0,5.94-0.17,8.69-0.51c2.75-0.34,5.45-1.45,8.1-3.31
	c1.57-1.28,3.19-2.6,4.86-3.98c0.59-0.59,1.18-0.69,1.77-0.29c0.49,0.39,0.69,1.08,0.59,2.06c-0.29,1.97-0.57,3.9-0.81,5.82
	c-0.25,1.92-0.37,3.31-0.37,4.2c0,2.16,0.07,3.96,0.22,5.38c0.15,1.42,0.37,3.07,0.66,4.94c0.19,1.67-0.15,2.5-1.03,2.5
	c-0.69,0-1.42-0.34-2.21-1.03c-1.87-1.28-3.93-2.31-6.19-3.09c-2.26-0.79-4.35-1.33-6.26-1.62c-1.92-0.29-4.99-0.44-9.21-0.44
	c-2.85,0-5.11,0.04-6.78,0.11c-1.67,0.07-3.88,0.29-6.63,0.66c-0.39,0.07-0.74,0.11-1.03,0.11c-0.49,0-0.84,0-1.03,0
	c-1.87,0-2.8-0.64-2.8-1.91c0-0.59,0.34-1.47,1.03-2.65c4.91-7.55,9.18-14.76,12.82-21.63c4.81-9.02,8.49-17.36,11.05-25.02
	c3.14-9.42,4.71-17.9,4.71-25.46c0-16.09-2.31-28.6-6.92-37.53c-5.5-10.5-14.1-15.75-25.78-15.75c-4.81,0-9.38,0.96-13.7,2.87
	c-4.32,1.92-8.2,4.89-11.64,8.91c1.77,4.81,3.04,10.66,3.83,17.53c0.79,6.88,1.18,14.19,1.18,21.95c0,9.63-2.26,20.87-6.78,33.74
	c-3.54,10.12-7.96,20.04-13.26,29.76c-4.32,7.96-7.37,12.82-9.13,14.59c-0.29,0.39-0.94,0.59-1.92,0.59c-1.57,0-2.5-0.29-2.8-0.88
	c-0.29-0.39-0.34-0.93-0.15-1.62c0.59-1.38,0.93-2.21,1.03-2.51c8.64-17.87,12.97-41.64,12.97-71.31c0-14.34-2.75-26.52-8.25-36.54
	c-5.99-10.8-13.75-16.21-23.28-16.21c-6.48,0-12.57,2.7-18.27,8.1c-4.81,4.52-8.35,9.87-10.61,16.06v90.32
	c0,1.67,1.13,3.43,3.39,5.29c1.77,1.49,3.58,2.99,5.45,4.49c1.18,1.2,1.77,2.2,1.77,2.99c0,1.2-1.08,1.8-3.24,1.8
	c-1.08,0-3.93-0.15-8.54-0.44c-4.62-0.29-7.37-0.44-8.25-0.44c-3.54,0-6.41,0.1-8.62,0.3c-2.21,0.2-4.74,0.39-7.59,0.59
	c-2.26,0-3.39-0.55-3.39-1.65c0-0.8,0.54-1.75,1.62-2.84c2.36-1.99,4.12-3.54,5.3-4.64c2.16-1.96,3.24-3.78,3.24-5.44V509
	c0-8.34-2.6-15.11-7.81-20.31c-1.97-1.96-5.74-4.51-11.34-7.65c-0.79-0.49-1.18-1.08-1.18-1.77c0-0.49,0.3-0.98,0.88-1.47
	c1.57-1.18,3.83-3.24,6.78-6.18c1.47-1.47,2.6-2.65,3.39-3.53c0.79-0.88,1.5-1.69,2.14-2.43c0.64-0.74,1.2-1.1,1.69-1.1
	c0.49,0,1.03,0.29,1.62,0.88c3.73,3.24,7.46,7.32,11.2,12.23c5.2,6.78,8.25,12.62,9.13,17.53c3.44-7.17,7.37-13.06,11.79-17.68
	c7.86-8.25,16.89-12.38,27.11-12.38c8.45,0,15.96,2.36,22.54,7.07c4.52,3.24,8.99,7.96,13.41,14.14c3.93-5.89,8.4-10.66,13.41-14.29
	c6.38-4.62,13.21-6.92,20.48-6.92c16.89,0,29.51,6.54,37.86,19.62C1190.69,494.5,1193.79,506.15,1193.79,519.71z"/>
<circle class="st1" cx="468.23" cy="541.91" r="19.23"/>
<path class="st2" d="M455.45,526.34c0.77,1.86-4.39-8.44-7.46-14.5s-6.18-16.22-7.59-29.06c-1.41-12.84,1.67-14.99,4.77-16.25
	c6.4-1.2,10.94,3.02,14.64,16.95c3.06,10.45,4.27,23.54,5,30.2c0.27,2.43,0.5,5.35,0.84,9.01 M477.49,525.17
	c1.26-2.72,4.13-8.34,5.54-12.71c2.44-6.34,5.02-19.08,5.11-32c0.09-12.92-4.22-14.28-7.43-15.22c-6.49-0.54-9.79,5.13-12.04,19.37
	c-1.98,10.71-1.64,22.3-1.68,28.99c-0.02,2.44-0.1,5.4-0.07,9.08 M519.48,504.16c7.51-10.51,5.39-14.4,3.31-17.02
	c-5-4.17-11.48-1.17-21.52,9.18c-7.78,7.62-14.7,17.53-18.59,22.98c-1.31,1.84-2.3,3.45-4.15,6.13 M486.2,533.7
	c2.87-1.7,6.36-3.5,10.13-6.03c5.64-3.79,15.64-12.99,23.15-23.51 M487.17,545.66c2.73,0.24,10.52,0.63,15.61,0.7
	c6.79,0.09,17.78-1.22,29.93-5.6c12.15-4.38,12.6-8.7,12.38-12.03c-1.74-6.28-8.68-8.11-22.82-5.3
	c-10.73,1.84-21.89,6.19-28.19,8.46c-2.29,0.83-4.7,1.72-8.15,3.02 M455.56,526.93c-2.33-2.89-3.97-4.9-5.54-6.8
	c-4.32-5.2-11.8-14.71-20.2-21.81c-10.87-9.69-17.31-11.7-22.05-7.12c-1.91,2.79-3.57,6.58,4.76,16.63
	c8.33,10.04,16.53,17.05,22.49,20.45s16.39,8.76,14.7,7.62 M479.96,556.76c0.13,0.17,0.62-0.18,0.75,0c2.25,2.9,3.97,5.52,5.49,7.43
	c4.18,5.23,10.91,13.51,19,21.11c10.62,9.77,17.07,13.08,21.95,8.58c1.99-2.76,4.27-7.05-3.8-17.15
	c-8.07-10.09-16.71-17.75-22.59-21.2c-5.88-3.45-15.53-8.44-13.86-7.28 M469.81,560.78c0,0,0.15,5.24,0.35,7.71
	c0.53,6.77,1.33,18.8,4.08,29.48c3.28,14.23,6.39,19.71,12.83,18.69c3.13-1.19,7.76-2.74,6.73-15.8
	c-1.02-13.06-3.87-24.45-6.76-30.68c-1.98-4.28-5.53-10.53-7.09-13.41 M458.54,558.54c-1.67,2.86-3.31,5.08-4.43,7.06
	c-3.3,5.81-9.35,16.39-12.95,26.67c-5.12,13.47-3.66,19.42,0.53,22.27c3.3,0.83,8.02,2.03,14.39-9.19
	c6.37-11.22,10.31-22.12,11.33-28.85c0.76-5.05,1.42-12.64,1.62-15.38 M468.63,561.14 M450.49,548.79c-0.18,0.06-0.36,0.13-0.54,0.2
	c-3.43,1.31-5.82,2.24-8.08,3.14c-6.21,2.47-17,6.99-26.24,12.76c-12.42,7.31-15.97,12.52-13.09,18.51
	c2.05,2.71,4.36,5.84,16.35,1.07S440,573.69,445,569.08s12.95-12.63,11.37-11.37 M449.27,536.48c-3.6-1.03-6.12-1.74-8.52-2.39
	c-6.58-1.79-18.29-5.27-29.32-6.29c-14.58-1.72-20.72,0.3-21.91,6.71c0.08,3.35,0.36,7.66,13.07,11.11s25.16,4.41,32.03,3.8
	c6.87-0.61,16.7-2.36,14.65-2.33 M472.33,470.81c-2.31-8.94-6.12-10.72-9.36-10.93c-4.64,0.62-7.39,4.11-8.46,10.68 M506.58,491.25
	c6.38-12.84,3.13-17.49,0.59-19.73c-5.55-3.19-11.28,0.11-19.07,11.12 M527.41,522.57c1.46-0.84,3.17-1.83,4.66-2.78
	c11.15-7.09,10.35-11.4,9.43-14.64c-3.04-5.78-8.57-6.99-22.02-0.99 M533.77,559.3c12.38-0.03,13.51-3.34,13.93-7.98
	c0.42-4.64-3.52-8.4-14.29-10.81 M533.77,559.3c-1.35-0.95-3.42-2.12-5.07-3.13c-6.5-4.23-14.48-7.46-20.55-10.04 M523.46,576.49
	c0.21,0.09-0.75-0.37-0.54-0.29c12.14,5.08,16.9,3.96,19.15,0.23c2.25-3.73,0.62-10.87-8.3-17.14 M493.84,601.49
	c5.56,7.95,14.08,9.14,17.34,7.88c5.02-3.22,5.2-8.28,0.63-18.37 M457.49,602.97c0.52,13.15,5.4,14.55,8.8,15.34
	c5.26,0.15,8.08-3.97,10.1-12.28 M425.94,581.37c-1.8,1.89-3.37,4.43-4.48,6.32c-6.64,11.36-4.38,14.77-1.94,17.26
	c5.33,3.62,11.74,1.39,20.2-8.55 M408.85,547.14c-1.42,0.52-3.73,1.05-5.19,1.65c-12.19,5.06-11.88,9.45-11.4,12.98
	c2.03,5.9,8.7,7.27,20.17,5.09 M413.14,508.56c-0.91-0.33-3.6-1.53-4.55-1.85c-12.48-4.2-15.01-0.39-16.96,2.59
	c-2.55,6.28,2.45,11.47,14.64,18.03 M440.4,482.78c-8.22-14.07-14.45-12.81-17.72-11.64c-5.53,3.33-5.63,9.71-0.02,21.68
	 M439.77,483.47 M441,485.43"/>
<g id="XMLID_00000130642162731235225900000018434521524639262091_">
	<g>
		<path class="st3" d="M984.13,547.48c10.79,2.4,14.72,6.16,14.3,10.8c-0.42,4.65-1.55,7.95-13.94,7.98
			c-1.34-0.94-3.41-2.11-5.07-3.12c-6.46-4.21-14.41-7.44-20.47-10.02c6.58-0.5,15.19-2.05,24.48-5.4c0.24-0.09,0.47-0.17,0.69-0.26
			V547.48z"/>
		<path class="st3" d="M958.95,553.12c-2.02,0.17-3.85,0.23-5.45,0.2c-5.08-0.06-12.88-0.45-15.6-0.69l-0.47,2.43
			c0-0.21,8.63,4.27,14.06,7.45c5.76,3.39,14.21,10.83,22.15,20.67l0.02,0.02c0.14,0.17,0.29,0.33,0.42,0.51
			c8.07,10.11,5.79,14.39,3.8,17.15c-3.77,3.47-8.48,2.29-15.31-2.93c-2.02-1.54-4.22-3.42-6.65-5.66
			c-8.09-7.6-14.81-15.89-18.99-21.11c-1.52-1.92-3.23-4.53-5.49-7.44c-0.14-0.18-0.62,0.17-0.75,0c1.55,2.88,5.11,9.14,7.09,13.41
			c2.88,6.23,5.73,17.62,6.76,30.69c0.02,0.21,0.03,0.42,0.05,0.63v0.02c0.83,12.46-3.7,13.97-6.77,15.15
			c-5.04,0.8-8.06-2.38-10.7-10.62c-0.72-2.28-1.43-4.96-2.14-8.06c-2.75-10.7-3.55-22.72-4.07-29.49c-0.17-2.1-0.3-6.22-0.33-7.39
			l-0.8,0.03c-0.2,2.75-0.86,10.33-1.61,15.39c-0.95,6.25-4.41,16.08-10,26.43c-0.42,0.8-0.88,1.61-1.33,2.41
			c-6.37,11.22-11.1,10.02-14.39,9.19c-3.74-2.53-5.3-7.54-1.98-18.13c0.41-1.3,0.89-2.67,1.45-4.13
			c3.59-10.27,9.64-20.86,12.94-26.67c1.13-1.99,2.76-4.21,4.44-7.06l-2.64-0.17c-1.87,1.99-7.2,7.27-10.91,10.7
			c-3.97,3.67-10.53,8.19-19.05,12.3c-2.22,1.07-4.59,2.11-7.06,3.11c-11.99,4.77-14.3,1.64-16.35-1.07
			c-2.61-5.45,0.08-10.23,9.9-16.55c1-0.63,2.05-1.28,3.2-1.96c9.23-5.76,20.02-10.29,26.23-12.76c2.23-0.88,4.59-1.8,7.95-3.09
			l-0.66-1.77c-1.73,0.47-9.08,1.67-14.53,2.16c-5.73,0.5-15.36-0.09-25.77-2.29c-2.07-0.44-4.16-0.94-6.26-1.51
			c-12.72-3.45-13-7.75-13.08-11.1c1.04-5.6,5.85-7.84,16.75-7.2c0,0.02,0.02,0.02,0.02,0.02c1.58,0.09,3.29,0.24,5.14,0.47
			c11.04,1.01,22.75,4.5,29.33,6.29c2.32,0.63,4.75,1.31,8.16,2.28l0.2-0.65c-2.35-1.12-9.53-4.86-14.09-7.45
			c-5.81-3.32-13.76-10.08-21.87-19.72c-0.21-0.24-0.42-0.48-0.62-0.72c-8.33-10.05-6.65-13.83-4.75-16.62
			c3.56-3.45,8.09-3.17,14.74,1.3c0,0,0,0,0.02,0.02c2.19,1.46,4.62,3.39,7.3,5.79c8.39,7.11,15.87,16.61,20.2,21.81
			c1.51,1.83,3.08,3.74,5.27,6.46l0.17-0.14c-0.63-1.03-4.83-9.4-7.47-14.62c-3.06-6.05-6.17-16.22-7.59-29.06
			c-1.4-12.84,1.67-14.98,4.78-16.25c3.65-0.69,6.7,0.39,9.34,4.04c1.98,2.75,3.71,6.92,5.3,12.9c3.06,10.45,4.27,23.55,4.99,30.2
			c0.27,2.41,0.5,5.34,0.84,9.01h1.27c-0.03-3.68,0.06-6.64,0.08-9.08c0.05-6.7-0.3-18.28,1.67-29c0.97-6.11,2.13-10.65,3.67-13.79
			v-0.02c2.02-4.15,4.68-5.85,8.37-5.55c3.21,0.94,7.53,2.29,7.44,15.22c0,0.72-0.02,1.45-0.05,2.17
			c-0.33,12.16-2.76,23.84-5.07,29.83c-1.4,4.38-4.28,9.99-5.54,12.7l1.04,0.26c1.86-2.67,2.84-4.28,4.15-6.12
			c3.89-5.45,10.82-15.36,18.59-22.98c1.9-1.95,3.67-3.64,5.31-5.07c7.12-6.16,12.14-7.5,16.2-4.12c2.08,2.62,4.21,6.52-3.3,17.03
			c-7.5,10.52-17.52,19.72-23.14,23.5c-3.77,2.53-7.26,4.33-10.14,6.03l0.36,0.95c3.12-1.16,5.37-1.99,7.53-2.78
			c6.29-2.26,17.45-6.61,28.2-8.45c1.83-0.36,3.55-0.65,5.13-0.86c10.71-1.4,16.17,0.69,17.68,6.16c0.23,3.27-0.21,7.48-11.69,11.77
			c-0.23,0.09-0.45,0.17-0.69,0.26C974.14,551.07,965.53,552.63,958.95,553.12z"/>
		<path class="st3" d="M984.49,566.26c8.93,6.28,10.56,13.41,8.31,17.14c-2.26,3.74-7.02,4.86-19.14-0.21l-0.02-0.02
			c-7.94-9.84-16.38-17.27-22.15-20.67c-5.43-3.18-14.06-7.66-14.06-7.45l0.47-2.43c2.72,0.24,10.52,0.63,15.6,0.69
			c1.6,0.03,3.42-0.03,5.45-0.2c6.06,2.58,14.02,5.81,20.47,10.02C981.08,564.15,983.15,565.33,984.49,566.26z"/>
		<path class="st3" d="M992.23,512.12c0.92,3.24,1.72,7.54-9.43,14.65c-1.49,0.95-3.2,1.93-4.66,2.78c-1.58,0.21-3.3,0.5-5.13,0.86
			c-10.74,1.84-21.91,6.19-28.2,8.45c-2.16,0.78-4.41,1.61-7.53,2.78l-0.36-0.95c2.88-1.7,6.37-3.5,10.14-6.03
			c5.63-3.79,15.64-12.99,23.14-23.5C983.66,505.14,989.2,506.36,992.23,512.12z"/>
		<path class="st3" d="M962.54,597.98c4.57,10.08,4.39,15.15-0.63,18.36c-3.26,1.27-11.77,0.08-17.33-7.86v-0.02
			c-0.02-0.21-0.03-0.42-0.05-0.63c-1.03-13.06-3.88-24.45-6.76-30.69c-1.98-4.27-5.54-10.53-7.09-13.41c0.14,0.17,0.62-0.18,0.75,0
			c2.26,2.91,3.97,5.52,5.49,7.44c4.18,5.22,10.91,13.5,18.99,21.11c2.43,2.23,4.63,4.12,6.65,5.66L962.54,597.98z"/>
		<path class="st3" d="M957.89,478.49c2.53,2.23,5.79,6.89-0.59,19.73c-1.64,1.43-3.41,3.12-5.31,5.07
			c-7.77,7.62-14.69,17.53-18.59,22.98c-1.31,1.84-2.29,3.45-4.15,6.12l-1.04-0.26c1.25-2.72,4.13-8.33,5.54-12.7
			c2.31-5.99,4.74-17.67,5.07-29.83C946.61,478.6,952.34,475.29,957.89,478.49z"/>
		<path class="st3" d="M924.96,604.95c0.71,3.09,1.42,5.78,2.14,8.06c-2.01,8.3-4.84,12.42-10.09,12.28
			c-3.39-0.8-8.28-2.19-8.8-15.34l-0.08-0.03c5.6-10.35,9.05-20.19,10-26.43c0.75-5.05,1.42-12.64,1.61-15.39l0.8-0.03
			c0.03,1.18,0.17,5.3,0.33,7.39C921.42,582.23,922.22,594.25,924.96,604.95z"/>
		<path class="st3" d="M923.06,477.77v0.02c-1.54,3.14-2.7,7.68-3.67,13.79c-1.98,10.71-1.63,22.3-1.67,29
			c-0.02,2.44-0.11,5.4-0.08,9.08h-1.27c-0.35-3.67-0.57-6.59-0.84-9.01c-0.72-6.65-1.93-19.75-4.99-30.2
			c-1.58-5.97-3.32-10.15-5.3-12.9c1.06-6.58,3.82-10.06,8.45-10.68C916.93,467.06,920.74,468.84,923.06,477.77z"/>
		<path class="st3" d="M906.63,565.34l2.64,0.17c-1.67,2.85-3.3,5.07-4.44,7.06c-3.3,5.81-9.35,16.4-12.94,26.67
			c-0.56,1.46-1.04,2.84-1.45,4.13c-8.46,9.94-14.87,12.17-20.2,8.55c-2.44-2.49-4.69-5.9,1.95-17.26c1.1-1.9,2.67-4.44,4.48-6.34
			c8.52-4.1,15.09-8.63,19.05-12.3C899.44,572.62,904.76,567.34,906.63,565.34z"/>
		<path class="st3" d="M906.18,533.42l-0.17,0.14c-2.19-2.72-3.76-4.63-5.27-6.46c-4.33-5.2-11.81-14.71-20.2-21.81
			c-2.69-2.4-5.11-4.33-7.3-5.79c-0.02-0.02-0.02-0.02-0.02-0.02c-5.45-11.78-5.31-18.07,0.18-21.38c3.27-1.16,9.5-2.43,17.71,11.65
			c1.42,12.84,4.53,23.01,7.59,29.06C901.35,524.02,905.54,532.4,906.18,533.42z"/>
		<path class="st3" d="M899.87,554.24l0.66,1.77c-3.36,1.3-5.72,2.22-7.95,3.09c-6.22,2.47-17,7-26.23,12.76
			c-1.15,0.68-2.2,1.33-3.2,1.96c-11.47,2.19-18.13,0.83-20.17-5.08c-0.48-3.53-0.78-7.92,11.41-12.97c1.46-0.6,3.76-1.13,5.19-1.66
			c10.41,2.2,20.03,2.79,25.77,2.29C890.79,555.92,898.14,554.71,899.87,554.24z"/>
		<path class="st3" d="M899.83,542.7l-0.2,0.65c-3.41-0.97-5.84-1.64-8.16-2.28c-6.58-1.8-18.28-5.28-29.33-6.29
			c-1.86-0.23-3.56-0.38-5.14-0.47c0,0-0.02,0-0.02-0.02c-12.17-6.55-17.18-11.74-14.63-18.01c1.96-2.99,4.48-6.8,16.97-2.59
			c0.94,0.32,3.64,1.51,4.54,1.84c8.12,9.64,16.07,16.4,21.87,19.72C890.29,537.84,897.47,541.58,899.83,542.7z"/>
	</g>
	<g>
		<path class="st2" d="M906.18,533.3c0.11,0.26,0.11,0.29,0,0.12c-0.63-1.03-4.83-9.4-7.47-14.62c-3.06-6.05-6.17-16.22-7.59-29.06
			c-1.4-12.84,1.67-14.98,4.78-16.25c3.65-0.69,6.7,0.39,9.34,4.04c1.98,2.75,3.71,6.92,5.3,12.9c3.06,10.45,4.27,23.55,4.99,30.2
			c0.27,2.41,0.5,5.34,0.84,9.01"/>
		<path class="st2" d="M923.06,477.78c-1.54,3.14-2.7,7.68-3.67,13.79c-1.98,10.71-1.63,22.3-1.67,29c-0.02,2.44-0.11,5.4-0.08,9.08
			"/>
		<path class="st2" d="M928.22,532.14c1.25-2.72,4.13-8.33,5.54-12.7c2.31-5.99,4.74-17.67,5.07-29.83
			c0.03-0.72,0.05-1.45,0.05-2.17c0.09-12.93-4.22-14.29-7.44-15.22c-3.7-0.3-6.35,1.4-8.37,5.55"/>
		<path class="st2" d="M970.2,511.14c7.51-10.52,5.39-14.41,3.3-17.03c-4.06-3.38-9.08-2.04-16.2,4.12
			c-1.64,1.43-3.41,3.12-5.31,5.07c-7.77,7.62-14.69,17.53-18.59,22.98c-1.31,1.84-2.29,3.45-4.15,6.12"/>
		<path class="st2" d="M936.92,540.68c2.88-1.7,6.37-3.5,10.14-6.03c5.63-3.79,15.64-12.99,23.14-23.5"/>
		<path class="st2" d="M937.9,552.63c2.72,0.24,10.52,0.63,15.6,0.69c1.6,0.03,3.42-0.03,5.45-0.2c6.58-0.5,15.19-2.05,24.48-5.4
			c0.24-0.09,0.47-0.17,0.69-0.26c11.48-4.28,11.92-8.49,11.69-11.77c-1.51-5.46-6.97-7.56-17.68-6.16c-1.58,0.21-3.3,0.5-5.13,0.86
			c-10.74,1.84-21.91,6.19-28.2,8.45c-2.16,0.78-4.41,1.61-7.53,2.78c-0.2,0.09-0.41,0.17-0.62,0.24"/>
		<path class="st2" d="M900.6,543.02c-0.03-0.05-0.09-0.09-0.17-0.15"/>
		<path class="st2" d="M873.23,499.48c-6.65-4.47-11.18-4.75-14.74-1.3c-1.9,2.79-3.58,6.58,4.75,16.62
			c0.2,0.24,0.41,0.48,0.62,0.72c8.12,9.64,16.07,16.4,21.87,19.72c4.56,2.59,11.74,6.34,14.09,7.45c0.44,0.2,0.71,0.32,0.77,0.32
			c0.02,0,0.02,0,0.02,0"/>
		<path class="st2" d="M906.28,533.9c-0.09-0.12-0.18-0.23-0.27-0.35c-2.19-2.72-3.76-4.63-5.27-6.46
			c-4.33-5.2-11.81-14.71-20.2-21.81c-2.69-2.4-5.11-4.33-7.3-5.79"/>
		<path class="st2" d="M973.64,583.18c-7.94-9.84-16.38-17.27-22.15-20.67c-5.43-3.18-14.06-7.66-14.06-7.45
			c0,0.03,0.06,0.08,0.2,0.17"/>
		<path class="st2" d="M930.68,563.73c0.14,0.17,0.62-0.18,0.75,0c2.26,2.91,3.97,5.52,5.49,7.44c4.18,5.22,10.91,13.5,18.99,21.11
			c2.43,2.23,4.63,4.12,6.65,5.66c6.83,5.22,11.54,6.4,15.31,2.93c1.99-2.76,4.27-7.05-3.8-17.15c-0.14-0.18-0.29-0.35-0.42-0.51"/>
		<path class="st2" d="M944.57,608.46c-0.02-0.21-0.03-0.42-0.05-0.63c-1.03-13.06-3.88-24.45-6.76-30.69
			c-1.98-4.27-5.54-10.53-7.09-13.41"/>
		<path class="st2" d="M920.54,567.74c0,0,0,0.12,0.02,0.32c0.03,1.18,0.17,5.3,0.33,7.39c0.53,6.77,1.33,18.8,4.07,29.49
			c0.71,3.09,1.42,5.78,2.14,8.06c2.64,8.24,5.66,11.42,10.7,10.62c3.08-1.18,7.6-2.69,6.77-15.15"/>
		<path class="st2" d="M909.27,565.51c-1.67,2.85-3.3,5.07-4.44,7.06c-3.3,5.81-9.35,16.4-12.94,26.67
			c-0.56,1.46-1.04,2.84-1.45,4.13c-3.32,10.59-1.77,15.6,1.98,18.13c3.29,0.83,8.03,2.04,14.39-9.19c0.45-0.8,0.91-1.61,1.33-2.41
			c5.6-10.35,9.05-20.19,10-26.43c0.75-5.05,1.42-12.64,1.61-15.39"/>
		<path class="st2" d="M901.22,555.76c-0.18,0.06-0.36,0.14-0.54,0.2c-0.05,0.02-0.09,0.03-0.14,0.05c-3.36,1.3-5.72,2.22-7.95,3.09
			c-6.22,2.47-17,7-26.23,12.76c-1.15,0.68-2.2,1.33-3.2,1.96c-9.82,6.32-12.51,11.1-9.9,16.55c2.05,2.72,4.36,5.84,16.35,1.07
			c2.47-1,4.84-2.04,7.06-3.11c8.52-4.1,15.09-8.63,19.05-12.3c3.71-3.42,9.04-8.7,10.91-10.7c0.65-0.71,0.88-1.01,0.47-0.68"/>
		<path class="st2" d="M856.98,534.3c-10.89-0.65-15.7,1.6-16.75,7.2c0.08,3.35,0.36,7.65,13.08,11.1c2.1,0.57,4.19,1.07,6.26,1.51
			c10.41,2.2,20.03,2.79,25.77,2.29c5.45-0.48,12.79-1.69,14.53-2.16c0.47-0.12,0.54-0.18,0.12-0.18"/>
		<path class="st2" d="M899.99,543.45c-0.12-0.03-0.24-0.08-0.36-0.11c-3.41-0.97-5.84-1.64-8.16-2.28
			c-6.58-1.8-18.28-5.28-29.33-6.29c-1.86-0.23-3.56-0.38-5.14-0.47"/>
		<path class="st2" d="M923.06,477.78v-0.02c-2.32-8.93-6.12-10.71-9.37-10.91c-4.63,0.62-7.39,4.1-8.45,10.68"/>
		<path class="st2" d="M957.31,498.23c6.38-12.84,3.12-17.5,0.59-19.73c-5.55-3.2-11.28,0.11-19.07,11.12"/>
		<path class="st2" d="M978.14,529.54c1.46-0.84,3.17-1.83,4.66-2.78c11.15-7.11,10.35-11.41,9.43-14.65
			c-3.03-5.76-8.57-6.98-22.03-0.98"/>
		<path class="st2" d="M984.49,566.26c12.39-0.03,13.52-3.33,13.94-7.98c0.42-4.65-3.52-8.4-14.3-10.8"/>
		<path class="st2" d="M984.49,566.26c-1.34-0.94-3.41-2.11-5.07-3.12c-6.46-4.21-14.41-7.44-20.47-10.02
			c-0.03-0.02-0.05-0.02-0.08-0.03"/>
		<path class="st2" d="M973.66,583.19c12.13,5.07,16.88,3.95,19.14,0.21c2.25-3.73,0.62-10.86-8.31-17.14"/>
		<path class="st2" d="M973.61,583.16c0,0,0.02,0,0.03,0.02"/>
		<line class="st2" x1="973.64" y1="583.18" x2="973.66" y2="583.19"/>
		<path class="st2" d="M974.22,583.48c0,0-0.02-0.02-0.03-0.02c-0.09-0.06-0.42-0.21-0.53-0.27"/>
		<path class="st2" d="M944.57,608.46v0.02c5.57,7.94,14.08,9.13,17.33,7.86c5.02-3.21,5.2-8.28,0.63-18.36"/>
		<path class="st2" d="M908.22,609.94c0.51,13.16,5.4,14.54,8.8,15.34c5.25,0.14,8.09-3.98,10.09-12.28"/>
		<path class="st2" d="M876.67,588.34c-1.81,1.9-3.38,4.44-4.48,6.34c-6.64,11.36-4.39,14.77-1.95,17.26
			c5.33,3.62,11.74,1.39,20.2-8.55"/>
		<path class="st2" d="M859.58,554.1c-1.43,0.53-3.73,1.06-5.19,1.66c-12.19,5.05-11.89,9.44-11.41,12.97
			c2.04,5.91,8.7,7.27,20.17,5.08"/>
		<path class="st2" d="M863.86,515.53c-0.91-0.33-3.61-1.52-4.54-1.84c-12.49-4.21-15.01-0.39-16.97,2.59
			c-2.55,6.28,2.46,11.47,14.63,18.01c0,0.02,0.02,0.02,0.02,0.02"/>
		<path class="st2" d="M891.12,489.75c-8.21-14.08-14.44-12.81-17.71-11.65c-5.49,3.3-5.63,9.59-0.18,21.38c0,0,0,0,0.02,0.02
			c0.05,0.09,0.09,0.2,0.14,0.3"/>
	</g>
</g>
<circle class="st4" cx="918.96" cy="548.88" r="19.23"/>
</svg>
