<!-- 흰색 -> 핑크, 아웃라인 -->

<?xml version="1.0" encoding="utf-8"?>
<!-- Generator: Adobe Illustrator 26.3.1, SVG Export Plug-In . SVG Version: 6.00 Build 0)  -->
<svg version="1.1" id="레이어_1" xmlns="http://www.w3.org/2000/svg" xmlns:xlink="http://www.w3.org/1999/xlink" x="0px"
	 y="0px" viewBox="0 0 1280 1024" style="enable-background:new 0 0 1280 1024;" xml:space="preserve">
<style type="text/css">
	.st0{fill:url(#SVGID_1_);stroke:#000000;stroke-width:2;stroke-miterlimit:10;}
	.st1{fill:#B3B3B3;stroke:#000000;stroke-width:2;stroke-miterlimit:10;}
	.st2{fill:none;stroke:#000000;stroke-width:2;stroke-miterlimit:10;}
	.st3{fill:#FFEBF9;}
	.st4{fill:#FFC600;stroke:#000000;stroke-width:2;stroke-miterlimit:10;}
</style>
<linearGradient id="SVGID_1_" gradientUnits="userSpaceOnUse" x1="93.4382" y1="485.8187" x2="1214.2957" y2="485.8187">
	<stop  offset="0" style="stop-color:#FFFFFF"/>
	<stop  offset="0.3016" style="stop-color:#FCE7E7"/>
	<stop  offset="0.9348" style="stop-color:#F5ABAB"/>
	<stop  offset="1" style="stop-color:#F4A4A4"/>
</linearGradient>
<path class="st0" d="M282.46,511.83c0,29.09-11.43,53.19-34.3,72.31c-22.36,18.71-49.95,28.07-82.77,28.07
	c-18.9,0-35.16-4.17-48.78-12.51c-15.45-9.46-23.17-22.17-23.17-38.14c0-8.03,1.95-15.18,5.85-21.44c3.9-6.25,9.04-9.38,15.42-9.38
	c4.66,0,8.26,1.22,10.79,3.66c2.53,2.44,3.8,5.49,3.8,9.15c0,3.26-0.28,5.72-0.84,7.4c-0.56,1.68-1.5,3.28-2.82,4.81
	c-0.71,0.82-1.27,1.22-1.68,1.22c-0.3,0-0.76-0.84-1.37-2.52c-0.61-1.68-1.47-3.08-2.59-4.19c-1.53-1.63-3.41-2.44-5.65-2.44
	c-3.26,0-5.75,1.65-7.48,4.96c-1.73,3.31-2.59,7.04-2.59,11.21c0,12.41,6.2,22.07,18.61,28.99c10.58,5.9,23.49,8.85,38.75,8.85
	c26.95,0,49.79-8.34,68.5-25.02c19.83-17.59,29.75-40.28,29.75-68.04c0-8.95-1.86-17.21-5.57-24.79
	c-3.71-7.57-8.67-13.45-14.87-17.62c-3.96,5.19-9.03,9.71-15.21,13.58c-7.3,4.58-14.3,6.87-21,6.87c-7.41,0-12.98-1.42-16.74-4.27
	c-3.25-2.44-4.87-5.8-4.87-10.07c0-5.19,2.79-9.79,8.37-13.81c5.58-4.02,11.91-6.53,19.01-7.55c4.05-0.51,7.6-0.76,10.65-0.76
	c4.56,0,8.62,0.46,12.17,1.37c2.13-4.48,3.84-9.03,5.11-13.66c1.27-4.63,1.91-9.53,1.91-14.72c0-15.87-7.02-28.38-21.05-37.53
	c-12.41-8.14-27.36-12.21-44.85-12.21c-16.07,0-30.54,3.92-43.4,11.75c-12.87,7.83-19.96,17.34-21.28,28.53
	c-0.21,1.83-0.31,3.15-0.31,3.97c0,3.56,0.71,6.28,2.14,8.16c1.42,1.88,3.36,2.82,5.8,2.82c2.24,0,4.12-0.41,5.65-1.22
	c0.71-0.41,1.58-1.12,2.59-2.13c0.41-0.71,0.76-1.02,1.07-0.92c0.31,0.1,0.46,0.41,0.46,0.92c0.61,3.46-1.22,6.81-5.49,10.07
	c-2.95,2.24-6.51,3.36-10.68,3.36c-3.76,0-7.07-1.68-9.92-5.03c-3.15-3.66-4.73-8.39-4.73-14.19c0-14.54,8.03-27.46,24.1-38.75
	c16.78-11.8,36.71-17.7,59.8-17.7c21.97,0,40.43,4.27,55.38,12.81c17.8,10.17,26.7,24.92,26.7,44.24c0,7.02-1.27,13.53-3.82,19.53
	c-1.83,4.37-5.14,9.87-9.92,16.48c8.03,3.56,15.61,10.22,22.73,19.99C278.24,487.88,282.46,499.73,282.46,511.83z M177.03,578.1
	c0.21,0.2,0.36,0.5,0.46,0.9c0.1,0.3,0.16,0.55,0.16,0.75c0,1.1-0.92,1.65-2.76,1.65c-1.02,0.1-4.06-0.02-9.11-0.38
	c-5.05-0.36-8.55-0.53-10.49-0.53c-3.27,0-8.16,0.26-14.7,0.76c-2.45,0.2-4.18,0.25-5.2,0.15c-1.73,0-2.6-0.61-2.6-1.83
	c0-0.51,0.15-0.92,0.46-1.22c0.3-0.41,2.49-2.19,6.56-5.34c3.15-2.44,4.73-4.63,4.73-6.56V426.09c0-3.15-0.97-5.39-2.9-6.71
	c-2.34-0.91-3.94-1.6-4.8-2.06c-0.87-0.46-1.3-0.99-1.3-1.6c0-0.61,0.46-1.12,1.38-1.53c0.82-0.71,2.4-1.73,4.75-3.05
	c7.45-4.17,11.89-6.71,13.32-7.63c2.45-1.53,6.53-4.32,12.25-8.39c4.18-3.05,6.94-4.73,8.27-5.03c1.12-0.51,1.68-0.2,1.68,0.92
	c0,0.3-0.16,0.71-0.46,1.22c-3.82,6.31-6.5,12.42-8.04,18.32c-1.86,7.23-2.79,15.07-2.79,23.51v132.53c0,1.94,1.55,4.07,4.64,6.41
	C174.66,576.11,176.83,577.8,177.03,578.1z M226.93,461.18c-3.97-1.32-8.44-1.98-13.42-1.98c-1.63,0-3.66,0.13-6.1,0.38
	c-2.44,0.26-5.34,1.25-8.7,2.98c-4.17,2.24-6.25,4.93-6.25,8.09c0,2.85,1.58,4.78,4.73,5.8c1.83,0.61,3.61,0.92,5.34,0.92
	c4.58,0,9.23-1.6,13.96-4.81C221.21,469.34,224.69,465.55,226.93,461.18z M362.4,576.6c1.22,1.2,1.83,2.2,1.83,3
	c0,1.2-1.12,1.8-3.36,1.8c-1.83,0-3.36-0.06-4.58-0.18c-6.31-0.59-10.48-0.89-12.51-0.89c-3.66,0-6.64,0.12-8.92,0.36
	c-2.29,0.24-4.91,0.47-7.86,0.71c-2.44,0-3.66-0.62-3.66-1.86c0-0.62,0.51-1.55,1.53-2.79c2.54-2.07,4.42-3.67,5.64-4.81
	c2.34-2.03,3.51-3.91,3.51-5.64V403.2c0-2.95-0.1-5.28-0.3-7.01c-0.2-1.73-1.42-2.44-3.66-2.13c-1.12,0.21-3,1.2-5.65,2.97
	c-2.65,1.78-4.42,2.82-5.34,3.13c-1.53,0.51-2.29-0.05-2.29-1.68c0-0.51,0.31-1.22,0.92-2.14c0.61-0.92,3.41-3.77,8.39-8.58
	c3.97-3.88,7.12-6.99,9.46-9.34c3.45-3.47,7.22-7.61,11.29-12.41c2.85-3.37,4.68-5.36,5.49-5.97c0.2-0.2,0.51-0.36,0.91-0.46
	c0.3-0.1,0.56-0.15,0.76-0.15c0.92,0,1.37,0.82,1.37,2.44c-0.51,3.26-0.94,7.31-1.3,12.15c-0.36,4.84-0.53,9.96-0.53,15.35v177.22
	c0,1.63,1.07,3.41,3.2,5.35C358.59,573.54,360.47,575.09,362.4,576.6z M680.64,532.27c0,16.07-6.97,29.24-20.9,39.51
	c-13.02,9.66-28.53,14.49-46.53,14.49c-15.26,0-27.92-2.49-37.99-7.48c-12.31-6.1-18.46-15.1-18.46-27c0-9.05,3.33-16.71,9.99-22.96
	c6.66-6.25,14.62-9.38,23.88-9.38c9.56,0,17.34,1.73,23.34,5.19c6.81,3.97,10.22,9.56,10.22,16.78c0,4.58-1.65,8.57-4.96,11.98
	c-3.31,3.41-7.25,5.11-11.82,5.11c-4.37,0-7.53-0.81-9.46-2.44c-0.51-0.51-0.76-0.92-0.76-1.22c0-0.71,0.66-1.22,1.98-1.53
	c1.73-0.61,3.18-1.68,4.35-3.2c1.17-1.53,1.75-3.91,1.75-7.17c0-2.95-1.58-5.36-4.73-7.25c-3.15-1.88-6.56-2.82-10.22-2.82
	c-7.22,0-13.3,1.73-18.23,5.19c-4.93,3.46-7.4,8.24-7.4,14.34c0,8.54,5.44,15.16,16.32,19.83c9.05,3.87,19.78,5.8,32.19,5.8
	c12.92,0,24.2-2.9,33.87-8.7c11.39-6.81,17.09-16.02,17.09-27.61c0-11.59-4.17-20.19-12.51-25.78c-5.19-3.46-15.05-6.97-29.6-10.53
	c-8.34-1.83-16.63-3.71-24.87-5.64c-9.36-2.54-16.22-5.85-20.59-9.92c-5.7-5.29-8.54-12.71-8.54-22.27c0-10.88,5.75-19.88,17.24-27
	c10.58-6.61,22.73-9.92,36.46-9.92c12.41,0,22.43,1.58,30.05,4.73c10.07,4.17,15.1,10.63,15.1,19.38c0,5.59-2.7,10.22-8.09,13.88
	c-4.98,3.36-10.73,5.03-17.24,5.03c-6.2,0-11.39-1.17-15.56-3.51c-5.09-2.85-7.63-6.91-7.63-12.2c0-2.75,0.94-5.16,2.82-7.25
	c1.88-2.08,3.99-3.48,6.33-4.19c1.02-0.2,1.58-0.3,1.68-0.3c0.71,0,1.07,0.51,1.07,1.53l-0.3,3.05c0,2.24,0.71,4.07,2.14,5.49
	c1.83,1.83,4.78,2.75,8.85,2.75c2.64,0,4.93-0.92,6.86-2.75c1.93-1.83,2.9-3.97,2.9-6.41c0-4.58-3.31-7.83-9.92-9.76
	c-4.88-1.42-11.24-2.13-19.07-2.13c-9.76,0-18.56,2.19-26.39,6.56c-8.65,4.88-12.97,10.93-12.97,18.15c0,6.51,2.85,11.6,8.54,15.26
	c3.56,2.34,14.95,5.7,34.17,10.07c11.9,2.75,21.05,5.39,27.46,7.93c8.95,3.56,15.66,7.93,20.14,13.12
	C678,515.19,680.64,522.92,680.64,532.27z M832.59,532.27c0,16.07-6.97,29.24-20.9,39.51c-13.02,9.66-28.53,14.49-46.53,14.49
	c-15.26,0-27.92-2.49-37.99-7.48c-12.31-6.1-18.46-15.1-18.46-27c0-9.05,3.33-16.71,9.99-22.96c6.66-6.25,14.62-9.38,23.88-9.38
	c9.56,0,17.34,1.73,23.34,5.19c6.81,3.97,10.22,9.56,10.22,16.78c0,4.58-1.65,8.57-4.96,11.98c-3.31,3.41-7.25,5.11-11.82,5.11
	c-4.37,0-7.53-0.81-9.46-2.44c-0.51-0.51-0.76-0.92-0.76-1.22c0-0.71,0.66-1.22,1.98-1.53c1.73-0.61,3.18-1.68,4.35-3.2
	c1.17-1.53,1.76-3.91,1.76-7.17c0-2.95-1.58-5.36-4.73-7.25c-3.15-1.88-6.56-2.82-10.22-2.82c-7.22,0-13.3,1.73-18.23,5.19
	c-4.94,3.46-7.4,8.24-7.4,14.34c0,8.54,5.44,15.16,16.33,19.83c9.05,3.87,19.78,5.8,32.19,5.8c12.92,0,24.2-2.9,33.87-8.7
	c11.39-6.81,17.09-16.02,17.09-27.61c0-11.59-4.17-20.19-12.51-25.78c-5.19-3.46-15.05-6.97-29.6-10.53
	c-8.34-1.83-16.63-3.71-24.87-5.64c-9.36-2.54-16.22-5.85-20.59-9.92c-5.7-5.29-8.54-12.71-8.54-22.27c0-10.88,5.74-19.88,17.24-27
	c10.58-6.61,22.73-9.92,36.46-9.92c12.41,0,22.43,1.58,30.05,4.73c10.07,4.17,15.1,10.63,15.1,19.38c0,5.59-2.7,10.22-8.08,13.88
	c-4.98,3.36-10.73,5.03-17.24,5.03c-6.21,0-11.39-1.17-15.56-3.51c-5.09-2.85-7.63-6.91-7.63-12.2c0-2.75,0.94-5.16,2.82-7.25
	c1.88-2.08,3.99-3.48,6.33-4.19c1.02-0.2,1.58-0.3,1.68-0.3c0.71,0,1.07,0.51,1.07,1.53l-0.3,3.05c0,2.24,0.71,4.07,2.13,5.49
	c1.83,1.83,4.78,2.75,8.85,2.75c2.64,0,4.93-0.92,6.86-2.75c1.93-1.83,2.9-3.97,2.9-6.41c0-4.58-3.31-7.83-9.92-9.76
	c-4.88-1.42-11.24-2.13-19.07-2.13c-9.76,0-18.56,2.19-26.39,6.56c-8.65,4.88-12.97,10.93-12.97,18.15c0,6.51,2.85,11.6,8.54,15.26
	c3.56,2.34,14.95,5.7,34.17,10.07c11.9,2.75,21.05,5.39,27.46,7.93c8.95,3.56,15.66,7.93,20.14,13.12
	C829.95,515.19,832.59,522.92,832.59,532.27z M1214.3,487.18c0,13.34-3.41,27.54-10.22,42.61c-6.41,14.15-15,27.34-25.78,39.56
	c0.31,0,0.84,0.03,1.6,0.08c0.76,0.05,1.81,0.07,3.13,0.07c3.15,0,6.15-0.18,9-0.53c2.85-0.36,5.65-1.5,8.39-3.43
	c1.63-1.32,3.3-2.69,5.03-4.12c0.61-0.61,1.22-0.71,1.83-0.3c0.51,0.41,0.71,1.12,0.61,2.13c-0.3,2.04-0.59,4.04-0.84,6.03
	c-0.26,1.98-0.38,3.43-0.38,4.35c0,2.24,0.08,4.1,0.23,5.57c0.15,1.47,0.38,3.18,0.69,5.11c0.2,1.73-0.15,2.59-1.07,2.59
	c-0.71,0-1.47-0.36-2.29-1.07c-1.93-1.32-4.07-2.39-6.41-3.2c-2.34-0.82-4.5-1.37-6.48-1.68c-1.98-0.3-5.16-0.46-9.54-0.46
	c-2.95,0-5.29,0.04-7.02,0.12c-1.73,0.07-4.02,0.3-6.86,0.69c-0.41,0.08-0.76,0.11-1.07,0.11c-0.51,0-0.87,0-1.07,0
	c-1.93,0-2.9-0.66-2.9-1.98c0-0.61,0.36-1.52,1.07-2.74c5.08-7.82,9.51-15.29,13.27-22.4c4.98-9.34,8.8-17.98,11.44-25.91
	c3.25-9.75,4.88-18.54,4.88-26.36c0-16.66-2.39-29.61-7.17-38.86c-5.7-10.87-14.6-16.3-26.7-16.3c-4.98,0-9.71,0.99-14.19,2.97
	c-4.48,1.98-8.49,5.06-12.05,9.23c1.83,4.98,3.15,11.04,3.97,18.15c0.81,7.12,1.22,14.7,1.22,22.73c0,9.97-2.34,21.61-7.02,34.94
	c-3.66,10.48-8.24,20.75-13.73,30.82c-4.48,8.24-7.63,13.27-9.46,15.1c-0.3,0.41-0.97,0.61-1.98,0.61c-1.63,0-2.59-0.3-2.9-0.92
	c-0.3-0.4-0.36-0.96-0.15-1.68c0.61-1.42,0.96-2.29,1.07-2.59c8.95-18.51,13.43-43.12,13.43-73.84c0-14.85-2.85-27.46-8.54-37.83
	c-6.21-11.19-14.24-16.78-24.11-16.78c-6.71,0-13.02,2.8-18.92,8.39c-4.99,4.68-8.65,10.22-10.98,16.63v93.53
	c0,1.73,1.17,3.55,3.51,5.48c1.83,1.55,3.71,3.1,5.64,4.65c1.22,1.24,1.83,2.28,1.83,3.1c0,1.24-1.12,1.86-3.36,1.86
	c-1.12,0-4.07-0.15-8.85-0.46c-4.78-0.3-7.63-0.46-8.54-0.46c-3.66,0-6.64,0.1-8.92,0.31c-2.29,0.2-4.91,0.41-7.86,0.61
	c-2.34,0-3.51-0.57-3.51-1.71c0-0.82,0.56-1.81,1.68-2.94c2.44-2.07,4.27-3.67,5.49-4.81c2.24-2.03,3.36-3.91,3.36-5.64v-90.22
	c0-8.63-2.7-15.64-8.09-21.03c-2.04-2.03-5.95-4.68-11.75-7.93c-0.82-0.5-1.22-1.12-1.22-1.83c0-0.51,0.31-1.02,0.92-1.52
	c1.63-1.22,3.97-3.35,7.02-6.4c1.53-1.52,2.69-2.74,3.51-3.66c0.81-0.91,1.55-1.75,2.21-2.51c0.66-0.76,1.24-1.14,1.75-1.14
	c0.51,0,1.07,0.3,1.68,0.92c3.86,3.36,7.73,7.58,11.59,12.66c5.39,7.02,8.54,13.07,9.46,18.16c3.56-7.42,7.63-13.52,12.21-18.31
	c8.14-8.54,17.49-12.82,28.07-12.82c8.75,0,16.53,2.44,23.34,7.32c4.68,3.36,9.31,8.24,13.88,14.64c4.07-6.1,8.7-11.03,13.88-14.8
	c6.61-4.78,13.68-7.17,21.21-7.17c17.49,0,30.56,6.77,39.21,20.31C1211.09,461.06,1214.3,473.13,1214.3,487.18z"/>
<circle class="st1" cx="462.97" cy="510.16" r="19.92"/>
<path class="st2" d="M449.73,494.03c0.8,1.93-4.55-8.74-7.72-15.01s-6.4-16.8-7.86-30.09c-1.46-13.3,1.73-15.52,4.94-16.83
	c6.63-1.24,11.33,3.12,15.16,17.55c3.17,10.82,4.42,24.38,5.17,31.27c0.27,2.51,0.51,5.54,0.87,9.33 M472.55,492.83
	c1.31-2.82,4.28-8.63,5.74-13.16c2.52-6.56,5.2-19.76,5.29-33.13s-4.37-14.78-7.69-15.76c-6.72-0.56-10.14,5.31-12.47,20.05
	c-2.05,11.09-1.69,23.09-1.74,30.02c-0.02,2.53-0.1,5.59-0.07,9.4 M516.04,471.07c7.77-10.89,5.58-14.92,3.42-17.63
	c-5.18-4.32-11.89-1.21-22.28,9.51c-8.06,7.89-15.23,18.15-19.25,23.79c-1.36,1.9-2.38,3.58-4.3,6.35 M481.57,501.66
	c2.98-1.76,6.59-3.62,10.49-6.24c5.84-3.92,16.2-13.46,23.97-24.34 M482.58,514.04c2.82,0.25,10.89,0.65,16.17,0.72
	c7.03,0.1,18.41-1.26,30.99-5.8c12.59-4.54,13.05-9,12.82-12.46c-1.8-6.5-8.99-8.39-23.63-5.49c-11.11,1.91-22.67,6.41-29.19,8.76
	c-2.38,0.86-4.87,1.78-8.43,3.12 M449.84,494.65c-2.41-2.99-4.11-5.08-5.74-7.04c-4.47-5.39-12.22-15.23-20.92-22.59
	c-11.26-10.03-17.92-12.11-22.83-7.37c-1.98,2.89-3.7,6.82,4.93,17.22c8.63,10.4,17.12,17.66,23.29,21.18s16.97,9.07,15.22,7.89
	 M475.1,525.54c0.13,0.18,0.64-0.18,0.78,0c2.33,3.01,4.11,5.72,5.68,7.69c4.33,5.42,11.29,13.99,19.67,21.86
	c11,10.12,17.68,13.55,22.73,8.89c2.06-2.85,4.42-7.3-3.94-17.76c-8.36-10.45-17.3-18.38-23.39-21.96
	c-6.09-3.58-16.08-8.74-14.35-7.54 M464.6,529.7c0,0,0.16,5.43,0.36,7.98c0.55,7.01,1.38,19.47,4.23,30.53
	c3.39,14.74,6.62,20.42,13.29,19.35c3.24-1.24,8.03-2.84,6.97-16.36c-1.06-13.53-4.01-25.32-7-31.77
	c-2.05-4.43-5.73-10.9-7.34-13.89 M452.93,527.38c-1.73,2.96-3.42,5.26-4.59,7.31c-3.42,6.02-9.68,16.97-13.41,27.62
	c-5.3,13.95-3.79,20.11,0.54,23.06c3.42,0.86,8.31,2.1,14.9-9.51c6.59-11.62,10.68-22.9,11.73-29.88
	c0.79-5.23,1.47-13.09,1.68-15.93 M463.37,530.08 M444.59,517.29c-0.18,0.07-0.37,0.14-0.56,0.21c-3.55,1.36-6.03,2.32-8.37,3.25
	c-6.43,2.56-17.61,7.24-27.17,13.22c-12.86,7.57-16.53,12.96-13.55,19.16c2.13,2.81,4.52,6.05,16.93,1.11s21.87-11.16,27.05-15.94
	c5.18-4.78,13.41-13.08,11.77-11.78 M443.33,504.54c-3.73-1.07-6.34-1.8-8.83-2.47c-6.82-1.85-18.94-5.46-30.36-6.51
	c-15.09-1.78-21.45,0.31-22.68,6.95c0.08,3.47,0.38,7.93,13.54,11.5c13.16,3.57,26.06,4.57,33.17,3.93
	c7.11-0.64,17.29-2.44,15.17-2.41 M467.21,436.54c-2.39-9.26-6.34-11.1-9.69-11.32c-4.8,0.64-7.65,4.25-8.76,11.06 M502.68,457.71
	c6.6-13.3,3.24-18.11,0.61-20.43c-5.75-3.3-11.68,0.11-19.74,11.51 M524.25,490.14c1.52-0.87,3.28-1.89,4.83-2.88
	c11.55-7.34,10.72-11.81,9.76-15.16c-3.15-5.98-8.88-7.24-22.81-1.03 M530.83,528.17c12.82-0.03,13.99-3.46,14.43-8.27
	c0.44-4.81-3.64-8.7-14.8-11.19 M530.83,528.17c-1.4-0.98-3.54-2.19-5.25-3.24c-6.73-4.38-14.99-7.73-21.28-10.4 M520.15,545.97
	c0.22,0.09-0.78-0.39-0.56-0.3c12.57,5.26,17.5,4.1,19.83,0.24c2.33-3.86,0.64-11.26-8.6-17.75 M489.49,571.86
	c5.76,8.23,14.58,9.47,17.95,8.16c5.2-3.33,5.39-8.57,0.66-19.02 M451.84,573.39c0.54,13.62,5.59,15.07,9.11,15.88
	c5.44,0.15,8.37-4.11,10.46-12.71 M419.17,551.03c-1.87,1.96-3.49,4.59-4.64,6.55c-6.88,11.77-4.54,15.3-2.01,17.88
	c5.52,3.75,12.15,1.44,20.92-8.86 M401.47,515.58c-1.47,0.54-3.86,1.08-5.37,1.71c-12.62,5.24-12.31,9.79-11.8,13.44
	c2.11,6.11,9.01,7.52,20.88,5.27 M405.91,475.63c-0.94-0.35-3.73-1.59-4.71-1.92c-12.92-4.35-15.54-0.4-17.57,2.68
	c-2.64,6.5,2.54,11.87,15.16,18.67 M434.15,448.93c-8.51-14.57-14.96-13.26-18.35-12.06c-5.73,3.45-5.83,10.05-0.02,22.45
	 M433.5,449.65 M434.77,451.67"/>
<g id="XMLID_00000100373382052848413280000003984419745721982901_">
	<g>
		<path class="st3" d="M997.2,515.93c11.15,2.48,15.23,6.37,14.79,11.19c-0.44,4.81-1.61,8.23-14.42,8.26
			c-1.41-0.97-3.55-2.19-5.25-3.23c-6.7-4.36-14.93-7.7-21.2-10.36c6.81-0.52,15.73-2.12,25.35-5.59
			C996.73,516.1,996.96,516.02,997.2,515.93z"/>
		<path class="st3" d="M971.12,521.79c-2.09,0.17-3.98,0.22-5.64,0.2c-5.28-0.08-13.34-0.48-16.17-0.73l-0.48,2.52
			c0-0.23,8.94,4.42,14.56,7.72c5.98,3.51,14.7,11.22,22.92,21.39c0.16,0.19,0.31,0.39,0.47,0.58c8.36,10.45,6,14.89,3.94,17.75
			c-3.89,3.59-8.76,2.37-15.84-3.05c-2.09-1.58-4.37-3.53-6.89-5.84c-8.37-7.87-15.34-16.45-19.67-21.86
			c-1.58-1.98-3.36-4.69-5.69-7.7c-0.14-0.19-0.66,0.19-0.78,0c1.61,2.98,5.28,9.47,7.34,13.89c2.98,6.45,5.94,18.25,6.98,31.78
			c0.02,0.22,0.03,0.44,0.05,0.66v0.02c0.86,12.9-3.81,14.47-7.01,15.7c-5.22,0.81-8.33-2.48-11.06-11.01
			c-0.75-2.36-1.48-5.14-2.22-8.34c-2.84-11.08-3.69-23.53-4.23-30.54c-0.17-2.16-0.31-6.41-0.36-7.64l-0.8,0.02
			c-0.22,2.84-0.89,10.7-1.69,15.93c-0.97,6.47-4.56,16.65-10.34,27.35c-0.45,0.84-0.91,1.67-1.39,2.52
			c-6.59,11.62-11.48,10.39-14.9,9.51c-3.86-2.62-5.48-7.81-2.05-18.76l0.02-0.02c0.41-1.34,0.91-2.77,1.48-4.28
			c3.73-10.64,10-21.61,13.42-27.62c1.16-2.05,2.86-4.36,4.59-7.31l-2.75-0.17c-1.92,2.06-7.44,7.53-11.28,11.08
			c-4.11,3.81-10.9,8.5-19.75,12.75c-2.3,1.11-4.73,2.19-7.31,3.2c-12.4,4.94-14.79,1.7-16.92-1.11
			c-2.7-5.62,0.06-10.59,10.22-17.12h0.02c1.03-0.67,2.12-1.34,3.31-2.05c9.56-5.97,20.75-10.65,27.17-13.22
			c2.33-0.91,4.76-1.86,8.25-3.2l-0.69-1.83c-1.8,0.48-9.4,1.73-15.04,2.23c-5.95,0.52-15.9-0.09-26.7-2.39
			c-2.14-0.44-4.31-0.95-6.48-1.55c-13.15-3.56-13.45-8.03-13.53-11.5c1.08-5.8,6.05-8.12,17.32-7.45c1.64,0.11,3.44,0.27,5.36,0.5
			c11.44,1.05,23.54,4.66,30.37,6.51c2.41,0.66,4.92,1.36,8.45,2.36l0.2-0.67c-2.45-1.14-9.87-5.01-14.59-7.72
			c-6.01-3.44-14.26-10.44-22.65-20.42h-0.02c-0.2-0.25-0.42-0.5-0.62-0.75c-8.62-10.4-6.9-14.33-4.92-17.22
			c3.69-3.58,8.39-3.28,15.28,1.39c2.27,1.52,4.76,3.5,7.55,5.98c8.7,7.34,16.45,17.18,20.92,22.57c1.58,1.91,3.23,3.92,5.55,6.78
			l0.16-0.12c-0.12,0-4.89-9.48-7.8-15.23c-3.17-6.28-6.41-16.81-7.86-30.1c-1.45-13.29,1.73-15.51,4.94-16.83
			c3.8-0.72,6.95,0.41,9.67,4.19c2.06,2.84,3.86,7.17,5.5,13.36c3.16,10.83,4.41,24.39,5.17,31.28c0.27,2.52,0.52,5.53,0.87,9.33
			h1.31c-0.03-3.81,0.05-6.87,0.06-9.4c0.05-6.94-0.31-18.93,1.75-30.03c1-6.33,2.2-11.03,3.78-14.28c2.09-4.31,4.86-6.09,8.69-5.76
			c3.33,0.97,7.8,2.37,7.69,15.76c0,0.75-0.02,1.5-0.05,2.25c-0.34,12.59-2.86,24.68-5.23,30.88c-1.47,4.53-4.44,10.34-5.75,13.15
			l1.08,0.27c1.92-2.77,2.94-4.44,4.3-6.34c4.03-5.64,11.2-15.9,19.26-23.79c1.97-2.02,3.8-3.76,5.5-5.25
			c7.37-6.37,12.58-7.76,16.78-4.26c2.16,2.72,4.34,6.75-3.42,17.64c-7.78,10.89-18.14,20.42-23.98,24.34
			c-3.91,2.62-7.51,4.48-10.48,6.25l0.37,0.98c3.23-1.2,5.56-2.06,7.8-2.87c6.51-2.34,18.07-6.84,29.18-8.75
			c1.91-0.37,3.69-0.67,5.33-0.89c11.09-1.45,16.73,0.72,18.31,6.37c0.22,3.39-0.22,7.75-12.11,12.2c-0.23,0.09-0.47,0.17-0.72,0.27
			C986.85,519.66,977.93,521.27,971.12,521.79z"/>
		<path class="st3" d="M997.57,535.38c9.23,6.5,10.92,13.89,8.59,17.75c-2.33,3.87-7.26,5.03-19.82-0.23
			c-0.02-0.02-0.03-0.02-0.03-0.02c-8.22-10.17-16.93-17.87-22.92-21.39c-5.62-3.3-14.56-7.95-14.56-7.72l0.48-2.52
			c2.83,0.25,10.89,0.66,16.17,0.73c1.66,0.02,3.55-0.03,5.64-0.2c6.26,2.66,14.5,6,21.2,10.36
			C994.02,533.19,996.16,534.41,997.57,535.38z"/>
		<path class="st3" d="M1005.59,479.31c0.95,3.36,1.78,7.83-9.76,15.17c-1.56,0.98-3.31,2-4.83,2.87c-1.64,0.22-3.42,0.52-5.33,0.89
			c-11.11,1.91-22.67,6.41-29.18,8.75c-2.23,0.81-4.56,1.67-7.8,2.87l-0.37-0.98c2.97-1.77,6.58-3.62,10.48-6.25
			c5.84-3.92,16.2-13.45,23.98-24.34C996.71,472.08,1002.43,473.34,1005.59,479.31z"/>
		<path class="st3" d="M974.83,568.22c4.73,10.45,4.55,15.68-0.66,19.01c-3.36,1.31-12.17,0.08-17.95-8.14v-0.02
			c-0.02-0.22-0.03-0.44-0.05-0.66c-1.05-13.53-4-25.32-6.98-31.78c-2.06-4.42-5.73-10.9-7.34-13.89c0.12,0.19,0.64-0.19,0.78,0
			c2.33,3.02,4.11,5.72,5.69,7.7c4.33,5.41,11.29,13.98,19.67,21.86c2.52,2.31,4.8,4.26,6.89,5.84L974.83,568.22z"/>
		<path class="st3" d="M970.03,444.49c2.62,2.31,5.98,7.14-0.61,20.43c-1.7,1.48-3.53,3.23-5.5,5.25
			c-8.06,7.89-15.23,18.15-19.26,23.79c-1.36,1.91-2.37,3.58-4.3,6.34l-1.08-0.27c1.31-2.81,4.28-8.62,5.75-13.15
			c2.37-6.2,4.89-18.29,5.23-30.88h0.02C958.34,444.6,964.28,441.18,970.03,444.49z"/>
		<path class="st3" d="M935.93,575.43c0.73,3.2,1.47,5.98,2.22,8.34c-2.09,8.61-5.01,12.86-10.45,12.72
			c-3.53-0.81-8.58-2.27-9.11-15.89l-0.08-0.05c5.78-10.7,9.37-20.89,10.34-27.35c0.8-5.23,1.47-13.09,1.69-15.93l0.8-0.02
			c0.05,1.23,0.19,5.48,0.36,7.64C932.24,551.91,933.08,564.36,935.93,575.43z"/>
		<path class="st3" d="M933.94,443.76c-1.58,3.25-2.78,7.95-3.78,14.28c-2.06,11.09-1.7,23.09-1.75,30.03
			c-0.02,2.53-0.09,5.59-0.06,9.4h-1.31c-0.36-3.8-0.61-6.81-0.87-9.33c-0.77-6.89-2.02-20.45-5.17-31.28
			c-1.64-6.19-3.44-10.51-5.5-13.36c1.11-6.81,3.95-10.42,8.76-11.06C927.6,432.65,931.55,434.49,933.94,443.76z"/>
		<path class="st3" d="M916.93,534.43l2.75,0.17c-1.73,2.95-3.44,5.26-4.59,7.31c-3.42,6.01-9.69,16.98-13.42,27.62
			c-0.58,1.52-1.08,2.94-1.48,4.28l-0.02,0.02c-8.75,10.28-15.39,12.59-20.9,8.84c-2.53-2.58-4.87-6.11,2-17.87
			c1.16-1.97,2.78-4.59,4.64-6.55c8.84-4.25,15.64-8.94,19.75-12.75C909.49,541.96,915.01,536.49,916.93,534.43z"/>
		<path class="st3" d="M916.54,501.48l-0.16,0.12c-2.31-2.86-3.97-4.87-5.55-6.78c-4.47-5.39-12.22-15.23-20.92-22.57
			c-2.78-2.48-5.28-4.47-7.55-5.98c-5.67-12.22-5.51-18.76,0.17-22.18c3.39-1.2,9.83-2.52,18.34,12.06
			c1.45,13.29,4.69,23.82,7.86,30.1C911.65,492,916.41,501.48,916.54,501.48z"/>
		<path class="st3" d="M909.95,522.93l0.69,1.83c-3.48,1.34-5.92,2.3-8.25,3.2c-6.42,2.56-17.61,7.25-27.17,13.22
			c-1.19,0.7-2.28,1.37-3.31,2.05h-0.02c-11.86,2.25-18.75,0.84-20.86-5.28c-0.5-3.66-0.83-8.2,11.79-13.43
			c1.52-0.62,3.91-1.17,5.37-1.72v-0.02c10.79,2.3,20.75,2.91,26.7,2.39C900.54,524.66,908.15,523.41,909.95,522.93z"/>
		<path class="st3" d="M909.9,510.98l-0.2,0.67c-3.53-1-6.05-1.7-8.45-2.36c-6.83-1.86-18.93-5.47-30.37-6.51
			c-1.92-0.23-3.72-0.39-5.36-0.5c-12.61-6.78-17.78-12.15-15.14-18.65c2.02-3.09,4.64-7.03,17.56-2.69
			c0.98,0.33,3.73,1.55,4.7,1.91h0.02c8.39,9.98,16.64,16.98,22.65,20.42C900.03,505.96,907.45,509.84,909.9,510.98z"/>
	</g>
	<g>
		<path class="st2" d="M916.46,501.25c0.06,0.14,0.08,0.2,0.08,0.23c-0.12,0-4.89-9.48-7.8-15.23c-3.17-6.28-6.41-16.81-7.86-30.1
			c-1.45-13.29,1.73-15.51,4.94-16.83c3.8-0.72,6.95,0.41,9.67,4.19c2.06,2.84,3.86,7.17,5.5,13.36
			c3.16,10.83,4.41,24.39,5.17,31.28c0.27,2.52,0.52,5.53,0.87,9.33"/>
		<path class="st2" d="M939.28,500.04c1.31-2.81,4.28-8.62,5.75-13.15c2.37-6.2,4.89-18.29,5.23-30.88c0.03-0.75,0.05-1.5,0.05-2.25
			c0.11-13.39-4.36-14.79-7.69-15.76c-3.83-0.33-6.59,1.45-8.69,5.76c-1.58,3.25-2.78,7.95-3.78,14.28
			c-2.06,11.09-1.7,23.09-1.75,30.03c-0.02,2.53-0.09,5.59-0.06,9.4"/>
		<path class="st2" d="M982.78,478.3c7.76-10.89,5.58-14.92,3.42-17.64c-4.2-3.5-9.4-2.11-16.78,4.26c-1.7,1.48-3.53,3.23-5.5,5.25
			c-8.06,7.89-15.23,18.15-19.26,23.79c-1.36,1.91-2.37,3.58-4.3,6.34"/>
		<path class="st2" d="M948.31,508.88c2.97-1.77,6.58-3.62,10.48-6.25c5.84-3.92,16.2-13.45,23.98-24.34"/>
		<path class="st2" d="M949.31,521.26c2.83,0.25,10.89,0.66,16.17,0.73c1.66,0.02,3.55-0.03,5.64-0.2
			c6.81-0.52,15.73-2.12,25.35-5.59c0.25-0.09,0.48-0.17,0.72-0.27c11.89-4.45,12.33-8.81,12.11-12.2
			c-1.58-5.66-7.22-7.83-18.31-6.37c-1.64,0.22-3.42,0.52-5.33,0.89c-11.11,1.91-22.67,6.41-29.18,8.75
			c-2.23,0.81-4.56,1.67-7.8,2.87c-0.2,0.09-0.42,0.17-0.64,0.25"/>
		<path class="st2" d="M910.7,511.31c-0.03-0.05-0.09-0.09-0.17-0.16"/>
		<path class="st2" d="M872.66,482.84c8.39,9.98,16.64,16.98,22.65,20.42c4.72,2.7,12.14,6.58,14.59,7.72
			c0.45,0.2,0.73,0.33,0.8,0.33c0.02,0,0.02,0,0.02,0"/>
		<path class="st2" d="M916.59,501.87c-0.08-0.09-0.14-0.17-0.2-0.27c-2.31-2.86-3.97-4.87-5.55-6.78
			c-4.47-5.39-12.22-15.23-20.92-22.57c-2.78-2.48-5.28-4.47-7.55-5.98c-6.89-4.67-11.59-4.97-15.28-1.39
			c-1.98,2.89-3.7,6.81,4.92,17.22c0.2,0.25,0.42,0.5,0.62,0.75"/>
		<path class="st2" d="M941.85,532.76c0.12,0.19,0.64-0.19,0.78,0c2.33,3.02,4.11,5.72,5.69,7.7c4.33,5.41,11.29,13.98,19.67,21.86
			c2.52,2.31,4.8,4.26,6.89,5.84c7.08,5.42,11.95,6.64,15.84,3.05c2.06-2.86,4.42-7.3-3.94-17.75c-0.16-0.19-0.31-0.39-0.47-0.58
			c-8.22-10.17-16.93-17.87-22.92-21.39c-5.62-3.3-14.56-7.95-14.56-7.72c0,0.03,0.06,0.08,0.2,0.17"/>
		<path class="st2" d="M956.22,579.07c-0.02-0.22-0.03-0.44-0.05-0.66c-1.05-13.53-4-25.32-6.98-31.78
			c-2.06-4.42-5.73-10.9-7.34-13.89"/>
		<path class="st2" d="M931.33,536.91c0,0,0,0.12,0,0.34c0.05,1.23,0.19,5.48,0.36,7.64c0.55,7.01,1.39,19.47,4.23,30.54
			c0.73,3.2,1.47,5.98,2.22,8.34c2.73,8.53,5.84,11.83,11.06,11.01c3.2-1.23,7.87-2.8,7.01-15.7"/>
		<path class="st2" d="M900.17,573.83c-3.44,10.95-1.81,16.14,2.05,18.76c3.42,0.87,8.31,2.11,14.9-9.51
			c0.48-0.84,0.94-1.67,1.39-2.52c5.78-10.7,9.37-20.89,10.34-27.35c0.8-5.23,1.47-13.09,1.69-15.93"/>
		<path class="st2" d="M919.68,534.6c-1.73,2.95-3.44,5.26-4.59,7.31c-3.42,6.01-9.69,16.98-13.42,27.62
			c-0.58,1.52-1.08,2.94-1.48,4.28"/>
		<path class="st2" d="M871.89,543.22c-10.15,6.53-12.92,11.5-10.22,17.12c2.12,2.81,4.51,6.05,16.92,1.11
			c2.58-1.02,5.01-2.09,7.31-3.2c8.84-4.25,15.64-8.94,19.75-12.75c3.84-3.55,9.36-9.01,11.28-11.08c0.67-0.72,0.91-1.03,0.48-0.69"
			/>
		<path class="st2" d="M911.32,524.51c-0.17,0.06-0.36,0.14-0.56,0.2c-0.05,0.02-0.09,0.03-0.12,0.05c-3.48,1.34-5.92,2.3-8.25,3.2
			c-6.42,2.56-17.61,7.25-27.17,13.22c-1.19,0.7-2.28,1.37-3.31,2.05"/>
		<path class="st2" d="M910.07,511.76c-0.12-0.03-0.25-0.08-0.37-0.11c-3.53-1-6.05-1.7-8.45-2.36c-6.83-1.86-18.93-5.47-30.37-6.51
			c-1.92-0.23-3.72-0.39-5.36-0.5c-11.28-0.67-16.25,1.66-17.32,7.45c0.08,3.47,0.37,7.94,13.53,11.5c2.17,0.59,4.34,1.11,6.48,1.55
			c10.79,2.3,20.75,2.91,26.7,2.39c5.64-0.5,13.25-1.75,15.04-2.23c0.48-0.12,0.56-0.19,0.12-0.19"/>
		<path class="st2" d="M933.94,443.76c-2.39-9.26-6.34-11.11-9.69-11.31c-4.81,0.64-7.65,4.25-8.76,11.06"/>
		<path class="st2" d="M969.42,464.92c6.59-13.29,3.23-18.12,0.61-20.43c-5.75-3.31-11.69,0.11-19.75,11.51"/>
		<path class="st2" d="M990.99,497.36c1.52-0.87,3.27-1.89,4.83-2.87c11.54-7.34,10.72-11.81,9.76-15.17
			c-3.16-5.97-8.87-7.23-22.81-1.02"/>
		<path class="st2" d="M997.57,535.38c12.81-0.03,13.98-3.45,14.42-8.26c0.44-4.81-3.64-8.7-14.79-11.19"/>
		<path class="st2" d="M997.57,535.38c-1.41-0.97-3.55-2.19-5.25-3.23c-6.7-4.36-14.93-7.7-21.2-10.36
			c-0.03-0.02-0.05-0.02-0.08-0.03"/>
		<path class="st2" d="M986.31,552.88c0,0,0.02,0,0.03,0.02c12.56,5.26,17.5,4.11,19.82,0.23c2.33-3.86,0.64-11.25-8.59-17.75"/>
		<path class="st2" d="M986.92,553.2c0,0-0.02-0.02-0.03-0.02c-0.09-0.06-0.45-0.23-0.55-0.3"/>
		<path class="st2" d="M956.22,579.07v0.02c5.78,8.22,14.59,9.45,17.95,8.14c5.2-3.33,5.39-8.56,0.66-19.01"/>
		<path class="st2" d="M918.59,580.61c0.53,13.62,5.58,15.08,9.11,15.89c5.44,0.14,8.36-4.11,10.45-12.72"/>
		<path class="st2" d="M885.9,558.25c-1.86,1.95-3.48,4.58-4.64,6.55c-6.87,11.76-4.53,15.29-2,17.87
			c5.51,3.75,12.15,1.44,20.9-8.84l0.02-0.02"/>
		<path class="st2" d="M868.2,522.79c-1.47,0.55-3.86,1.09-5.37,1.72c-12.62,5.23-12.29,9.78-11.79,13.43
			c2.11,6.12,9,7.53,20.86,5.28h0.02"/>
		<path class="st2" d="M872.66,482.84h-0.02c-0.97-0.36-3.72-1.58-4.7-1.91c-12.92-4.34-15.54-0.41-17.56,2.69
			c-2.64,6.5,2.53,11.87,15.14,18.65c0,0.02,0.02,0.02,0.02,0.02"/>
		<path class="st2" d="M900.89,456.14c-8.51-14.58-14.95-13.26-18.34-12.06c-5.69,3.42-5.84,9.97-0.17,22.18
			c0.05,0.09,0.09,0.19,0.14,0.28"/>
	</g>
</g>
<circle class="st4" cx="929.71" cy="517.38" r="19.92"/>
</svg>
