<?xml version="1.0" encoding="utf-8"?>
<!-- Generator: Adobe Illustrator 26.3.1, SVG Export Plug-In . SVG Version: 6.00 Build 0)  -->
<svg version="1.1" id="레이어_1" xmlns="http://www.w3.org/2000/svg" xmlns:xlink="http://www.w3.org/1999/xlink" x="0px"
	 y="0px" viewBox="0 0 1280 1024" style="enable-background:new 0 0 1280 1024;" xml:space="preserve">
<style type="text/css">
	.st0{fill:url(#SVGID_1_);}
	.st1{fill:#FFFFFF;}
	.st2{fill:#B3B3B3;}
	.st3{fill:none;stroke:#000000;stroke-width:2;stroke-miterlimit:10;}
	.st4{fill:#FFEBF9;}
	.st5{fill:#FFC600;stroke:#000000;stroke-width:2;stroke-miterlimit:10;}
</style>
<linearGradient id="SVGID_1_" gradientUnits="userSpaceOnUse" x1="62.7593" y1="479.1394" x2="1212.3478" y2="479.1394">
	<stop  offset="0" style="stop-color:#ADADAD"/>
	<stop  offset="0.3761" style="stop-color:#C5AAAA"/>
	<stop  offset="1" style="stop-color:#F4A4A4"/>
</linearGradient>
<path class="st0" d="M256.63,505.82c0,29.84-11.72,54.56-35.18,74.17c-22.93,19.19-51.23,28.79-84.89,28.79
	c-19.39,0-36.07-4.28-50.03-12.83c-15.84-9.7-23.76-22.74-23.76-39.12c0-8.24,2-15.57,6-21.99c4-6.42,9.27-9.62,15.82-9.62
	c4.78,0,8.47,1.25,11.06,3.76c2.6,2.5,3.89,5.63,3.89,9.39c0,3.34-0.29,5.87-0.86,7.59c-0.58,1.72-1.54,3.36-2.9,4.93
	c-0.73,0.84-1.31,1.25-1.72,1.25c-0.31,0-0.78-0.86-1.41-2.58c-0.63-1.72-1.51-3.15-2.66-4.3c-1.56-1.67-3.5-2.5-5.79-2.5
	c-3.34,0-5.89,1.7-7.67,5.08c-1.78,3.39-2.66,7.22-2.66,11.5c0,12.73,6.36,22.64,19.09,29.73c10.85,6.05,24.1,9.08,39.74,9.08
	c27.64,0,51.06-8.55,70.26-25.66c20.34-18.05,30.51-41.31,30.51-69.79c0-9.18-1.9-17.65-5.71-25.43
	c-3.81-7.77-8.89-13.79-15.26-18.07c-4.06,5.32-9.26,9.96-15.6,13.93c-7.49,4.7-14.67,7.04-21.54,7.04c-7.6,0-13.32-1.46-17.17-4.38
	c-3.33-2.5-4.99-5.95-4.99-10.33c0-5.32,2.86-10.04,8.58-14.16c5.72-4.12,12.22-6.7,19.5-7.75c4.16-0.52,7.8-0.78,10.92-0.78
	c4.68,0,8.84,0.47,12.48,1.41c2.19-4.59,3.94-9.26,5.24-14.01c1.3-4.75,1.96-9.78,1.96-15.1c0-16.27-7.2-29.1-21.59-38.49
	c-12.73-8.34-28.06-12.52-46-12.52c-16.48,0-31.32,4.02-44.52,12.05c-13.2,8.03-20.47,17.79-21.83,29.26
	c-0.21,1.88-0.31,3.23-0.31,4.07c0,3.65,0.73,6.44,2.19,8.37c1.46,1.93,3.44,2.9,5.95,2.9c2.29,0,4.23-0.42,5.79-1.25
	c0.73-0.42,1.62-1.15,2.66-2.19c0.42-0.73,0.78-1.04,1.09-0.94c0.31,0.11,0.47,0.42,0.47,0.94c0.63,3.55-1.25,6.99-5.63,10.33
	c-3.03,2.29-6.68,3.44-10.95,3.44c-3.86,0-7.25-1.72-10.17-5.16c-3.23-3.76-4.85-8.6-4.85-14.55c0-14.91,8.24-28.16,24.72-39.74
	c17.21-12.1,37.66-18.15,61.34-18.15c22.53,0,41.47,4.38,56.8,13.14c18.25,10.43,27.38,25.56,27.38,45.38
	c0,7.2-1.31,13.87-3.91,20.03c-1.88,4.49-5.27,10.12-10.17,16.9c8.24,3.65,16.01,10.48,23.31,20.5
	C252.3,481.25,256.63,493.41,256.63,505.82z M148.5,573.79c0.21,0.21,0.37,0.51,0.47,0.92c0.11,0.31,0.16,0.57,0.16,0.77
	c0,1.13-0.94,1.69-2.83,1.69c-1.05,0.1-4.16-0.02-9.34-0.39c-5.18-0.36-8.77-0.55-10.76-0.55c-3.35,0-8.37,0.26-15.07,0.78
	c-2.51,0.21-4.29,0.26-5.34,0.16c-1.78,0-2.67-0.63-2.67-1.88c0-0.52,0.16-0.94,0.47-1.25c0.31-0.42,2.55-2.24,6.73-5.48
	c3.23-2.5,4.85-4.75,4.85-6.73V417.88c0-3.23-0.99-5.53-2.97-6.89c-2.4-0.94-4.04-1.64-4.93-2.11c-0.89-0.47-1.33-1.02-1.33-1.64
	c0-0.63,0.47-1.15,1.41-1.57c0.84-0.73,2.46-1.77,4.87-3.13c7.64-4.28,12.2-6.89,13.66-7.82c2.51-1.56,6.7-4.43,12.56-8.61
	c4.29-3.13,7.12-4.85,8.48-5.16c1.15-0.52,1.73-0.21,1.73,0.94c0,0.31-0.16,0.73-0.48,1.25c-3.91,6.47-6.66,12.74-8.25,18.79
	c-1.91,7.41-2.86,15.45-2.86,24.12v135.93c0,1.99,1.59,4.18,4.75,6.58C146.07,571.74,148.29,573.48,148.5,573.79z M199.67,453.87
	c-4.07-1.35-8.66-2.03-13.77-2.03c-1.67,0-3.76,0.13-6.26,0.39c-2.5,0.26-5.48,1.28-8.92,3.05c-4.28,2.3-6.42,5.06-6.42,8.29
	c0,2.92,1.62,4.9,4.85,5.95c1.88,0.63,3.7,0.94,5.48,0.94c4.69,0,9.47-1.64,14.32-4.93C193.8,462.24,197.38,458.36,199.67,453.87z
	 M338.62,572.24c1.25,1.23,1.88,2.26,1.88,3.08c0,1.23-1.15,1.85-3.44,1.85c-1.88,0-3.44-0.06-4.7-0.18
	c-6.47-0.61-10.74-0.91-12.83-0.91c-3.75,0-6.81,0.12-9.15,0.37s-5.03,0.49-8.06,0.73c-2.5,0-3.75-0.64-3.75-1.91
	c0-0.63,0.52-1.59,1.56-2.86c2.61-2.12,4.54-3.76,5.79-4.93c2.4-2.08,3.6-4.01,3.6-5.78V394.4c0-3.02-0.1-5.42-0.31-7.19
	c-0.21-1.77-1.46-2.5-3.75-2.19c-1.15,0.21-3.08,1.23-5.79,3.05c-2.71,1.83-4.54,2.9-5.48,3.21c-1.56,0.52-2.35-0.05-2.35-1.73
	c0-0.52,0.31-1.25,0.94-2.2c0.63-0.94,3.49-3.87,8.61-8.8c4.07-3.98,7.3-7.17,9.7-9.58c3.54-3.56,7.4-7.8,11.58-12.72
	c2.92-3.45,4.8-5.49,5.63-6.12c0.21-0.21,0.52-0.37,0.94-0.47c0.31-0.1,0.57-0.16,0.78-0.16c0.94,0,1.41,0.84,1.41,2.51
	c-0.52,3.35-0.97,7.5-1.33,12.46c-0.37,4.96-0.55,10.21-0.55,15.75v181.77c0,1.67,1.1,3.5,3.29,5.48
	C334.71,569.11,336.64,570.7,338.62,572.24z M665.02,526.79c0,16.48-7.15,29.99-21.44,40.53c-13.35,9.91-29.26,14.86-47.72,14.86
	c-15.65,0-28.63-2.56-38.96-7.67c-12.62-6.26-18.93-15.49-18.93-27.7c0-9.28,3.42-17.13,10.25-23.55
	c6.83-6.42,14.99-9.62,24.49-9.62c9.8,0,17.78,1.78,23.94,5.32c6.99,4.07,10.48,9.81,10.48,17.21c0,4.69-1.7,8.79-5.08,12.28
	c-3.39,3.5-7.43,5.24-12.13,5.24c-4.49,0-7.72-0.83-9.7-2.5c-0.52-0.52-0.78-0.94-0.78-1.25c0-0.73,0.68-1.25,2.03-1.56
	c1.77-0.63,3.26-1.72,4.46-3.29c1.2-1.56,1.8-4.01,1.8-7.35c0-3.02-1.62-5.5-4.85-7.43c-3.23-1.93-6.73-2.9-10.48-2.9
	c-7.41,0-13.64,1.78-18.7,5.32c-5.06,3.55-7.59,8.45-7.59,14.71c0,8.76,5.58,15.55,16.74,20.34c9.28,3.97,20.29,5.95,33.02,5.95
	c13.25,0,24.83-2.97,34.74-8.92c11.68-6.99,17.53-16.43,17.53-28.32c0-11.89-4.28-20.7-12.83-26.44
	c-5.32-3.55-15.44-7.14-30.36-10.8c-8.55-1.88-17.05-3.81-25.5-5.79c-9.6-2.61-16.64-6-21.12-10.17
	c-5.84-5.42-8.76-13.04-8.76-22.84c0-11.16,5.89-20.39,17.68-27.7c10.85-6.78,23.31-10.17,37.4-10.17c12.73,0,23,1.62,30.82,4.85
	c10.33,4.28,15.49,10.9,15.49,19.87c0,5.74-2.77,10.48-8.29,14.24c-5.11,3.44-11.01,5.16-17.68,5.16c-6.36,0-11.68-1.2-15.96-3.6
	c-5.22-2.92-7.82-7.09-7.82-12.52c0-2.82,0.96-5.29,2.89-7.43c1.93-2.14,4.09-3.57,6.49-4.3c1.04-0.21,1.62-0.31,1.72-0.31
	c0.73,0,1.09,0.52,1.09,1.56l-0.31,3.13c0,2.29,0.73,4.17,2.19,5.63c1.88,1.88,4.9,2.82,9.07,2.82c2.71,0,5.06-0.94,7.04-2.82
	c1.98-1.88,2.97-4.07,2.97-6.57c0-4.69-3.39-8.03-10.17-10.01c-5.01-1.46-11.53-2.19-19.56-2.19c-10.01,0-19.04,2.24-27.07,6.73
	c-8.87,5.01-13.3,11.21-13.3,18.62c0,6.68,2.92,11.89,8.76,15.65c3.65,2.4,15.33,5.84,35.05,10.33c12.2,2.82,21.59,5.53,28.16,8.14
	c9.18,3.65,16.06,8.14,20.66,13.46C662.3,509.26,665.02,517.19,665.02,526.79z M820.86,526.79c0,16.48-7.15,29.99-21.44,40.53
	c-13.36,9.91-29.26,14.86-47.73,14.86c-15.65,0-28.63-2.56-38.96-7.67c-12.62-6.26-18.93-15.49-18.93-27.7
	c0-9.28,3.41-17.13,10.25-23.55c6.83-6.42,15-9.62,24.49-9.62c9.81,0,17.78,1.78,23.94,5.32c6.99,4.07,10.48,9.81,10.48,17.21
	c0,4.69-1.7,8.79-5.08,12.28c-3.39,3.5-7.43,5.24-12.13,5.24c-4.49,0-7.72-0.83-9.7-2.5c-0.52-0.52-0.78-0.94-0.78-1.25
	c0-0.73,0.68-1.25,2.03-1.56c1.77-0.63,3.26-1.72,4.46-3.29c1.2-1.56,1.8-4.01,1.8-7.35c0-3.02-1.62-5.5-4.85-7.43
	c-3.23-1.93-6.73-2.9-10.48-2.9c-7.41,0-13.64,1.78-18.7,5.32c-5.06,3.55-7.59,8.45-7.59,14.71c0,8.76,5.58,15.55,16.74,20.34
	c9.28,3.97,20.29,5.95,33.01,5.95c13.25,0,24.83-2.97,34.74-8.92c11.68-6.99,17.52-16.43,17.52-28.32c0-11.89-4.28-20.7-12.83-26.44
	c-5.32-3.55-15.44-7.14-30.35-10.8c-8.55-1.88-17.06-3.81-25.51-5.79c-9.6-2.61-16.64-6-21.12-10.17
	c-5.84-5.42-8.76-13.04-8.76-22.84c0-11.16,5.89-20.39,17.68-27.7c10.85-6.78,23.31-10.17,37.4-10.17c12.73,0,23,1.62,30.82,4.85
	c10.33,4.28,15.49,10.9,15.49,19.87c0,5.74-2.76,10.48-8.29,14.24c-5.11,3.44-11.01,5.16-17.68,5.16c-6.37,0-11.68-1.2-15.96-3.6
	c-5.22-2.92-7.82-7.09-7.82-12.52c0-2.82,0.96-5.29,2.9-7.43c1.93-2.14,4.09-3.57,6.49-4.3c1.04-0.21,1.62-0.31,1.72-0.31
	c0.73,0,1.09,0.52,1.09,1.56l-0.31,3.13c0,2.29,0.73,4.17,2.19,5.63c1.88,1.88,4.9,2.82,9.08,2.82c2.71,0,5.06-0.94,7.04-2.82
	c1.98-1.88,2.97-4.07,2.97-6.57c0-4.69-3.39-8.03-10.17-10.01c-5.01-1.46-11.53-2.19-19.56-2.19c-10.01,0-19.04,2.24-27.07,6.73
	c-8.87,5.01-13.3,11.21-13.3,18.62c0,6.68,2.92,11.89,8.76,15.65c3.65,2.4,15.33,5.84,35.05,10.33c12.21,2.82,21.59,5.53,28.17,8.14
	c9.18,3.65,16.06,8.14,20.65,13.46C818.15,509.26,820.86,517.19,820.86,526.79z M1212.35,480.53c0,13.68-3.5,28.25-10.48,43.7
	c-6.57,14.51-15.39,28.04-26.44,40.57c0.31,0,0.86,0.03,1.64,0.08c0.78,0.05,1.85,0.08,3.21,0.08c3.23,0,6.31-0.18,9.23-0.55
	c2.92-0.36,5.79-1.54,8.61-3.52c1.67-1.36,3.39-2.76,5.16-4.23c0.62-0.62,1.25-0.73,1.88-0.31c0.52,0.42,0.73,1.15,0.63,2.19
	c-0.31,2.09-0.6,4.15-0.86,6.18c-0.26,2.03-0.39,3.52-0.39,4.46c0,2.29,0.08,4.2,0.23,5.71c0.16,1.51,0.39,3.26,0.71,5.24
	c0.21,1.77-0.16,2.66-1.1,2.66c-0.73,0-1.51-0.37-2.35-1.09c-1.98-1.36-4.17-2.45-6.57-3.29c-2.4-0.84-4.61-1.41-6.65-1.72
	c-2.03-0.31-5.3-0.47-9.78-0.47c-3.03,0-5.42,0.04-7.2,0.12c-1.77,0.08-4.12,0.31-7.04,0.7c-0.42,0.08-0.78,0.12-1.09,0.12
	c-0.52,0-0.89,0-1.1,0c-1.98,0-2.97-0.68-2.97-2.03c0-0.63,0.36-1.56,1.09-2.81c5.21-8.02,9.75-15.68,13.61-22.97
	c5.11-9.58,9.02-18.44,11.74-26.57c3.34-10,5.01-19.01,5.01-27.04c0-17.09-2.45-30.37-7.35-39.86
	c-5.84-11.15-14.97-16.72-27.38-16.72c-5.11,0-9.96,1.02-14.55,3.05s-8.71,5.19-12.36,9.47c1.88,5.11,3.23,11.32,4.07,18.62
	c0.83,7.3,1.25,15.08,1.25,23.31c0,10.22-2.4,22.17-7.2,35.83c-3.76,10.74-8.45,21.28-14.08,31.61c-4.59,8.45-7.82,13.61-9.7,15.49
	c-0.31,0.42-0.99,0.63-2.03,0.63c-1.67,0-2.66-0.31-2.97-0.94c-0.31-0.41-0.37-0.99-0.16-1.72c0.62-1.46,0.99-2.35,1.09-2.66
	c9.18-18.98,13.77-44.23,13.77-75.73c0-15.23-2.92-28.17-8.76-38.8c-6.37-11.48-14.61-17.21-24.72-17.21
	c-6.89,0-13.35,2.87-19.4,8.6c-5.11,4.8-8.87,10.48-11.27,17.06v95.93c0,1.77,1.2,3.64,3.6,5.62c1.88,1.59,3.81,3.18,5.79,4.77
	c1.25,1.27,1.88,2.33,1.88,3.18c0,1.27-1.15,1.91-3.44,1.91c-1.15,0-4.17-0.16-9.07-0.47c-4.9-0.31-7.82-0.47-8.76-0.47
	c-3.76,0-6.81,0.11-9.15,0.31c-2.35,0.21-5.03,0.42-8.06,0.63c-2.4,0-3.6-0.58-3.6-1.75c0-0.85,0.57-1.85,1.72-3.02
	c2.5-2.12,4.38-3.76,5.63-4.93c2.29-2.08,3.44-4.01,3.44-5.78v-92.53c0-8.85-2.77-16.05-8.29-21.57c-2.09-2.08-6.1-4.8-12.05-8.13
	c-0.84-0.52-1.25-1.14-1.25-1.88c0-0.52,0.31-1.04,0.94-1.56c1.67-1.25,4.07-3.44,7.2-6.56c1.56-1.56,2.76-2.81,3.6-3.75
	c0.83-0.94,1.59-1.8,2.27-2.58c0.68-0.78,1.27-1.17,1.8-1.17c0.52,0,1.09,0.31,1.72,0.94c3.96,3.44,7.93,7.77,11.89,12.99
	c5.53,7.2,8.76,13.41,9.7,18.62c3.65-7.61,7.82-13.87,12.52-18.78c8.34-8.76,17.94-13.14,28.79-13.14c8.97,0,16.95,2.5,23.94,7.51
	c4.8,3.44,9.55,8.45,14.24,15.02c4.17-6.26,8.92-11.32,14.24-15.18c6.78-4.9,14.03-7.35,21.75-7.35c17.94,0,31.35,6.95,40.21,20.83
	C1209.06,453.75,1212.35,466.12,1212.35,480.53z"/>
<g id="XMLID_00000127018470066524198510000004563961441315541160_">
	<g>
		<path class="st1" d="M510.99,502.62c11.44,2.56,15.62,6.54,15.17,11.48c-0.45,4.93-1.65,8.44-14.8,8.48
			c-1.43-1.01-3.63-2.25-5.37-3.32c-6.87-4.47-15.3-7.89-21.74-10.63c6.97-0.54,16.12-2.17,26-5.74c0.25-0.09,0.49-0.19,0.73-0.27
			H510.99z"/>
		<path class="st1" d="M484.24,508.62c-2.15,0.17-4.1,0.23-5.79,0.21c-5.41-0.08-13.69-0.49-16.58-0.74l-0.08-0.01
			c0.26-1.29,0.39-2.62,0.39-3.98c0-2.65-0.5-5.18-1.43-7.51c3.55-1.34,6.07-2.26,8.47-3.14c6.69-2.41,18.54-7.02,29.93-8.98
			c1.94-0.38,3.77-0.69,5.46-0.91c11.37-1.5,17.16,0.73,18.78,6.53c0.23,3.47-0.22,7.95-12.41,12.51h-0.01
			c-0.24,0.09-0.48,0.19-0.73,0.27C500.37,506.45,491.21,508.09,484.24,508.62z"/>
		<path class="st1" d="M511.36,522.57c9.48,6.65,11.21,14.25,8.83,18.2c-2.39,3.97-7.45,5.16-20.34-0.24h-0.01
			c-8.43-10.43-17.39-18.35-23.52-21.96c-5.77-3.38-14.93-8.15-14.93-7.91l-0.24-0.08c0.27-0.82,0.49-1.66,0.66-2.51l0.08,0.01
			c2.89,0.25,11.18,0.67,16.58,0.74c1.69,0.02,3.64-0.03,5.79-0.21c6.43,2.74,14.87,6.16,21.74,10.63
			C507.73,520.32,509.93,521.57,511.36,522.57z"/>
		<path class="st1" d="M519.58,465.07c0.97,3.43,1.82,8.02-10.02,15.55c-1.59,1.02-3.4,2.05-4.95,2.95v0.01
			c-1.69,0.22-3.52,0.52-5.46,0.91c-11.39,1.96-23.25,6.57-29.93,8.98c-2.39,0.87-4.92,1.79-8.47,3.14
			c-0.12-0.33-0.26-0.66-0.42-0.97l0.5-0.23c3.05-1.8,6.75-3.73,10.76-6.41c5.99-4.02,16.62-13.8,24.59-24.96
			C510.47,457.65,516.35,458.94,519.58,465.07z"/>
		<path class="st1" d="M461.38,510.67c0-0.24,9.17,4.53,14.93,7.91c6.13,3.61,15.09,11.53,23.52,21.96
			c-0.04-0.02-0.02-0.01,0.02,0.02c0.15,0.19,0.31,0.36,0.45,0.55c8.56,10.72,6.15,15.28,4.03,18.21c-4,3.68-8.99,2.43-16.26-3.11
			c-2.14-1.64-4.49-3.65-7.06-6.01c-8.6-8.07-15.74-16.87-20.18-22.42c-1.62-2.02-3.44-4.81-5.83-7.9
			c-0.04-0.05-0.13-0.07-0.23-0.03c2.91-2.4,5.13-5.6,6.36-9.25L461.38,510.67z"/>
		<path class="st1" d="M499.7,445.94c2.21,2.77,4.46,6.92-3.51,18.08c-7.97,11.16-18.6,20.94-24.59,24.96
			c-4.01,2.69-7.71,4.61-10.76,6.41l-0.5,0.23c-1.66-3.65-4.38-6.73-7.76-8.85l0.11-0.17c1.97-2.84,3.02-4.56,4.41-6.51
			c4.13-5.79,11.48-16.31,19.74-24.4c2.01-2.06,3.89-3.87,5.64-5.37C490.04,443.77,495.4,442.35,499.7,445.94z"/>
		<path class="st1" d="M488.04,556.24c4.85,10.72,4.65,16.09-0.68,19.51c-3.45,1.34-12.51,0.07-18.41-8.37
			c-0.01-0.22-0.02-0.45-0.04-0.68c-1.09-13.86-4.12-25.97-7.18-32.59c-2.04-4.41-5.65-10.78-7.37-13.96
			c0.14-0.1,0.28-0.21,0.42-0.32c0.1-0.03,0.19-0.02,0.23,0.03c2.39,3.09,4.22,5.88,5.83,7.9c4.44,5.55,11.58,14.34,20.18,22.42
			c2.57,2.36,4.92,4.37,7.06,6.01L488.04,556.24z"/>
		<path class="st1" d="M483.11,429.35c2.7,2.38,6.15,7.32-0.62,20.96c-1.75,1.51-3.63,3.31-5.64,5.37
			c-8.26,8.09-15.61,18.62-19.74,24.4c-1.4,1.96-2.45,3.67-4.41,6.51l-0.11,0.17c-0.32-0.19-0.63-0.37-0.95-0.55
			c1.37-2.92,4.36-8.81,5.84-13.4c2.45-6.35,5.03-18.76,5.39-31.67C471.12,429.45,477.22,425.96,483.11,429.35z"/>
		<path class="st1" d="M468.96,567.39c0.87,13.25-3.92,14.87-7.2,16.11c-5.35,0.84-8.54-2.53-11.34-11.28v-0.01
			c-0.79-2.43-1.53-5.28-2.28-8.55c-2.93-11.35-3.78-24.13-4.34-31.32c-0.17-2.25-0.33-6.67-0.36-7.88
			c4.11-0.33,7.88-1.88,10.92-4.29c1.73,3.18,5.33,9.55,7.37,13.96c3.06,6.62,6.08,18.72,7.18,32.59
			C468.94,566.94,468.95,567.17,468.96,567.39z"/>
		<path class="st1" d="M455.01,422.68c3.41,1.01,8,2.45,7.9,16.17c-0.01,0.76-0.02,1.54-0.04,2.31
			c-0.36,12.91-2.94,25.32-5.39,31.67c-1.49,4.6-4.48,10.49-5.84,13.4c-2.93-1.63-6.29-2.55-9.88-2.55c-0.47,0-0.94,0.01-1.4,0.05
			v-0.05c-0.02-3.91,0.05-7.06,0.08-9.65c0.05-7.11-0.32-19.42,1.79-30.78c1.03-6.5,2.25-11.32,3.88-14.65
			C448.25,424.17,451.08,422.35,455.01,422.68z"/>
		<path class="st2" d="M422.71,511.5c-0.24-0.62-0.45-1.26-0.62-1.9c-0.49-1.75-0.75-3.59-0.75-5.49c0-1.94,0.27-3.83,0.79-5.62
			c0.05-0.2,0.11-0.4,0.17-0.6c1.18-3.69,3.39-6.93,6.28-9.37c2.91-2.46,6.51-4.12,10.47-4.64c0.44-0.07,0.87-0.11,1.32-0.13
			c0.46-0.04,0.93-0.05,1.4-0.05c3.58,0,6.95,0.92,9.88,2.55c0.32,0.17,0.63,0.36,0.95,0.55c3.38,2.12,6.1,5.2,7.76,8.85
			c0.15,0.32,0.29,0.64,0.42,0.97c0.93,2.33,1.43,4.85,1.43,7.51c0,1.35-0.13,2.69-0.39,3.98c-0.16,0.85-0.38,1.69-0.66,2.51
			c-1.22,3.65-3.45,6.85-6.36,9.25c-0.21,0.03-0.48,0.16-0.57,0.03c0.04,0.09,0.1,0.19,0.15,0.28c-3.05,2.41-6.82,3.97-10.92,4.29
			c-0.27,0.03-0.55,0.04-0.83,0.05c-0.28,0.01-0.57,0.02-0.85,0.02c-3.75,0-7.26-1.01-10.28-2.79c-0.67-0.38-1.31-0.81-1.92-1.27
			C426.51,518.2,424.12,515.1,422.71,511.5z"/>
		<path class="st2" d="M454.78,519.84c-0.13,0.11-0.27,0.22-0.42,0.32c-0.05-0.1-0.11-0.2-0.15-0.28
			C454.3,520.01,454.57,519.88,454.78,519.84z"/>
		<path class="st1" d="M450.42,572.2v0.01c-2.15,8.82-5.15,13.19-10.73,13.03c-3.62-0.84-8.79-2.33-9.34-16.3l-0.08-0.04
			c5.93-10.99,9.6-21.42,10.61-28.05c0.81-5.36,1.51-13.43,1.73-16.34c0.28-0.01,0.56-0.02,0.83-0.05c0.03,1.2,0.19,5.63,0.36,7.88
			c0.56,7.19,1.41,19.97,4.34,31.32C448.89,566.93,449.63,569.78,450.42,572.2z"/>
		<path class="st1" d="M411.47,562c0.44-1.38,0.95-2.85,1.54-4.41c3.82-10.91,10.25-22.14,13.75-28.32c1.2-2.11,2.93-4.47,4.71-7.51
			l0.01-0.02c3.02,1.78,6.53,2.79,10.28,2.79c0.28,0,0.57-0.01,0.85-0.02c-0.22,2.92-0.92,10.98-1.73,16.34
			c-1.01,6.63-4.68,17.06-10.61,28.05c-0.45,0.86-0.93,1.73-1.42,2.59c-6.76,11.92-11.79,10.64-15.29,9.76
			C409.61,578.55,407.95,573.24,411.47,562z"/>
		<path class="st1" d="M446.11,428.6c-1.63,3.33-2.85,8.15-3.88,14.65c-2.11,11.36-1.74,23.67-1.79,30.78
			c-0.02,2.59-0.1,5.74-0.08,9.65v0.05c-0.45,0.02-0.88,0.07-1.32,0.13l-0.02-0.19c-0.37-3.89-0.61-6.99-0.9-9.57
			c-0.78-7.07-2.05-20.97-5.31-32.07c-1.68-6.35-3.53-10.79-5.63-13.7c1.14-6.99,4.05-10.69,8.98-11.35
			C439.61,417.21,443.65,419.1,446.11,428.6z"/>
		<path class="st1" d="M428.26,487.8c-0.13,0-5-9.72-8-15.63c-3.26-6.43-6.57-17.23-8.06-30.86c-1.49-13.64,1.78-15.92,5.07-17.27
			c3.89-0.72,7.12,0.43,9.92,4.3c2.1,2.91,3.94,7.35,5.63,13.7c3.26,11.1,4.53,25.01,5.31,32.07c0.28,2.58,0.52,5.68,0.9,9.57
			l0.02,0.19c-3.95,0.52-7.56,2.18-10.47,4.64l-0.27-0.32c-0.08-0.09-0.14-0.17-0.21-0.26L428.26,487.8z"/>
		<path class="st1" d="M431.48,521.74l-0.01,0.02c-1.78,3.04-3.51,5.4-4.71,7.51c-3.51,6.17-9.93,17.4-13.75,28.32
			c-0.59,1.56-1.1,3.04-1.54,4.41c-8.98,10.54-15.79,12.91-21.44,9.07c-2.59-2.64-4.99-6.27,2.06-18.33
			c1.18-2.01,2.84-4.71,4.75-6.72c9.06-4.35,16.04-9.17,20.24-13.07c4.94-4.56,12.57-12.21,12.28-12.21l0.2-0.26
			C430.17,520.94,430.81,521.36,431.48,521.74z"/>
		<path class="st1" d="M429.36,520.74c0.29,0-7.34,7.66-12.28,12.21c-4.21,3.9-11.19,8.72-20.24,13.07
			c-2.36,1.14-4.86,2.24-7.49,3.29c-12.73,5.07-15.18,1.75-17.36-1.14c-2.77-5.78,0.08-10.86,10.5-17.57
			c1.06-0.68,2.18-1.38,3.4-2.09c9.81-6.13,21.27-10.92,27.87-13.56c2.4-0.95,4.94-1.93,8.59-3.33c0.13-0.04,0.25-0.1,0.37-0.13
			c1.41,3.61,3.8,6.71,6.85,8.98L429.36,520.74z"/>
		<path class="st1" d="M422.28,497.89c0,0.22-9.94-4.91-15.8-8.26c-6.18-3.52-14.62-10.68-23.24-20.93
			c-0.22-0.26-0.44-0.52-0.66-0.79c-8.85-10.66-7.08-14.69-5.06-17.65c3.79-3.66,8.62-3.35,15.7,1.42c2.32,1.56,4.88,3.61,7.72,6.14
			c8.91,7.55,16.87,17.64,21.46,23.16c1.63,1.97,3.31,4.03,5.68,6.96c0.07,0.09,0.13,0.17,0.21,0.26l0.27,0.32
			c-2.89,2.45-5.1,5.68-6.28,9.37H422.28z"/>
		<path class="st1" d="M428.26,487.8l-0.16,0.13c-2.37-2.93-4.05-4.99-5.68-6.96c-4.59-5.52-12.54-15.61-21.46-23.16
			c-2.84-2.53-5.41-4.58-7.72-6.14c-5.82-12.53-5.68-19.23,0.15-22.73c3.47-1.25,10.09-2.59,18.81,12.37
			c1.5,13.63,4.81,24.43,8.06,30.86C423.25,478.08,428.12,487.8,428.26,487.8z"/>
		<path class="st1" d="M422.71,511.5c-0.12,0.03-0.24,0.09-0.37,0.13c-3.65,1.4-6.18,2.38-8.59,3.33
			c-6.6,2.63-18.06,7.43-27.87,13.56c-1.21,0.71-2.34,1.41-3.4,2.09c-12.18,2.32-19.25,0.87-21.41-5.4
			c-0.51-3.76-0.84-8.42,12.1-13.79c1.55-0.64,4-1.2,5.51-1.76v-0.01c11.07,2.35,21.28,2.97,27.38,2.44
			c6.63-0.59,15.85-2.17,15.85-2.44l0.17-0.05C422.26,510.24,422.47,510.87,422.71,511.5z"/>
		<path class="st1" d="M422.28,497.89h0.01c-0.07,0.2-0.12,0.4-0.17,0.6l-0.5-0.14c-3.82-1.09-6.5-1.85-9.05-2.53
			c-7-1.9-19.42-5.6-31.15-6.69c-1.98-0.24-3.8-0.4-5.49-0.5c-12.95-6.98-18.23-12.48-15.53-19.14c2.08-3.17,4.76-7.21,18.01-2.75
			c1.01,0.34,3.87,1.61,4.84,1.97c8.62,10.25,17.05,17.41,23.24,20.93C412.34,492.98,422.28,498.1,422.28,497.89z"/>
		<path class="st1" d="M421.91,509.65c0,0.26-9.22,1.85-15.85,2.44c-6.1,0.54-16.31-0.09-27.38-2.44c-2.18-0.46-4.41-0.99-6.64-1.59
			c-13.5-3.66-13.8-8.24-13.88-11.8c1.1-5.93,6.21-8.34,17.77-7.64c1.69,0.1,3.52,0.26,5.49,0.5c11.72,1.08,24.14,4.78,31.15,6.69
			c2.55,0.69,5.22,1.44,9.05,2.53l0.5,0.14c-0.51,1.78-0.79,3.67-0.79,5.62c0,1.9,0.26,3.75,0.75,5.49L421.91,509.65z"/>
	</g>
	<g>
		<path class="st3" d="M460.76,496.6c0.93,2.33,1.43,4.85,1.43,7.51c0,1.35-0.13,2.69-0.39,3.98c-0.16,0.85-0.38,1.69-0.66,2.51
			c-1.22,3.65-3.45,6.85-6.36,9.25c-0.13,0.11-0.27,0.22-0.42,0.32c-3.05,2.41-6.82,3.97-10.92,4.29c-0.27,0.03-0.55,0.04-0.83,0.05
			c-0.28,0.01-0.57,0.02-0.85,0.02c-3.75,0-7.26-1.01-10.28-2.79c-0.67-0.38-1.31-0.81-1.92-1.27c-3.05-2.27-5.44-5.37-6.85-8.98
			c-0.24-0.62-0.45-1.26-0.62-1.9c-0.49-1.75-0.75-3.59-0.75-5.49c0-1.94,0.27-3.83,0.79-5.62c0.05-0.2,0.11-0.4,0.17-0.6
			c1.18-3.69,3.39-6.93,6.28-9.37c2.91-2.46,6.51-4.12,10.47-4.64c0.44-0.07,0.87-0.11,1.32-0.13c0.46-0.04,0.93-0.05,1.4-0.05
			c3.58,0,6.95,0.92,9.88,2.55c0.32,0.17,0.63,0.36,0.95,0.55c3.38,2.12,6.1,5.2,7.76,8.85
			C460.49,495.94,460.64,496.27,460.76,496.6z"/>
		<path class="st3" d="M428.18,487.56c0.07,0.16,0.09,0.24,0.08,0.24c-0.13,0-5-9.72-8-15.63c-3.26-6.43-6.57-17.23-8.06-30.86
			c-1.49-13.64,1.78-15.92,5.07-17.27c3.89-0.72,7.12,0.43,9.92,4.3c2.1,2.91,3.94,7.35,5.63,13.7c3.26,11.1,4.53,25.01,5.31,32.07
			c0.28,2.58,0.52,5.68,0.9,9.57"/>
		<path class="st3" d="M451.59,486.33c0.01-0.03,0.03-0.07,0.04-0.1c1.37-2.92,4.36-8.81,5.84-13.4c2.45-6.35,5.03-18.76,5.39-31.67
			c0.02-0.76,0.03-1.54,0.04-2.31c0.1-13.72-4.49-15.16-7.9-16.17c-3.93-0.33-6.76,1.49-8.9,5.92c-1.63,3.33-2.85,8.15-3.88,14.65
			c-2.11,11.36-1.74,23.67-1.79,30.78c-0.02,2.59-0.1,5.74-0.08,9.65"/>
		<path class="st3" d="M496.19,464.02c7.96-11.16,5.71-15.3,3.51-18.08c-4.3-3.59-9.66-2.17-17.22,4.37
			c-1.75,1.51-3.63,3.31-5.64,5.37c-8.26,8.09-15.61,18.62-19.74,24.4c-1.4,1.96-2.45,3.67-4.41,6.51"/>
		<path class="st3" d="M460.84,495.39c3.05-1.8,6.75-3.73,10.76-6.41c5.99-4.02,16.62-13.8,24.59-24.96"/>
		<path class="st3" d="M510.99,502.62c12.19-4.56,12.64-9.03,12.41-12.51c-1.62-5.8-7.41-8.03-18.78-6.53
			c-1.69,0.22-3.52,0.52-5.46,0.91c-11.39,1.96-23.25,6.57-29.93,8.98c-2.39,0.87-4.92,1.79-8.47,3.14
			c-0.05,0.02-0.12,0.04-0.19,0.07"/>
		<path class="st3" d="M461.87,508.09c2.89,0.25,11.18,0.67,16.58,0.74c1.69,0.02,3.64-0.03,5.79-0.21c6.97-0.54,16.12-2.17,26-5.74
			c0.25-0.09,0.49-0.19,0.73-0.27"/>
		<path class="st3" d="M428.3,488.2c-0.08-0.09-0.14-0.17-0.21-0.26c-2.37-2.93-4.05-4.99-5.68-6.96
			c-4.59-5.52-12.54-15.61-21.46-23.16c-2.84-2.53-5.41-4.58-7.72-6.14c-7.08-4.77-11.91-5.08-15.7-1.42
			c-2.02,2.96-3.79,6.99,5.06,17.65c0.22,0.26,0.44,0.52,0.66,0.79c8.62,10.25,17.05,17.41,23.24,20.93
			c5.86,3.35,15.8,8.48,15.8,8.26c0-0.02-0.07-0.08-0.2-0.16"/>
		<path class="st3" d="M499.83,540.53c-8.43-10.43-17.39-18.35-23.52-21.96c-5.77-3.38-14.93-8.15-14.93-7.91
			c0,0.02,0.07,0.08,0.21,0.17"/>
		<path class="st3" d="M454.21,519.88c0.09,0.13,0.36,0,0.57-0.03c0.1-0.03,0.19-0.02,0.23,0.03c2.39,3.09,4.22,5.88,5.83,7.9
			c4.44,5.55,11.58,14.34,20.18,22.42c2.57,2.36,4.92,4.37,7.06,6.01c7.26,5.54,12.26,6.79,16.26,3.11
			c2.12-2.93,4.53-7.49-4.03-18.21c-0.14-0.19-0.29-0.36-0.45-0.55c0-0.01,0-0.01-0.01-0.02"/>
		<path class="st3" d="M450.42,572.21c2.8,8.75,5.99,12.13,11.34,11.28c3.28-1.25,8.07-2.86,7.2-16.11
			c-0.01-0.22-0.02-0.45-0.04-0.68c-1.09-13.86-4.12-25.97-7.18-32.59c-2.04-4.41-5.65-10.78-7.37-13.96
			c-0.05-0.1-0.11-0.2-0.15-0.28"/>
		<path class="st3" d="M443.43,524.15c0,0,0,0.11,0.01,0.31c0.03,1.2,0.19,5.63,0.36,7.88c0.56,7.19,1.41,19.97,4.34,31.32
			c0.75,3.28,1.5,6.13,2.28,8.55"/>
		<path class="st3" d="M431.47,521.77c-1.78,3.04-3.51,5.4-4.71,7.51c-3.51,6.17-9.93,17.4-13.75,28.32
			c-0.59,1.56-1.1,3.04-1.54,4.41c-3.52,11.24-1.86,16.55,2.1,19.25c3.51,0.88,8.53,2.16,15.29-9.76c0.49-0.86,0.97-1.73,1.42-2.59
			c5.93-10.99,9.6-21.42,10.61-28.05c0.81-5.36,1.51-13.43,1.73-16.34"/>
		<path class="st3" d="M422.91,511.42c-0.07,0.02-0.14,0.04-0.21,0.08c-0.12,0.03-0.24,0.09-0.37,0.13
			c-3.65,1.4-6.18,2.38-8.59,3.33c-6.6,2.63-18.06,7.43-27.87,13.56c-1.21,0.71-2.34,1.41-3.4,2.09
			c-10.42,6.71-13.27,11.79-10.5,17.57c2.17,2.88,4.63,6.21,17.36,1.14c2.63-1.05,5.13-2.15,7.49-3.29
			c9.06-4.35,16.04-9.17,20.24-13.07c4.94-4.56,12.57-12.21,12.28-12.21c-0.02,0-0.09,0.04-0.21,0.14"/>
		<path class="st3" d="M421.61,498.34c-3.82-1.09-6.5-1.85-9.05-2.53c-7-1.9-19.42-5.6-31.15-6.69c-1.98-0.24-3.8-0.4-5.49-0.5
			c-11.57-0.7-16.67,1.7-17.77,7.64c0.09,3.56,0.38,8.14,13.88,11.8c2.23,0.6,4.46,1.14,6.64,1.59c11.07,2.35,21.28,2.97,27.38,2.44
			c6.63-0.59,15.85-2.17,15.85-2.44c0-0.02-0.1-0.03-0.29-0.03"/>
		<path class="st3" d="M446.11,428.6c-2.46-9.5-6.5-11.39-9.94-11.61c-4.93,0.66-7.84,4.36-8.98,11.35"/>
		<path class="st3" d="M482.48,450.31c6.77-13.64,3.32-18.58,0.62-20.96c-5.89-3.39-11.98,0.11-20.24,11.81"/>
		<path class="st3" d="M504.62,483.56c1.55-0.9,3.35-1.93,4.95-2.95c11.84-7.53,10.99-12.12,10.02-15.55
			c-3.23-6.13-9.11-7.42-23.39-1.05"/>
		<path class="st3" d="M511.36,522.57c13.15-0.03,14.35-3.55,14.8-8.48c0.45-4.94-3.74-8.93-15.17-11.48h-0.01"/>
		<path class="st3" d="M511.36,522.57c-1.43-1.01-3.63-2.25-5.37-3.32c-6.87-4.47-15.3-7.89-21.74-10.63
			c-0.03-0.01-0.05-0.02-0.09-0.03"/>
		<path class="st3" d="M500.44,540.84c0,0-0.01,0-0.03-0.01c-0.11-0.05-0.44-0.22-0.56-0.27c-0.04-0.03-0.07-0.04-0.02-0.02h0.01
			c12.89,5.4,17.95,4.21,20.34,0.24c2.38-3.95,0.66-11.55-8.83-18.2"/>
		<path class="st3" d="M468.96,567.39c5.9,8.43,14.96,9.71,18.41,8.37c5.33-3.42,5.53-8.79,0.68-19.51"/>
		<path class="st3" d="M430.35,568.95c0.55,13.97,5.72,15.46,9.34,16.3c5.58,0.15,8.58-4.22,10.73-13.03v-0.01"/>
		<path class="st3" d="M396.84,546.02c-1.91,2.01-3.57,4.71-4.75,6.72c-7.06,12.06-4.65,15.69-2.06,18.33
			c5.66,3.85,12.46,1.47,21.44-9.07l0.01-0.01"/>
		<path class="st3" d="M378.68,509.66c-1.51,0.56-3.95,1.11-5.51,1.76c-12.95,5.36-12.62,10.03-12.1,13.79
			c2.16,6.27,9.23,7.71,21.41,5.4"/>
		<path class="st3" d="M383.25,468.7c-0.97-0.36-3.83-1.63-4.84-1.97c-13.25-4.46-15.94-0.42-18.01,2.75
			c-2.7,6.66,2.59,12.16,15.53,19.14c0.01,0,0.01,0.01,0.02,0.01"/>
		<path class="st3" d="M412.2,441.31c-8.72-14.96-15.34-13.61-18.81-12.37c-5.83,3.51-5.98,10.2-0.15,22.73
			c0.03,0.1,0.09,0.2,0.13,0.29"/>
	</g>
</g>
<g id="XMLID_00000028296982944688585690000001738520759505405619_">
	<g>
		<path class="st4" d="M989.69,510.02c11.44,2.56,15.62,6.55,15.17,11.49c-0.45,4.92-1.65,8.44-14.8,8.48
			c-1.43-1.01-3.62-2.26-5.38-3.33c-6.86-4.47-15.3-7.88-21.74-10.62c6.99-0.53,16.13-2.18,26.02-5.74
			C989.21,510.19,989.45,510.11,989.69,510.02z"/>
		<path class="st4" d="M962.93,516.02c-2.15,0.18-4.07,0.22-5.77,0.21c-5.42-0.08-13.7-0.48-16.58-0.74l-0.5,2.58
			c0-0.24,9.16,4.53,14.93,7.92c6.12,3.59,15.08,11.49,23.49,21.92c0,0,0,0,0.02,0.02h0.02c0.16,0.19,0.3,0.38,0.46,0.58
			c8.57,10.72,6.15,15.29,4.04,18.22c-4.01,3.69-9,2.42-16.26-3.12c-2.15-1.62-4.49-3.64-7.05-5.99
			c-8.6-8.08-15.75-16.87-20.19-22.43c-1.62-2.02-3.43-4.81-5.83-7.88c-0.14-0.19-0.66,0.18-0.8,0c1.65,3.06,5.43,9.69,7.53,14.24
			c3.06,6.62,6.09,18.71,7.18,32.59c0.02,0.22,0.03,0.45,0.05,0.66c0.88,13.25-3.93,14.87-7.19,16.12
			c-5.35,0.85-8.54-2.52-11.34-11.28v-0.02c-0.79-2.42-1.54-5.27-2.29-8.56c-2.92-11.34-3.77-24.13-4.33-31.31
			c-0.18-2.23-0.32-6.57-0.37-7.84l-0.82,0.02c-0.22,2.9-0.93,10.98-1.73,16.33c-1.01,6.65-4.68,17.08-10.61,28.07
			c-0.46,0.85-0.93,1.71-1.43,2.58c-6.76,11.9-11.78,10.64-15.29,9.76c-3.97-2.69-5.62-8.01-2.1-19.26
			c0.43-1.38,0.95-2.85,1.54-4.41c3.83-10.91,10.24-22.14,13.75-28.31c1.2-2.11,2.93-4.47,4.71-7.51l-2.8-0.16
			c-1.99,2.11-7.64,7.72-11.58,11.36c-4.21,3.89-11.18,8.7-20.24,13.06c-2.36,1.14-4.87,2.24-7.5,3.28
			c-12.74,5.08-15.19,1.75-17.37-1.12c-2.77-5.78,0.08-10.86,10.51-17.58c1.06-0.67,2.18-1.36,3.4-2.08
			c9.81-6.14,21.26-10.93,27.86-13.56c2.37-0.95,4.89-1.91,8.44-3.28l-0.71-1.87c-1.84,0.48-9.63,1.76-15.43,2.28
			c-6.09,0.54-16.31-0.08-27.37-2.42c-2.2-0.48-4.42-1.01-6.65-1.62c-13.49-3.65-13.8-8.24-13.89-11.79
			c1.11-5.94,6.22-8.33,17.79-7.64c0,0.02,0.02,0.02,0.02,0.02c1.68,0.1,3.49,0.26,5.46,0.5c11.73,1.09,24.16,4.79,31.15,6.68
			c2.47,0.67,5.05,1.39,8.68,2.44l0.21-0.69c-2.5-1.19-10.14-5.16-14.98-7.92c-6.17-3.52-14.61-10.7-23.22-20.96
			c-0.22-0.26-0.45-0.51-0.66-0.77c-8.86-10.67-7.08-14.69-5.06-17.66c3.78-3.65,8.6-3.35,15.69,1.43c2.32,1.55,4.89,3.59,7.74,6.14
			c8.91,7.55,16.87,17.64,21.45,23.17c1.62,1.94,3.3,4.02,5.66,6.92l0.16-0.13c-0.4-0.58-5.06-9.87-7.98-15.61
			c-3.25-6.44-6.55-17.22-8.04-30.86c-1.51-13.65,1.78-15.93,5.06-17.27c3.88-0.72,7.11,0.42,9.92,4.29
			c2.08,2.9,3.94,7.35,5.62,13.72c3.25,11.09,4.53,25,5.3,32.06c0.29,2.58,0.53,5.69,0.9,9.57h1.35c-0.03-3.89,0.06-7.05,0.08-9.63
			c0.05-7.11-0.32-19.42,1.78-30.8c1.04-6.51,2.28-11.31,3.89-14.64c2.15-4.44,4.97-6.25,8.91-5.93c3.4,1.01,7.98,2.45,7.88,16.17
			c0,0.77-0.02,1.54-0.05,2.31c-0.35,12.91-2.93,25.33-5.38,31.68c-1.49,4.65-4.53,10.61-5.88,13.51l1.11,0.27
			c1.97-2.85,3.01-4.57,4.41-6.52c4.13-5.78,11.49-16.31,19.74-24.4c2-2.07,3.88-3.86,5.64-5.38c7.56-6.54,12.91-7.96,17.22-4.36
			c2.21,2.77,4.45,6.91-3.52,18.07c-7.96,11.17-18.59,20.96-24.58,24.96c-4.01,2.69-7.71,4.61-10.77,6.41l0.38,1.03
			c3.32-1.23,5.7-2.11,8-2.95c6.7-2.42,18.55-7.03,29.95-8.99c1.94-0.38,3.77-0.69,5.45-0.91c11.38-1.49,17.18,0.74,18.78,6.54
			c0.24,3.49-0.22,7.96-12.4,12.51c-0.24,0.1-0.48,0.18-0.74,0.27C979.07,513.85,969.92,515.5,962.93,516.02z"/>
		<path class="st4" d="M990.06,529.98c9.49,6.65,11.22,14.24,8.83,18.2c-2.4,3.96-7.45,5.14-20.35-0.26h-0.02
			c-0.02-0.02-0.02-0.02-0.02-0.02c-8.41-10.43-17.37-18.33-23.49-21.92c-5.77-3.38-14.93-8.16-14.93-7.92l0.5-2.58
			c2.88,0.26,11.17,0.66,16.58,0.74c1.7,0.02,3.62-0.03,5.77-0.21c6.44,2.74,14.88,6.15,21.74,10.62
			C986.44,527.72,988.63,528.97,990.06,529.98z"/>
		<path class="st4" d="M998.28,472.47c0.98,3.43,1.84,8.01-10.01,15.54c-1.59,1.01-3.4,2.05-4.95,2.95
			c-1.68,0.22-3.51,0.53-5.45,0.91c-11.39,1.95-23.25,6.57-29.95,8.99c-2.29,0.83-4.68,1.71-8,2.95l-0.38-1.03
			c3.06-1.79,6.76-3.72,10.77-6.41c5.99-4.01,16.62-13.8,24.58-24.96C989.18,465.06,995.06,466.34,998.28,472.47z"/>
		<path class="st4" d="M966.75,563.64c4.85,10.72,4.66,16.1-0.67,19.52c-3.46,1.35-12.51,0.06-18.41-8.38
			c-0.02-0.21-0.03-0.43-0.05-0.66c-1.09-13.88-4.12-25.97-7.18-32.59c-2.1-4.55-5.88-11.18-7.53-14.24c0.14,0.18,0.66-0.19,0.8,0
			c2.4,3.08,4.21,5.86,5.83,7.88c4.44,5.56,11.58,14.36,20.19,22.43c2.56,2.36,4.9,4.37,7.05,5.99L966.75,563.64z"/>
		<path class="st4" d="M961.81,436.74c2.71,2.39,6.15,7.32-0.62,20.96c-1.76,1.52-3.64,3.32-5.64,5.38
			c-8.25,8.09-15.61,18.62-19.74,24.4c-1.39,1.95-2.44,3.67-4.41,6.52l-1.11-0.27c1.35-2.9,4.39-8.86,5.88-13.51
			c2.45-6.34,5.03-18.76,5.38-31.68C949.83,436.86,955.92,433.36,961.81,436.74z"/>
		<path class="st4" d="M929.13,579.6v0.02c-2.15,8.81-5.14,13.19-10.74,13.03c-3.61-0.83-8.8-2.32-9.34-16.29l-0.06-0.03
			c5.93-10.99,9.6-21.42,10.61-28.07c0.8-5.35,1.51-13.43,1.73-16.33l0.82-0.02c0.05,1.27,0.19,5.61,0.37,7.84
			c0.56,7.18,1.41,19.96,4.33,31.31C927.59,574.33,928.34,577.18,929.13,579.6z"/>
		<path class="st4" d="M924.82,436.01c-1.62,3.33-2.85,8.14-3.89,14.64c-2.1,11.38-1.73,23.68-1.78,30.8
			c-0.02,2.58-0.11,5.74-0.08,9.63h-1.35c-0.37-3.88-0.61-6.99-0.9-9.57c-0.77-7.07-2.05-20.97-5.3-32.06
			c-1.68-6.36-3.54-10.82-5.62-13.72c1.12-6.99,4.05-10.69,8.97-11.34C918.31,424.62,922.35,426.51,924.82,436.01z"/>
		<path class="st4" d="M907.37,529l2.8,0.16c-1.78,3.04-3.51,5.4-4.71,7.51c-3.51,6.17-9.92,17.4-13.75,28.31
			c-0.59,1.55-1.11,3.03-1.54,4.41c-8.99,10.54-15.78,12.91-21.45,9.07c-2.6-2.64-4.98-6.26,2.07-18.33c1.17-2,2.84-4.71,4.76-6.71
			c9.05-4.36,16.02-9.16,20.24-13.06C899.72,536.73,905.38,531.12,907.37,529z"/>
		<path class="st4" d="M906.93,495.18l-0.16,0.13c-2.36-2.9-4.04-4.98-5.66-6.92c-4.58-5.53-12.55-15.62-21.45-23.17
			c-2.85-2.55-5.42-4.58-7.74-6.14c-5.82-12.53-5.66-19.23,0.16-22.74c3.48-1.23,10.09-2.58,18.83,12.37
			c1.49,13.64,4.79,24.42,8.04,30.86C901.87,485.31,906.53,494.6,906.93,495.18z"/>
		<path class="st4" d="M900.19,517.21l0.71,1.87c-3.56,1.38-6.07,2.34-8.44,3.28c-6.6,2.63-18.06,7.42-27.86,13.56
			c-1.22,0.72-2.34,1.41-3.4,2.08c-12.18,2.32-19.26,0.87-21.42-5.4c-0.51-3.75-0.83-8.41,12.11-13.8c1.55-0.64,3.99-1.2,5.51-1.75
			c11.06,2.34,21.28,2.96,27.37,2.42C890.56,518.97,898.35,517.69,900.19,517.21z"/>
		<path class="st4" d="M900.16,504.95l-0.21,0.69c-3.64-1.04-6.22-1.76-8.68-2.44c-6.99-1.89-19.42-5.59-31.15-6.68
			c-1.97-0.24-3.78-0.4-5.46-0.5c0,0-0.02,0-0.02-0.02c-12.93-6.95-18.23-12.47-15.54-19.13c2.08-3.16,4.77-7.21,18.03-2.76
			c0.99,0.34,3.86,1.62,4.82,1.97l0.02-0.02c8.6,10.25,17.05,17.43,23.22,20.96C890.01,499.79,897.66,503.77,900.16,504.95z"/>
	</g>
	<g>
		<path class="st3" d="M906.89,494.97c0.1,0.21,0.1,0.27,0.05,0.21c-0.4-0.58-5.06-9.87-7.98-15.61
			c-3.25-6.44-6.55-17.22-8.04-30.86c-1.51-13.65,1.78-15.93,5.06-17.27c3.88-0.72,7.11,0.42,9.92,4.29
			c2.08,2.9,3.94,7.35,5.62,13.72c3.25,11.09,4.53,25,5.3,32.06c0.29,2.58,0.53,5.69,0.9,9.57"/>
		<path class="st3" d="M930.29,493.74c1.35-2.9,4.39-8.86,5.88-13.51c2.45-6.34,5.03-18.76,5.38-31.68
			c0.03-0.77,0.05-1.54,0.05-2.31c0.1-13.72-4.49-15.16-7.88-16.17c-3.94-0.32-6.76,1.49-8.91,5.93c-1.62,3.33-2.85,8.14-3.89,14.64
			c-2.1,11.38-1.73,23.68-1.78,30.8c-0.02,2.58-0.11,5.74-0.08,9.63"/>
		<path class="st3" d="M974.89,471.42c7.98-11.17,5.74-15.3,3.52-18.07c-4.31-3.61-9.66-2.18-17.22,4.36
			c-1.76,1.52-3.64,3.32-5.64,5.38c-8.25,8.09-15.61,18.62-19.74,24.4c-1.39,1.95-2.44,3.67-4.41,6.52"/>
		<path class="st3" d="M939.54,502.79c3.06-1.79,6.76-3.72,10.77-6.41c5.99-4.01,16.62-13.8,24.58-24.96"/>
		<path class="st3" d="M940.58,515.5c2.88,0.26,11.17,0.66,16.58,0.74c1.7,0.02,3.62-0.03,5.77-0.21
			c6.99-0.53,16.13-2.18,26.02-5.74c0.26-0.1,0.5-0.18,0.74-0.27c12.18-4.55,12.64-9.02,12.4-12.51c-1.6-5.8-7.4-8.03-18.78-6.54
			c-1.68,0.22-3.51,0.53-5.45,0.91c-11.39,1.95-23.25,6.57-29.95,8.99c-2.29,0.83-4.68,1.71-8,2.95c-0.21,0.1-0.43,0.18-0.66,0.26"
			/>
		<path class="st3" d="M900.97,505.29c-0.03-0.05-0.1-0.1-0.18-0.16"/>
		<path class="st3" d="M907,495.6c-0.08-0.1-0.16-0.19-0.22-0.29c-2.36-2.9-4.04-4.98-5.66-6.92c-4.58-5.53-12.55-15.62-21.45-23.17
			c-2.85-2.55-5.42-4.58-7.74-6.14c-7.08-4.77-11.9-5.08-15.69-1.43c-2.02,2.96-3.8,6.99,5.06,17.66c0.21,0.26,0.43,0.51,0.66,0.77
			c8.6,10.25,17.05,17.43,23.22,20.96c4.84,2.76,12.48,6.73,14.98,7.92c0.46,0.21,0.75,0.34,0.82,0.34c0.02,0,0.02,0,0.02,0"/>
		<path class="st3" d="M940.08,518.08c0,0.03,0.06,0.08,0.21,0.18"/>
		<path class="st3" d="M932.91,527.29c0.14,0.18,0.66-0.19,0.8,0c2.4,3.08,4.21,5.86,5.83,7.88c4.44,5.56,11.58,14.36,20.19,22.43
			c2.56,2.36,4.9,4.37,7.05,5.99c7.26,5.54,12.26,6.81,16.26,3.12c2.11-2.93,4.53-7.5-4.04-18.22c-0.16-0.19-0.3-0.38-0.46-0.58"/>
		<path class="st3" d="M929.13,579.62c2.8,8.76,5.99,12.13,11.34,11.28c3.27-1.25,8.08-2.87,7.19-16.12
			c-0.02-0.21-0.03-0.43-0.05-0.66c-1.09-13.88-4.12-25.97-7.18-32.59c-2.1-4.55-5.88-11.18-7.53-14.24"/>
		<path class="st3" d="M922.14,531.55c0,0,0,0.13,0,0.35c0.05,1.27,0.19,5.61,0.37,7.84c0.56,7.18,1.41,19.96,4.33,31.31
			c0.75,3.28,1.51,6.14,2.29,8.56"/>
		<path class="st3" d="M910.17,529.16c-1.78,3.04-3.51,5.4-4.71,7.51c-3.51,6.17-9.92,17.4-13.75,28.31
			c-0.59,1.55-1.11,3.03-1.54,4.41c-3.52,11.25-1.87,16.57,2.1,19.26c3.51,0.88,8.52,2.15,15.29-9.76c0.5-0.87,0.96-1.73,1.43-2.58
			c5.93-10.99,9.6-21.42,10.61-28.07c0.8-5.35,1.51-13.43,1.73-16.33"/>
		<path class="st3" d="M901.61,518.81c-0.19,0.08-0.38,0.14-0.58,0.22c-0.05,0.02-0.1,0.03-0.14,0.05
			c-3.56,1.38-6.07,2.34-8.44,3.28c-6.6,2.63-18.06,7.42-27.86,13.56c-1.22,0.72-2.34,1.41-3.4,2.08
			c-10.43,6.71-13.28,11.79-10.51,17.58c2.18,2.87,4.63,6.2,17.37,1.12c2.63-1.04,5.14-2.15,7.5-3.28
			c9.05-4.36,16.02-9.16,20.24-13.06c3.94-3.64,9.6-9.25,11.58-11.36c0.69-0.75,0.93-1.07,0.5-0.72"/>
		<path class="st3" d="M854.64,496.01c-11.57-0.69-16.68,1.7-17.79,7.64c0.1,3.56,0.4,8.14,13.89,11.79
			c2.23,0.61,4.45,1.14,6.65,1.62c11.06,2.34,21.28,2.96,27.37,2.42c5.8-0.51,13.59-1.79,15.43-2.28c0.5-0.13,0.58-0.19,0.13-0.19"
			/>
		<path class="st3" d="M900.32,505.75c-0.13-0.03-0.24-0.06-0.37-0.11c-3.64-1.04-6.22-1.76-8.68-2.44
			c-6.99-1.89-19.42-5.59-31.15-6.68c-1.97-0.24-3.78-0.4-5.46-0.5"/>
		<path class="st3" d="M924.82,436.01c-2.47-9.5-6.51-11.39-9.95-11.62c-4.92,0.66-7.85,4.36-8.97,11.34"/>
		<path class="st3" d="M961.19,457.7c6.78-13.64,3.33-18.57,0.62-20.96c-5.9-3.38-11.98,0.11-20.25,11.81"/>
		<path class="st3" d="M983.31,490.96c1.55-0.9,3.36-1.94,4.95-2.95c11.86-7.53,10.99-12.11,10.01-15.54
			c-3.22-6.14-9.1-7.42-23.39-1.06"/>
		<path class="st3" d="M990.06,529.98c13.15-0.03,14.36-3.56,14.8-8.48c0.45-4.93-3.73-8.92-15.17-11.49"/>
		<path class="st3" d="M990.06,529.98c-1.43-1.01-3.62-2.26-5.38-3.33c-6.86-4.47-15.3-7.88-21.74-10.62
			c-0.03-0.02-0.05-0.02-0.08-0.03"/>
		<path class="st3" d="M978.54,547.93c12.9,5.4,17.95,4.21,20.35,0.26c2.39-3.96,0.66-11.55-8.83-18.2"/>
		<path class="st3" d="M979.15,548.25c0,0-0.02-0.02-0.03-0.02c-0.1-0.06-0.48-0.24-0.58-0.3h-0.02c-0.02-0.02-0.02-0.02-0.02-0.02
			c-8.41-10.43-17.37-18.33-23.49-21.92c-5.77-3.38-14.93-8.16-14.93-7.92"/>
		<path class="st3" d="M947.66,574.78c5.9,8.44,14.95,9.73,18.41,8.38c5.34-3.41,5.53-8.8,0.67-19.52"/>
		<path class="st3" d="M909.05,576.35c0.54,13.97,5.74,15.46,9.34,16.29c5.59,0.16,8.59-4.21,10.74-13.03v-0.02"/>
		<path class="st3" d="M875.55,553.42c-1.92,2-3.59,4.71-4.76,6.71c-7.05,12.07-4.66,15.69-2.07,18.33
			c5.67,3.85,12.47,1.47,21.45-9.07"/>
		<path class="st3" d="M857.39,517.07c-1.52,0.54-3.96,1.11-5.51,1.75c-12.95,5.38-12.63,10.05-12.11,13.8
			c2.16,6.26,9.25,7.72,21.42,5.4"/>
		<path class="st3" d="M861.94,476.1c-0.96-0.35-3.83-1.63-4.82-1.97c-13.25-4.45-15.94-0.4-18.03,2.76
			c-2.69,6.67,2.61,12.18,15.54,19.13c0,0.02,0.02,0.02,0.02,0.02"/>
		<path class="st3" d="M890.91,448.71c-8.73-14.95-15.35-13.6-18.83-12.37c-5.82,3.51-5.98,10.21-0.16,22.74
			c0.05,0.1,0.1,0.19,0.14,0.29"/>
	</g>
</g>
<circle class="st5" cx="920.46" cy="511.51" r="20.43"/>
</svg>
