<?xml version="1.0" encoding="utf-8"?>
<!-- Generator: Adobe Illustrator 26.3.1, SVG Export Plug-In . SVG Version: 6.00 Build 0)  -->
<svg version="1.1" id="레이어_1" xmlns="http://www.w3.org/2000/svg" xmlns:xlink="http://www.w3.org/1999/xlink" x="0px"
	 y="0px" viewBox="0 0 1280 1024" style="enable-background:new 0 0 1280 1024;" xml:space="preserve">
<style type="text/css">
	.st0{fill:url(#SVGID_1_);}
	.st1{fill:#FFFFFF;}
	.st2{fill:#B3B3B3;}
	.st3{fill:none;stroke:#000000;stroke-width:2;stroke-miterlimit:10;}
	.st4{fill:#FFEBF9;}
	.st5{fill:#FFC600;stroke:#000000;stroke-width:2;stroke-miterlimit:10;}
</style>
<linearGradient id="SVGID_1_" gradientUnits="userSpaceOnUse" x1="118.8596" y1="469.2026" x2="1182.5955" y2="469.2026">
	<stop  offset="0" style="stop-color:#C1C1C1"/>
	<stop  offset="0.9942" style="stop-color:#B29CD3"/>
	<stop  offset="1" style="stop-color:#B29CD3"/>
</linearGradient>
<path class="st0" d="M298.25,493.89c0,27.61-10.85,50.48-32.55,68.63c-21.22,17.76-47.4,26.64-78.55,26.64
	c-17.94,0-33.37-3.96-46.3-11.87c-14.66-8.98-21.99-21.04-21.99-36.2c0-7.63,1.85-14.41,5.55-20.34c3.7-5.94,8.58-8.9,14.63-8.9
	c4.42,0,7.83,1.16,10.24,3.48c2.4,2.32,3.6,5.21,3.6,8.69c0,3.09-0.27,5.43-0.8,7.02c-0.53,1.59-1.42,3.11-2.68,4.56
	c-0.68,0.77-1.21,1.16-1.59,1.16c-0.29,0-0.72-0.79-1.3-2.39s-1.4-2.92-2.46-3.98c-1.45-1.54-3.24-2.32-5.36-2.32
	c-3.09,0-5.45,1.57-7.09,4.7c-1.64,3.14-2.46,6.68-2.46,10.64c0,11.78,5.89,20.95,17.66,27.51c10.04,5.6,22.3,8.4,36.78,8.4
	c25.58,0,47.25-7.92,65.01-23.74c18.82-16.7,28.23-38.22,28.23-64.57c0-8.49-1.76-16.34-5.29-23.53
	c-3.52-7.19-8.23-12.76-14.12-16.72c-3.76,4.92-8.57,9.22-14.44,12.89c-6.93,4.34-13.58,6.52-19.93,6.52
	c-7.03,0-12.32-1.35-15.88-4.05c-3.08-2.32-4.62-5.5-4.62-9.56c0-4.92,2.65-9.29,7.94-13.1c5.29-3.81,11.31-6.2,18.04-7.17
	c3.85-0.48,7.22-0.72,10.11-0.72c4.33,0,8.18,0.43,11.55,1.3c2.03-4.25,3.64-8.57,4.85-12.96c1.2-4.39,1.81-9.05,1.81-13.97
	c0-15.06-6.66-26.93-19.98-35.62c-11.78-7.72-25.97-11.58-42.57-11.58c-15.25,0-28.98,3.72-41.19,11.15
	c-12.21,7.43-18.94,16.46-20.2,27.07c-0.2,1.74-0.29,2.99-0.29,3.76c0,3.38,0.67,5.96,2.03,7.75c1.35,1.79,3.18,2.68,5.5,2.68
	c2.12,0,3.91-0.39,5.36-1.16c0.67-0.38,1.5-1.06,2.46-2.03c0.38-0.67,0.72-0.97,1.01-0.87c0.29,0.1,0.43,0.39,0.43,0.87
	c0.58,3.28-1.16,6.47-5.21,9.56c-2.8,2.12-6.18,3.18-10.13,3.18c-3.57,0-6.71-1.59-9.41-4.78c-2.99-3.48-4.49-7.96-4.49-13.47
	c0-13.8,7.62-26.06,22.88-36.78c15.93-11.19,34.84-16.79,56.76-16.79c20.85,0,38.37,4.05,52.56,12.16
	c16.89,9.65,25.34,23.65,25.34,41.99c0,6.66-1.21,12.84-3.62,18.53c-1.74,4.15-4.88,9.36-9.41,15.64
	c7.62,3.38,14.82,9.7,21.57,18.97C294.24,471.16,298.25,482.4,298.25,493.89z M198.2,556.78c0.2,0.19,0.34,0.48,0.44,0.85
	c0.1,0.29,0.15,0.52,0.15,0.71c0,1.04-0.87,1.56-2.62,1.56c-0.97,0.1-3.85-0.02-8.64-0.36c-4.8-0.34-8.11-0.51-9.95-0.51
	c-3.1,0-7.75,0.24-13.95,0.72c-2.33,0.19-3.97,0.24-4.94,0.15c-1.65,0-2.47-0.58-2.47-1.74c0-0.48,0.14-0.87,0.43-1.16
	c0.29-0.39,2.36-2.08,6.23-5.07c2.99-2.32,4.49-4.39,4.49-6.23v-133.2c0-2.99-0.92-5.11-2.75-6.37c-2.22-0.87-3.74-1.52-4.56-1.96
	c-0.82-0.43-1.23-0.94-1.23-1.52c0-0.58,0.43-1.06,1.31-1.45c0.77-0.67,2.28-1.64,4.5-2.9c7.07-3.96,11.29-6.37,12.64-7.24
	c2.32-1.45,6.2-4.1,11.63-7.96c3.97-2.9,6.59-4.49,7.85-4.78c1.06-0.48,1.6-0.19,1.6,0.87c0,0.29-0.15,0.68-0.44,1.16
	c-3.62,5.99-6.17,11.79-7.63,17.39c-1.76,6.86-2.64,14.3-2.64,22.31v125.78c0,1.84,1.47,3.86,4.4,6.09
	C195.94,554.89,198,556.5,198.2,556.78z M245.55,445.82c-3.76-1.25-8.01-1.88-12.74-1.88c-1.55,0-3.48,0.12-5.79,0.36
	c-2.32,0.24-5.07,1.18-8.25,2.82c-3.96,2.12-5.94,4.68-5.94,7.67c0,2.7,1.5,4.54,4.49,5.5c1.74,0.58,3.43,0.87,5.07,0.87
	c4.34,0,8.76-1.52,13.25-4.56C240.12,453.57,243.42,449.97,245.55,445.82z M374.12,555.35c1.16,1.14,1.74,2.09,1.74,2.85
	c0,1.14-1.06,1.71-3.18,1.71c-1.74,0-3.19-0.06-4.34-0.17c-5.99-0.56-9.94-0.84-11.87-0.84c-3.47,0-6.3,0.11-8.47,0.34
	s-4.66,0.45-7.46,0.67c-2.32,0-3.47-0.59-3.47-1.77c0-0.59,0.48-1.47,1.45-2.65c2.41-1.96,4.2-3.48,5.36-4.56
	c2.22-1.93,3.33-3.71,3.33-5.35V390.8c0-2.8-0.1-5.02-0.29-6.66c-0.19-1.64-1.35-2.31-3.47-2.02c-1.06,0.2-2.85,1.14-5.36,2.82
	c-2.51,1.69-4.2,2.68-5.07,2.97c-1.45,0.48-2.17-0.05-2.17-1.6c0-0.48,0.29-1.16,0.87-2.03c0.58-0.87,3.23-3.58,7.96-8.14
	c3.76-3.68,6.75-6.64,8.98-8.86c3.28-3.29,6.85-7.22,10.71-11.77c2.7-3.2,4.44-5.08,5.21-5.67c0.19-0.19,0.48-0.34,0.87-0.44
	c0.29-0.09,0.53-0.15,0.72-0.15c0.87,0,1.3,0.78,1.3,2.32c-0.48,3.1-0.89,6.94-1.23,11.53c-0.34,4.59-0.51,9.45-0.51,14.57v168.19
	c0,1.55,1.01,3.24,3.04,5.07C370.5,552.45,372.28,553.93,374.12,555.35z M676.14,513.29c0,15.25-6.61,27.75-19.84,37.5
	c-12.36,9.17-27.07,13.75-44.16,13.75c-14.48,0-26.5-2.37-36.05-7.09c-11.68-5.79-17.52-14.33-17.52-25.63
	c0-8.59,3.16-15.86,9.48-21.79c6.32-5.94,13.87-8.9,22.66-8.9c9.07,0,16.45,1.64,22.15,4.92c6.46,3.76,9.7,9.07,9.7,15.93
	c0,4.34-1.57,8.13-4.7,11.37c-3.14,3.23-6.88,4.85-11.22,4.85c-4.15,0-7.14-0.77-8.98-2.32c-0.48-0.48-0.72-0.87-0.72-1.16
	c0-0.67,0.63-1.16,1.88-1.45c1.64-0.58,3.02-1.59,4.13-3.04c1.11-1.45,1.66-3.72,1.66-6.81c0-2.8-1.5-5.09-4.49-6.88
	c-2.99-1.78-6.23-2.68-9.7-2.68c-6.85,0-12.62,1.64-17.3,4.92c-4.68,3.28-7.02,7.82-7.02,13.61c0,8.11,5.16,14.38,15.49,18.82
	c8.59,3.67,18.77,5.5,30.55,5.5c12.26,0,22.97-2.75,32.14-8.25c10.81-6.47,16.22-15.2,16.22-26.21c0-11-3.96-19.16-11.87-24.47
	c-4.92-3.28-14.29-6.61-28.09-9.99c-7.91-1.74-15.78-3.52-23.6-5.36c-8.88-2.41-15.4-5.55-19.55-9.41
	c-5.41-5.02-8.11-12.06-8.11-21.14c0-10.33,5.45-18.87,16.36-25.63c10.04-6.27,21.57-9.41,34.6-9.41c11.77,0,21.28,1.5,28.52,4.49
	c9.56,3.96,14.33,10.09,14.33,18.39c0,5.31-2.56,9.7-7.67,13.17c-4.73,3.19-10.18,4.78-16.36,4.78c-5.89,0-10.81-1.11-14.77-3.33
	c-4.83-2.7-7.24-6.56-7.24-11.58c0-2.61,0.89-4.9,2.68-6.88c1.79-1.98,3.79-3.31,6.01-3.98c0.97-0.19,1.5-0.29,1.59-0.29
	c0.67,0,1.01,0.48,1.01,1.45l-0.29,2.9c0,2.12,0.67,3.86,2.03,5.21c1.74,1.74,4.53,2.61,8.4,2.61c2.51,0,4.68-0.87,6.51-2.61
	c1.83-1.74,2.75-3.76,2.75-6.08c0-4.34-3.14-7.43-9.41-9.27c-4.63-1.35-10.67-2.03-18.1-2.03c-9.27,0-17.62,2.08-25.05,6.23
	c-8.21,4.63-12.31,10.38-12.31,17.23c0,6.18,2.7,11,8.11,14.48c3.38,2.22,14.19,5.41,32.43,9.56c11.29,2.61,19.98,5.12,26.06,7.53
	c8.49,3.38,14.86,7.53,19.11,12.45C673.63,497.07,676.14,504.41,676.14,513.29z M820.35,513.29c0,15.25-6.61,27.75-19.83,37.5
	c-12.36,9.17-27.08,13.75-44.16,13.75c-14.48,0-26.49-2.37-36.05-7.09c-11.68-5.79-17.52-14.33-17.52-25.63
	c0-8.59,3.16-15.86,9.48-21.79c6.32-5.94,13.88-8.9,22.66-8.9c9.07,0,16.46,1.64,22.15,4.92c6.46,3.76,9.7,9.07,9.7,15.93
	c0,4.34-1.57,8.13-4.7,11.37c-3.14,3.23-6.88,4.85-11.22,4.85c-4.15,0-7.14-0.77-8.98-2.32c-0.48-0.48-0.72-0.87-0.72-1.16
	c0-0.67,0.63-1.16,1.88-1.45c1.64-0.58,3.02-1.59,4.13-3.04c1.11-1.45,1.67-3.72,1.67-6.81c0-2.8-1.5-5.09-4.49-6.88
	c-2.99-1.78-6.23-2.68-9.7-2.68c-6.86,0-12.62,1.64-17.3,4.92c-4.68,3.28-7.02,7.82-7.02,13.61c0,8.11,5.16,14.38,15.49,18.82
	c8.59,3.67,18.77,5.5,30.55,5.5c12.26,0,22.97-2.75,32.14-8.25c10.81-6.47,16.22-15.2,16.22-26.21c0-11-3.96-19.16-11.87-24.47
	c-4.92-3.28-14.29-6.61-28.09-9.99c-7.92-1.74-15.78-3.52-23.6-5.36c-8.88-2.41-15.4-5.55-19.55-9.41
	c-5.41-5.02-8.11-12.06-8.11-21.14c0-10.33,5.45-18.87,16.36-25.63c10.04-6.27,21.57-9.41,34.6-9.41c11.77,0,21.28,1.5,28.52,4.49
	c9.56,3.96,14.33,10.09,14.33,18.39c0,5.31-2.56,9.7-7.67,13.17c-4.73,3.19-10.19,4.78-16.36,4.78c-5.89,0-10.81-1.11-14.77-3.33
	c-4.83-2.7-7.24-6.56-7.24-11.58c0-2.61,0.89-4.9,2.68-6.88c1.78-1.98,3.79-3.31,6.01-3.98c0.96-0.19,1.5-0.29,1.59-0.29
	c0.67,0,1.01,0.48,1.01,1.45l-0.29,2.9c0,2.12,0.67,3.86,2.03,5.21c1.74,1.74,4.53,2.61,8.4,2.61c2.51,0,4.68-0.87,6.51-2.61
	c1.83-1.74,2.75-3.76,2.75-6.08c0-4.34-3.14-7.43-9.41-9.27c-4.63-1.35-10.67-2.03-18.1-2.03c-9.27,0-17.62,2.08-25.05,6.23
	c-8.21,4.63-12.31,10.38-12.31,17.23c0,6.18,2.7,11,8.11,14.48c3.38,2.22,14.19,5.41,32.43,9.56c11.29,2.61,19.98,5.12,26.06,7.53
	c8.49,3.38,14.86,7.53,19.11,12.45C817.83,497.07,820.35,504.41,820.35,513.29z M1182.6,470.49c0,12.66-3.23,26.14-9.7,40.44
	c-6.08,13.43-14.24,25.94-24.47,37.54c0.29,0,0.8,0.02,1.52,0.07c0.72,0.05,1.71,0.07,2.97,0.07c2.99,0,5.84-0.17,8.54-0.51
	c2.7-0.34,5.36-1.42,7.96-3.26c1.54-1.25,3.13-2.56,4.78-3.91c0.58-0.58,1.16-0.67,1.74-0.29c0.48,0.39,0.67,1.06,0.58,2.03
	c-0.29,1.93-0.56,3.84-0.8,5.72c-0.24,1.88-0.36,3.26-0.36,4.13c0,2.12,0.07,3.89,0.22,5.29c0.15,1.4,0.36,3.01,0.65,4.85
	c0.19,1.64-0.15,2.46-1.01,2.46c-0.68,0-1.4-0.34-2.17-1.01c-1.83-1.26-3.86-2.27-6.08-3.04c-2.22-0.77-4.27-1.3-6.15-1.59
	s-4.9-0.43-9.05-0.43c-2.8,0-5.02,0.04-6.66,0.11c-1.64,0.07-3.81,0.29-6.51,0.65c-0.39,0.07-0.72,0.11-1.01,0.11
	c-0.48,0-0.82,0-1.01,0c-1.83,0-2.75-0.63-2.75-1.88c0-0.58,0.34-1.44,1.01-2.6c4.83-7.42,9.02-14.51,12.6-21.26
	c4.73-8.87,8.35-17.07,10.86-24.59c3.09-9.26,4.63-17.59,4.63-25.02c0-15.81-2.27-28.11-6.8-36.88
	c-5.41-10.32-13.85-15.47-25.34-15.47c-4.73,0-9.22,0.94-13.47,2.82c-4.25,1.88-8.06,4.8-11.44,8.76
	c1.74,4.73,2.99,10.47,3.76,17.23c0.77,6.76,1.16,13.95,1.16,21.57c0,9.46-2.22,20.51-6.66,33.16c-3.48,9.94-7.82,19.69-13.03,29.25
	c-4.25,7.82-7.24,12.6-8.98,14.33c-0.29,0.39-0.92,0.58-1.88,0.58c-1.55,0-2.46-0.29-2.75-0.87c-0.29-0.38-0.34-0.92-0.14-1.59
	c0.58-1.35,0.92-2.17,1.01-2.46c8.49-17.57,12.74-40.92,12.74-70.08c0-14.09-2.7-26.06-8.11-35.91
	c-5.89-10.62-13.52-15.93-22.88-15.93c-6.37,0-12.36,2.66-17.95,7.96c-4.73,4.44-8.21,9.7-10.42,15.78v88.76
	c0,1.64,1.11,3.37,3.33,5.2c1.74,1.47,3.52,2.94,5.36,4.41c1.16,1.18,1.74,2.16,1.74,2.94c0,1.18-1.06,1.77-3.19,1.77
	c-1.06,0-3.86-0.15-8.4-0.43c-4.54-0.29-7.24-0.43-8.11-0.43c-3.48,0-6.3,0.1-8.47,0.29c-2.17,0.19-4.66,0.39-7.46,0.58
	c-2.22,0-3.33-0.54-3.33-1.62c0-0.78,0.53-1.72,1.59-2.79c2.32-1.96,4.05-3.48,5.21-4.56c2.12-1.93,3.19-3.71,3.19-5.35v-85.62
	c0-8.19-2.56-14.85-7.67-19.96c-1.93-1.93-5.65-4.44-11.15-7.52c-0.77-0.48-1.16-1.06-1.16-1.74c0-0.48,0.29-0.96,0.87-1.45
	c1.54-1.15,3.76-3.18,6.66-6.07c1.45-1.44,2.56-2.6,3.33-3.47c0.77-0.87,1.47-1.66,2.1-2.39c0.63-0.72,1.18-1.09,1.66-1.09
	c0.48,0,1.01,0.29,1.59,0.87c3.67,3.18,7.33,7.19,11,12.02c5.11,6.66,8.11,12.4,8.98,17.23c3.38-7.04,7.24-12.84,11.58-17.37
	c7.72-8.11,16.6-12.16,26.64-12.16c8.3,0,15.68,2.32,22.15,6.95c4.44,3.18,8.83,7.82,13.18,13.9c3.86-5.79,8.25-10.47,13.17-14.04
	c6.27-4.54,12.98-6.81,20.13-6.81c16.6,0,29,6.43,37.21,19.28C1179.56,445.71,1182.6,457.16,1182.6,470.49z"/>
<g id="XMLID_00000079453846272889917190000009736579791756433544_">
	<g>
		<path class="st1" d="M533.61,490.92c10.59,2.37,14.46,6.06,14.04,10.63c-0.41,4.56-1.52,7.82-13.69,7.84
			c-1.33-0.93-3.36-2.08-4.98-3.07c-6.36-4.13-14.15-7.3-20.11-9.83c6.46-0.5,14.92-2.02,24.05-5.31
			C533.16,491.1,533.39,491.01,533.61,490.92z"/>
		<path class="st1" d="M508.87,496.49c-1.99,0.16-3.79,0.21-5.36,0.19c-5.01-0.07-12.66-0.45-15.34-0.69l-0.07-0.01
			c0.24-1.19,0.36-2.42,0.36-3.68c0-2.45-0.47-4.79-1.33-6.94c3.29-1.24,5.62-2.1,7.84-2.9c6.18-2.24,17.15-6.51,27.7-8.32
			c1.8-0.36,3.48-0.64,5.05-0.84c10.52-1.38,15.88,0.68,17.37,6.05c0.22,3.22-0.2,7.35-11.48,11.57c-0.22,0.09-0.45,0.18-0.69,0.26
			C523.79,494.47,515.33,495.99,508.87,496.49z"/>
		<path class="st1" d="M533.96,509.39c8.77,6.16,10.37,13.18,8.16,16.85c-2.21,3.66-6.89,4.76-18.82-0.23
			c-0.01,0-0.01-0.01-0.02-0.01c-7.8-9.65-16.09-16.97-21.75-20.3c-5.33-3.14-13.82-7.54-13.82-7.32l-0.23-0.08
			c0.26-0.75,0.46-1.53,0.62-2.32l0.07,0.01c2.68,0.24,10.33,0.62,15.34,0.69c1.57,0.02,3.37-0.03,5.36-0.19
			c5.96,2.53,13.75,5.7,20.11,9.83C530.6,507.31,532.63,508.46,533.96,509.39z"/>
		<path class="st1" d="M541.57,456.18c0.9,3.18,1.69,7.42-9.27,14.39c-1.47,0.93-3.15,1.9-4.58,2.73c-1.57,0.2-3.25,0.48-5.05,0.84
			c-10.55,1.81-21.52,6.08-27.7,8.32c-2.22,0.8-4.55,1.66-7.84,2.9c-0.11-0.31-0.24-0.61-0.38-0.91l0.46-0.21
			c2.83-1.67,6.25-3.44,9.96-5.93c5.54-3.72,15.37-12.77,22.75-23.1C533.14,449.32,538.58,450.51,541.57,456.18z"/>
		<path class="st1" d="M523.28,526c0.01,0.01,0.02,0.02,0.02,0.02c0.14,0.17,0.28,0.35,0.42,0.52c7.93,9.91,5.7,14.14,3.74,16.85
			c-3.71,3.41-8.33,2.25-15.05-2.88c-1.98-1.52-4.15-3.37-6.53-5.56c-7.95-7.47-14.56-15.61-18.67-20.75
			c-1.5-1.87-3.18-4.44-5.39-7.3c-0.04-0.05-0.12-0.06-0.22-0.03c2.69-2.23,4.75-5.18,5.88-8.57l0.23,0.08
			c0-0.22,8.49,4.18,13.82,7.32C507.19,509.03,515.48,516.35,523.28,526z"/>
		<path class="st1" d="M523.17,438.48c2.05,2.57,4.13,6.4-3.25,16.73c-7.38,10.33-17.21,19.38-22.75,23.1
			c-3.71,2.49-7.13,4.26-9.96,5.93l-0.46,0.21c-1.54-3.38-4.05-6.22-7.18-8.18l0.1-0.16c1.83-2.63,2.79-4.22,4.08-6.03
			c3.82-5.35,10.63-15.09,18.27-22.58c1.86-1.92,3.6-3.58,5.22-4.98C514.24,436.47,519.19,435.15,523.17,438.48z"/>
		<path class="st1" d="M512.38,540.55c4.49,9.91,4.31,14.89-0.62,18.05c-3.2,1.24-11.57,0.07-17.04-7.74
			c-0.01-0.2-0.02-0.41-0.04-0.62c-1.01-12.84-3.8-24.03-6.64-30.16c-1.89-4.08-5.24-9.99-6.83-12.92c0.13-0.09,0.26-0.19,0.39-0.29
			c0.1-0.03,0.18-0.02,0.22,0.03c2.21,2.86,3.89,5.43,5.39,7.3c4.11,5.14,10.72,13.28,18.67,20.75c2.38,2.19,4.55,4.04,6.53,5.56
			L512.38,540.55z"/>
		<path class="st1" d="M507.82,423.13c2.5,2.2,5.69,6.77-0.58,19.39c-1.62,1.4-3.36,3.06-5.22,4.98
			c-7.64,7.49-14.45,17.23-18.27,22.58c-1.29,1.81-2.25,3.4-4.08,6.03l-0.1,0.16c-0.28-0.18-0.58-0.35-0.87-0.51
			c1.26-2.71,4.04-8.15,5.4-12.4c2.26-5.88,4.64-17.36,4.98-29.3v-0.01C496.73,423.23,502.36,419.99,507.82,423.13z"/>
		<path class="st1" d="M494.72,550.86c0.82,12.26-3.63,13.75-6.66,14.91c-4.95,0.78-7.89-2.34-10.49-10.44v-0.01
			c-0.72-2.25-1.42-4.88-2.12-7.92c-2.7-10.5-3.49-22.33-4.01-28.98c-0.16-2.07-0.3-6.16-0.33-7.29c3.8-0.3,7.28-1.74,10.1-3.97
			c1.59,2.93,4.94,8.84,6.83,12.92c2.84,6.13,5.63,17.32,6.64,30.16C494.7,550.45,494.71,550.66,494.72,550.86z"/>
		<path class="st1" d="M481.82,416.96c3.15,0.93,7.39,2.26,7.3,14.96c0,0.71-0.02,1.42-0.04,2.13v0.01
			c-0.34,11.94-2.72,23.42-4.98,29.3c-1.36,4.25-4.14,9.69-5.4,12.4c-2.71-1.5-5.82-2.36-9.14-2.36c-0.44,0-0.87,0.01-1.3,0.05
			v-0.05c-0.02-3.61,0.06-6.52,0.07-8.92c0.05-6.58-0.29-17.97,1.65-28.49c0.95-6.01,2.09-10.47,3.6-13.55
			C475.56,418.34,478.18,416.66,481.82,416.96z"/>
		<path class="st2" d="M487.13,485.36c0.86,2.15,1.33,4.49,1.33,6.94c0,1.26-0.12,2.49-0.36,3.68c-0.16,0.79-0.36,1.57-0.62,2.32
			c-1.13,3.39-3.19,6.34-5.88,8.57c-0.19,0.03-0.44,0.15-0.53,0.03c0.05,0.08,0.09,0.17,0.14,0.26c-2.82,2.23-6.3,3.67-10.1,3.97
			c-0.25,0.03-0.51,0.04-0.77,0.05c-0.26,0.01-0.52,0.02-0.78,0.02c-3.47,0-6.72-0.94-9.52-2.57c-0.61-0.36-1.21-0.76-1.77-1.18
			c-2.83-2.1-5.04-4.98-6.33-8.32c-0.23-0.57-0.42-1.15-0.58-1.75c-0.46-1.61-0.7-3.32-0.7-5.08c0-1.81,0.25-3.55,0.73-5.2
			c0.05-0.18,0.1-0.36,0.16-0.54c1.09-3.42,3.12-6.41,5.8-8.68c2.69-2.28,6.02-3.82,9.69-4.31c0.4-0.06,0.81-0.1,1.22-0.12
			c0.43-0.04,0.86-0.05,1.3-0.05c3.32,0,6.43,0.86,9.14,2.36c0.29,0.16,0.59,0.33,0.87,0.51c3.13,1.96,5.64,4.8,7.18,8.18
			C486.89,484.75,487.02,485.05,487.13,485.36z"/>
		<path class="st2" d="M481.6,506.87c-0.13,0.1-0.26,0.2-0.39,0.29c-0.05-0.09-0.09-0.18-0.14-0.26
			C481.16,507.02,481.41,506.9,481.6,506.87z"/>
		<path class="st1" d="M477.57,555.32v0.01c-1.99,8.15-4.76,12.2-9.93,12.05c-3.34-0.77-8.13-2.15-8.64-15.07l-0.07-0.04
			c5.49-10.17,8.89-19.83,9.82-25.96c0.75-4.97,1.39-12.43,1.59-15.12v-0.01c0.26-0.01,0.52-0.02,0.77-0.05
			c0.03,1.13,0.17,5.22,0.33,7.29c0.52,6.65,1.31,18.48,4.01,28.98C476.15,550.44,476.85,553.07,477.57,555.32z"/>
		<path class="st1" d="M470.34,511.18v0.01c-0.2,2.69-0.84,10.15-1.59,15.12c-0.93,6.13-4.33,15.79-9.82,25.96
			c-0.42,0.79-0.87,1.59-1.32,2.39c-6.25,11.02-10.9,9.84-14.14,9.03c-3.66-2.5-5.2-7.42-1.94-17.82l0.01-0.01
			c0.39-1.27,0.86-2.62,1.41-4.06c3.54-10.1,9.48-20.5,12.73-26.21c1.1-1.95,2.71-4.13,4.35-6.94l0.01-0.02
			c2.8,1.63,6.05,2.57,9.52,2.57C469.82,511.2,470.08,511.19,470.34,511.18z"/>
		<path class="st1" d="M473.58,422.44c-1.51,3.08-2.65,7.54-3.6,13.55c-1.94,10.52-1.6,21.91-1.65,28.49
			c-0.01,2.4-0.09,5.31-0.07,8.92v0.05c-0.41,0.02-0.82,0.06-1.22,0.12l-0.02-0.17c-0.35-3.59-0.57-6.47-0.83-8.85
			c-0.72-6.54-1.9-19.41-4.91-29.67c-1.56-5.87-3.26-9.99-5.21-12.68c1.05-6.47,3.75-9.9,8.31-10.5
			C467.56,411.9,471.31,413.65,473.58,422.44z"/>
		<path class="st1" d="M457.06,477.22c-0.12,0-4.62-8.99-7.4-14.47c-3.01-5.95-6.07-15.94-7.45-28.56
			c-1.39-12.62,1.64-14.73,4.68-15.97c3.6-0.67,6.6,0.39,9.18,3.98c1.95,2.69,3.65,6.81,5.21,12.68
			c3.01,10.26,4.19,23.13,4.91,29.67c0.26,2.38,0.48,5.26,0.83,8.85l0.02,0.17c-3.67,0.49-7,2.03-9.69,4.31l-0.25-0.29
			c-0.06-0.08-0.13-0.16-0.2-0.24L457.06,477.22z"/>
		<path class="st1" d="M460.04,508.63l-0.01,0.02c-1.64,2.81-3.25,4.99-4.35,6.94c-3.25,5.71-9.19,16.11-12.73,26.21
			c-0.55,1.44-1.02,2.79-1.41,4.06l-0.01,0.01c-8.32,9.76-14.61,11.95-19.85,8.4c-2.4-2.45-4.62-5.8,1.91-16.97
			c1.09-1.86,2.63-4.36,4.4-6.21v-0.01c8.38-4.02,14.83-8.48,18.73-12.08c4.49-4.14,11.37-11.05,11.37-11.3l0.18-0.25
			C458.83,507.87,459.43,508.27,460.04,508.63z"/>
		<path class="st1" d="M458.09,507.7c0,0.25-6.88,7.16-11.37,11.3c-3.9,3.6-10.35,8.06-18.73,12.08c-2.19,1.06-4.5,2.08-6.94,3.05
			c-11.78,4.69-14.04,1.62-16.06-1.05c-2.57-5.34,0.07-10.05,9.72-16.25c0.97-0.63,2.02-1.27,3.14-1.93
			c9.07-5.68,19.68-10.12,25.78-12.55c2.23-0.88,4.58-1.8,7.95-3.08c0.12-0.05,0.24-0.1,0.36-0.14c1.29,3.34,3.5,6.22,6.33,8.32
			L458.09,507.7z"/>
		<path class="st1" d="M424.64,443.78c2.15,1.45,4.52,3.34,7.16,5.69c8.25,6.98,15.61,16.32,19.85,21.43
			c1.51,1.82,3.07,3.74,5.25,6.45c0.07,0.08,0.14,0.16,0.2,0.24l0.25,0.29c-2.68,2.27-4.71,5.26-5.8,8.68l-0.02-0.01
			c0,0.21-9.19-4.55-14.62-7.64c-5.72-3.26-13.52-9.89-21.5-19.38c-0.2-0.24-0.4-0.48-0.6-0.72c-8.19-9.87-6.55-13.59-4.68-16.34
			C413.64,439.09,418.09,439.37,424.64,443.78z"/>
		<path class="st1" d="M457.06,477.22l-0.16,0.13c-2.18-2.71-3.74-4.63-5.25-6.45c-4.24-5.11-11.6-14.45-19.85-21.43
			c-2.64-2.35-5.01-4.24-7.16-5.69c-5.38-11.59-5.24-17.78,0.15-21.03c3.22-1.14,9.34-2.39,17.42,11.44
			c1.38,12.62,4.44,22.61,7.45,28.56C452.44,468.23,456.94,477.22,457.06,477.22z"/>
		<path class="st1" d="M451.94,499.13c-0.12,0.04-0.24,0.09-0.36,0.14c-3.37,1.28-5.72,2.2-7.95,3.08
			c-6.1,2.43-16.71,6.87-25.78,12.55c-1.12,0.66-2.17,1.3-3.14,1.93v-0.01c-11.27,2.15-17.82,0.81-19.82-4.99
			c-0.48-3.47-0.77-7.79,11.2-12.76c1.44-0.6,3.7-1.11,5.1-1.63v-0.01c10.24,2.18,19.7,2.76,25.33,2.26
			c6.13-0.55,14.67-2.02,14.67-2.26l0.17-0.05C451.52,497.98,451.71,498.56,451.94,499.13z"/>
		<path class="st1" d="M451.53,486.55l0.02,0.01c-0.06,0.18-0.11,0.36-0.16,0.54l-0.47-0.13c-3.54-1.01-6.02-1.7-8.38-2.34
			c-6.47-1.76-17.97-5.18-28.82-6.18c-1.82-0.21-3.5-0.37-5.06-0.47c-11.98-6.45-16.89-11.55-14.39-17.72
			c1.92-2.92,4.41-6.67,16.67-2.54c0.93,0.31,3.57,1.49,4.47,1.81c7.98,9.49,15.78,16.12,21.5,19.38
			C442.34,482,451.53,486.76,451.53,486.55z"/>
		<path class="st1" d="M451.19,497.43c0,0.24-8.54,1.71-14.67,2.26c-5.63,0.5-15.09-0.08-25.33-2.26c-2.03-0.42-4.09-0.92-6.15-1.48
			c-12.49-3.38-12.77-7.62-12.85-10.91c1.02-5.5,5.75-7.71,16.47-7.06c1.56,0.1,3.24,0.26,5.06,0.47c10.85,1,22.35,4.42,28.82,6.18
			c2.36,0.64,4.84,1.33,8.38,2.34l0.47,0.13c-0.48,1.65-0.73,3.39-0.73,5.2c0,1.76,0.24,3.47,0.7,5.08L451.19,497.43z"/>
	</g>
	<g>
		<path class="st3" d="M487.13,485.36c0.86,2.15,1.33,4.49,1.33,6.94c0,1.26-0.12,2.49-0.36,3.68c-0.16,0.79-0.36,1.57-0.62,2.32
			c-1.13,3.39-3.19,6.34-5.88,8.57c-0.13,0.1-0.26,0.2-0.39,0.29c-2.82,2.23-6.3,3.67-10.1,3.97c-0.25,0.03-0.51,0.04-0.77,0.05
			c-0.26,0.01-0.52,0.02-0.78,0.02c-3.47,0-6.72-0.94-9.52-2.57c-0.61-0.36-1.21-0.76-1.77-1.18c-2.83-2.1-5.04-4.98-6.33-8.32
			c-0.23-0.57-0.42-1.15-0.58-1.75c-0.46-1.61-0.7-3.32-0.7-5.08c0-1.81,0.25-3.55,0.73-5.2c0.05-0.18,0.1-0.36,0.16-0.54
			c1.09-3.42,3.12-6.41,5.8-8.68c2.69-2.28,6.02-3.82,9.69-4.31c0.4-0.06,0.81-0.1,1.22-0.12c0.43-0.04,0.86-0.05,1.3-0.05
			c3.32,0,6.43,0.86,9.14,2.36c0.29,0.16,0.59,0.33,0.87,0.51c3.13,1.96,5.64,4.8,7.18,8.18
			C486.89,484.75,487.02,485.05,487.13,485.36z"/>
		<path class="st3" d="M456.99,477c0.06,0.15,0.08,0.22,0.07,0.22c-0.12,0-4.62-8.99-7.4-14.47c-3.01-5.95-6.07-15.94-7.45-28.56
			c-1.39-12.62,1.64-14.73,4.68-15.97c3.6-0.67,6.6,0.39,9.18,3.98c1.95,2.69,3.65,6.81,5.21,12.68
			c3.01,10.26,4.19,23.13,4.91,29.67c0.26,2.38,0.48,5.26,0.83,8.85"/>
		<path class="st3" d="M489.08,434.05c0.02-0.71,0.04-1.42,0.04-2.13c0.09-12.7-4.15-14.03-7.3-14.96c-3.64-0.3-6.26,1.38-8.24,5.48
			c-1.51,3.08-2.65,7.54-3.6,13.55c-1.94,10.52-1.6,21.91-1.65,28.49c-0.01,2.4-0.09,5.31-0.07,8.92"/>
		<path class="st3" d="M478.65,475.86c0.01-0.03,0.03-0.06,0.05-0.1c1.26-2.71,4.04-8.15,5.4-12.4c2.26-5.88,4.64-17.36,4.98-29.3"
			/>
		<path class="st3" d="M519.92,455.21c7.38-10.33,5.3-14.16,3.25-16.73c-3.98-3.33-8.93-2.01-15.93,4.04
			c-1.62,1.4-3.36,3.06-5.22,4.98c-7.64,7.49-14.45,17.23-18.27,22.58c-1.29,1.81-2.25,3.4-4.08,6.03"/>
		<path class="st3" d="M487.21,484.24c2.83-1.67,6.25-3.44,9.96-5.93c5.54-3.72,15.37-12.77,22.75-23.1"/>
		<path class="st3" d="M488.17,495.99c2.68,0.24,10.33,0.62,15.34,0.69c1.57,0.02,3.37-0.03,5.36-0.19
			c6.46-0.5,14.92-2.02,24.05-5.31c0.24-0.08,0.47-0.17,0.69-0.26c11.28-4.22,11.7-8.35,11.48-11.57
			c-1.49-5.37-6.85-7.43-17.37-6.05c-1.57,0.2-3.25,0.48-5.05,0.84c-10.55,1.81-21.52,6.08-27.7,8.32c-2.22,0.8-4.55,1.66-7.84,2.9
			c-0.05,0.02-0.11,0.04-0.17,0.06"/>
		<path class="st3" d="M457.1,477.59c-0.06-0.08-0.13-0.16-0.2-0.24c-2.18-2.71-3.74-4.63-5.25-6.45
			c-4.24-5.11-11.6-14.45-19.85-21.43c-2.64-2.35-5.01-4.24-7.16-5.69c-6.55-4.41-11-4.69-14.51-1.31
			c-1.87,2.75-3.51,6.47,4.68,16.34c0.2,0.24,0.4,0.48,0.6,0.72c7.98,9.49,15.78,16.12,21.5,19.38c5.43,3.09,14.62,7.85,14.62,7.64
			c0-0.02-0.06-0.07-0.18-0.15"/>
		<path class="st3" d="M523.28,526c-7.8-9.65-16.09-16.97-21.75-20.3c-5.33-3.14-13.82-7.54-13.82-7.32c0,0.02,0.06,0.07,0.19,0.16"
			/>
		<path class="st3" d="M481.07,506.9c0.09,0.12,0.34,0,0.53-0.03c0.1-0.03,0.18-0.02,0.22,0.03c2.21,2.86,3.89,5.43,5.39,7.3
			c4.11,5.14,10.72,13.28,18.67,20.75c2.38,2.19,4.55,4.04,6.53,5.56c6.72,5.13,11.34,6.29,15.05,2.88
			c1.96-2.71,4.19-6.94-3.74-16.85c-0.14-0.17-0.28-0.35-0.42-0.52"/>
		<path class="st3" d="M477.57,555.33c2.6,8.1,5.54,11.22,10.49,10.44c3.03-1.16,7.48-2.65,6.66-14.91
			c-0.01-0.2-0.02-0.41-0.04-0.62c-1.01-12.84-3.8-24.03-6.64-30.16c-1.89-4.08-5.24-9.99-6.83-12.92
			c-0.05-0.09-0.09-0.18-0.14-0.26"/>
		<path class="st3" d="M471.1,510.84c0,0,0,0.11,0.01,0.29c0.03,1.13,0.17,5.22,0.33,7.29c0.52,6.65,1.31,18.48,4.01,28.98
			c0.7,3.04,1.4,5.67,2.12,7.92"/>
		<path class="st3" d="M441.53,545.87c-3.26,10.4-1.72,15.32,1.94,17.82c3.24,0.81,7.89,1.99,14.14-9.03c0.45-0.8,0.9-1.6,1.32-2.39
			c5.49-10.17,8.89-19.83,9.82-25.96c0.75-4.97,1.39-12.43,1.59-15.12"/>
		<path class="st3" d="M460.03,508.65c-1.64,2.81-3.25,4.99-4.35,6.94c-3.25,5.71-9.19,16.11-12.73,26.21
			c-0.55,1.44-1.02,2.79-1.41,4.06"/>
		<path class="st3" d="M452.11,499.07c-0.05,0.02-0.11,0.04-0.17,0.06c-0.12,0.04-0.24,0.09-0.36,0.14
			c-3.37,1.28-5.72,2.2-7.95,3.08c-6.1,2.43-16.71,6.87-25.78,12.55c-1.12,0.66-2.17,1.3-3.14,1.93
			c-9.65,6.2-12.29,10.91-9.72,16.25c2.02,2.67,4.28,5.74,16.06,1.05c2.44-0.97,4.75-1.99,6.94-3.05
			c8.38-4.02,14.83-8.48,18.73-12.08c4.49-4.14,11.37-11.05,11.37-11.3c0-0.03-0.06,0.01-0.2,0.12"/>
		<path class="st3" d="M450.92,486.97c-3.54-1.01-6.02-1.7-8.38-2.34c-6.47-1.76-17.97-5.18-28.82-6.18
			c-1.82-0.21-3.5-0.37-5.06-0.47c-10.72-0.65-15.45,1.56-16.47,7.06c0.08,3.29,0.36,7.53,12.85,10.91
			c2.06,0.56,4.12,1.06,6.15,1.48c10.24,2.18,19.7,2.76,25.33,2.26c6.13-0.55,14.67-2.02,14.67-2.26c0-0.02-0.09-0.03-0.27-0.03"/>
		<path class="st3" d="M473.58,422.44c-2.27-8.79-6.02-10.54-9.2-10.74c-4.56,0.6-7.26,4.03-8.31,10.5"/>
		<path class="st3" d="M507.24,442.52c6.27-12.62,3.08-17.19,0.58-19.39c-5.46-3.14-11.09,0.1-18.74,10.92v0.01"/>
		<path class="st3" d="M527.72,473.3c1.43-0.83,3.11-1.8,4.58-2.73c10.96-6.97,10.17-11.21,9.27-14.39
			c-2.99-5.67-8.43-6.86-21.65-0.97"/>
		<path class="st3" d="M533.96,509.39c12.17-0.02,13.28-3.28,13.69-7.84c0.42-4.57-3.45-8.26-14.04-10.63"/>
		<path class="st3" d="M533.96,509.39c-1.33-0.93-3.36-2.08-4.98-3.07c-6.36-4.13-14.15-7.3-20.11-9.83
			c-0.03-0.01-0.06-0.03-0.09-0.04"/>
		<path class="st3" d="M523.28,526c0.01,0,0.01,0.01,0.02,0.01c11.93,4.99,16.61,3.89,18.82,0.23c2.21-3.67,0.61-10.69-8.16-16.85"
			/>
		<path class="st3" d="M523.86,526.3c0,0-0.01,0-0.03-0.01c-0.09-0.05-0.44-0.22-0.53-0.27c0,0-0.01-0.01-0.02-0.02
			c-0.01,0-0.01,0-0.01,0"/>
		<path class="st3" d="M494.72,550.86c5.47,7.81,13.84,8.98,17.04,7.74c4.93-3.16,5.11-8.14,0.62-18.05"/>
		<path class="st3" d="M459,552.31c0.51,12.92,5.3,14.3,8.64,15.07c5.17,0.15,7.94-3.9,9.93-12.05v-0.01"/>
		<path class="st3" d="M427.99,531.09c-1.77,1.85-3.31,4.35-4.4,6.21c-6.53,11.17-4.31,14.52-1.91,16.97
			c5.24,3.55,11.53,1.36,19.85-8.4l0.01-0.01"/>
		<path class="st3" d="M411.19,497.44c-1.4,0.52-3.66,1.03-5.1,1.63c-11.97,4.97-11.68,9.29-11.2,12.76c2,5.8,8.55,7.14,19.82,4.99"
			/>
		<path class="st3" d="M415.41,459.53c-0.9-0.32-3.54-1.5-4.47-1.81c-12.26-4.13-14.75-0.38-16.67,2.54
			c-2.5,6.17,2.41,11.27,14.39,17.72"/>
		<path class="st3" d="M442.21,434.19c-8.08-13.83-14.2-12.58-17.42-11.44c-5.39,3.25-5.53,9.44-0.15,21.03
			c0.04,0.09,0.09,0.19,0.13,0.28"/>
	</g>
</g>
<g id="XMLID_00000130642162731235225900000018434521524639262091_">
	<g>
		<path class="st4" d="M976.55,497.78c10.6,2.36,14.47,6.05,14.06,10.62c-0.42,4.57-1.53,7.81-13.7,7.84
			c-1.32-0.92-3.35-2.08-4.98-3.07c-6.35-4.14-14.16-7.31-20.12-9.84c6.46-0.49,14.93-2.02,24.06-5.31
			c0.24-0.09,0.46-0.16,0.68-0.25V497.78z"/>
		<path class="st4" d="M867.58,450.62c2.15,1.44,4.54,3.34,7.18,5.69c8.24,6.98,15.6,16.32,19.85,21.44
			c1.48,1.79,3.02,3.68,5.17,6.35l0.16-0.13c-0.62-1.01-4.74-9.24-7.34-14.37c-3.01-5.95-6.06-15.94-7.46-28.55
			c-1.38-12.62,1.65-14.72,4.7-15.97c3.59-0.68,6.58,0.39,9.18,3.97c1.94,2.7,3.65,6.81,5.2,12.68c3.01,10.27,4.2,23.14,4.91,29.68
			c0.27,2.37,0.49,5.25,0.83,8.85h1.25c-0.03-3.62,0.06-6.52,0.07-8.93c0.04-6.58-0.3-17.97,1.65-28.5c0.95-6,2.09-10.47,3.6-13.55
			v-0.01c1.99-4.08,4.6-5.75,8.23-5.46c3.16,0.92,7.4,2.25,7.31,14.96c0,0.71-0.01,1.42-0.04,2.13
			c-0.33,11.95-2.71,23.43-4.98,29.31c-1.38,4.3-4.21,9.81-5.44,12.48l1.02,0.25c1.82-2.62,2.79-4.21,4.08-6.02
			c3.83-5.35,10.63-15.09,18.27-22.58c1.87-1.91,3.6-3.57,5.22-4.98c7-6.05,11.93-7.37,15.92-4.05c2.05,2.58,4.14,6.4-3.25,16.74
			c-7.37,10.33-17.21,19.38-22.74,23.1c-3.71,2.49-7.13,4.26-9.96,5.93l0.36,0.93c3.07-1.14,5.28-1.96,7.4-2.73
			c6.18-2.22,17.15-6.49,27.71-8.3c1.79-0.36,3.48-0.64,5.04-0.85c10.53-1.38,15.89,0.68,17.38,6.05
			c0.22,3.22-0.21,7.35-11.49,11.56c-0.22,0.09-0.44,0.16-0.68,0.25c-9.13,3.29-17.6,4.82-24.06,5.31
			c-1.99,0.16-3.78,0.22-5.35,0.19c-5-0.06-12.66-0.44-15.33-0.68l-0.46,2.39c0-0.21,8.48,4.2,13.82,7.32
			c5.66,3.34,13.97,10.65,21.76,20.31l0.01,0.01c0.13,0.16,0.28,0.33,0.42,0.5c7.93,9.93,5.69,14.14,3.74,16.86
			c-3.71,3.41-8.33,2.25-15.05-2.88c-1.99-1.51-4.15-3.37-6.54-5.56c-7.95-7.47-14.56-15.61-18.67-20.74
			c-1.5-1.88-3.17-4.45-5.4-7.31c-0.13-0.18-0.61,0.16-0.74,0c1.53,2.83,5.03,8.98,6.97,13.18c2.83,6.12,5.63,17.32,6.64,30.16
			c0.01,0.21,0.03,0.42,0.04,0.62v0.01c0.82,12.25-3.63,13.73-6.66,14.89c-4.95,0.79-7.92-2.34-10.51-10.44
			c-0.71-2.24-1.41-4.88-2.11-7.92c-2.7-10.51-3.48-22.33-4-28.98c-0.16-2.06-0.3-6.11-0.33-7.26l-0.79,0.03
			c-0.19,2.7-0.85,10.16-1.59,15.12c-0.93,6.14-4.33,15.8-9.83,25.98c-0.42,0.79-0.86,1.59-1.3,2.37
			c-6.26,11.03-10.91,9.84-14.14,9.03c-3.68-2.49-5.2-7.41-1.94-17.82c0.4-1.28,0.87-2.62,1.42-4.06
			c3.53-10.1,9.47-20.5,12.72-26.21c1.11-1.96,2.71-4.14,4.36-6.94l-2.59-0.16c-1.84,1.96-7.07,7.15-10.72,10.51
			c-3.9,3.6-10.35,8.05-18.73,12.08c-2.18,1.05-4.51,2.08-6.94,3.05c-11.79,4.68-14.06,1.62-16.07-1.05
			c-2.56-5.35,0.07-10.05,9.73-16.26c0.98-0.62,2.02-1.26,3.14-1.93c9.07-5.66,19.67-10.11,25.78-12.54
			c2.19-0.86,4.51-1.76,7.81-3.04l-0.65-1.73c-1.7,0.46-8.93,1.65-14.28,2.12c-5.63,0.49-15.09-0.09-25.32-2.25
			c-2.03-0.43-4.09-0.92-6.15-1.48c-12.5-3.4-12.78-7.62-12.85-10.91c1.02-5.5,5.75-7.71,16.46-7.07c0,0.01,0.01,0.01,0.01,0.01
			c1.56,0.09,3.23,0.24,5.06,0.46c10.85,0.99,22.36,4.42,28.82,6.18c2.28,0.62,4.67,1.29,8.02,2.24l0.19-0.64
			c-2.31-1.1-9.37-4.77-13.85-7.32c-5.71-3.26-13.52-9.9-21.5-19.38c-0.21-0.24-0.42-0.47-0.61-0.71
			c-8.18-9.87-6.54-13.6-4.67-16.34c3.5-3.4,7.95-3.11,14.48,1.28C867.57,450.6,867.57,450.6,867.58,450.62z"/>
		<path class="st4" d="M976.91,516.24c8.78,6.17,10.38,13.18,8.17,16.84c-2.22,3.68-6.89,4.77-18.81-0.21l-0.01-0.01
			c-7.8-9.67-16.1-16.98-21.76-20.31c-5.34-3.13-13.82-7.53-13.82-7.32l0.46-2.39c2.67,0.24,10.33,0.62,15.33,0.68
			c1.57,0.03,3.37-0.03,5.35-0.19c5.96,2.54,13.77,5.71,20.12,9.84C973.56,514.16,975.59,515.32,976.91,516.24z"/>
		<path class="st4" d="M984.52,463.03c0.9,3.19,1.69,7.41-9.27,14.4c-1.47,0.93-3.14,1.9-4.58,2.73c-1.56,0.21-3.25,0.49-5.04,0.85
			c-10.56,1.81-21.53,6.08-27.71,8.3c-2.12,0.77-4.33,1.59-7.4,2.73l-0.36-0.93c2.83-1.68,6.26-3.44,9.96-5.93
			c5.53-3.72,15.37-12.77,22.74-23.1C976.09,456.16,981.54,457.36,984.52,463.03z"/>
		<path class="st4" d="M955.34,547.4c4.49,9.9,4.31,14.89-0.62,18.04c-3.2,1.25-11.56,0.07-17.04-7.72v-0.01
			c-0.01-0.21-0.03-0.42-0.04-0.62c-1.01-12.84-3.81-24.03-6.64-30.16c-1.94-4.2-5.44-10.35-6.97-13.18c0.13,0.16,0.61-0.18,0.74,0
			c2.22,2.86,3.9,5.43,5.4,7.31c4.11,5.13,10.72,13.27,18.67,20.74c2.39,2.19,4.55,4.05,6.54,5.56L955.34,547.4z"/>
		<path class="st4" d="M950.77,429.98c2.49,2.19,5.69,6.78-0.58,19.39c-1.62,1.41-3.35,3.07-5.22,4.98
			c-7.64,7.49-14.44,17.23-18.27,22.58c-1.29,1.81-2.25,3.4-4.08,6.02l-1.02-0.25c1.23-2.67,4.06-8.18,5.44-12.48
			c2.27-5.89,4.66-17.36,4.98-29.31C939.68,430.09,945.32,426.84,950.77,429.98z"/>
		<path class="st4" d="M918.41,554.25c0.7,3.04,1.39,5.68,2.11,7.92c-1.97,8.15-4.76,12.2-9.92,12.07
			c-3.34-0.79-8.14-2.15-8.64-15.08l-0.07-0.03c5.5-10.17,8.9-19.84,9.83-25.98c0.74-4.97,1.39-12.42,1.59-15.12l0.79-0.03
			c0.03,1.16,0.16,5.2,0.33,7.26C914.92,531.92,915.71,543.74,918.41,554.25z"/>
		<path class="st4" d="M916.54,429.27v0.01c-1.51,3.08-2.65,7.55-3.6,13.55c-1.94,10.53-1.6,21.91-1.65,28.5
			c-0.01,2.4-0.1,5.31-0.07,8.93h-1.25c-0.34-3.6-0.56-6.48-0.83-8.85c-0.71-6.54-1.9-19.41-4.91-29.68
			c-1.56-5.87-3.26-9.98-5.2-12.68c1.04-6.46,3.75-9.89,8.3-10.5C910.52,418.74,914.26,420.49,916.54,429.27z"/>
		<path class="st4" d="M900.39,515.33l2.59,0.16c-1.65,2.8-3.25,4.98-4.36,6.94c-3.25,5.71-9.19,16.12-12.72,26.21
			c-0.55,1.44-1.02,2.79-1.42,4.06c-8.32,9.77-14.62,11.96-19.85,8.41c-2.4-2.45-4.61-5.8,1.91-16.96c1.08-1.87,2.62-4.36,4.4-6.23
			c8.38-4.03,14.83-8.48,18.73-12.08C893.32,522.48,898.55,517.29,900.39,515.33z"/>
		<path class="st4" d="M899.95,483.96l-0.16,0.13c-2.15-2.67-3.69-4.55-5.17-6.35c-4.26-5.11-11.61-14.46-19.85-21.44
			c-2.64-2.36-5.03-4.26-7.18-5.69c-0.01-0.01-0.01-0.01-0.01-0.01c-5.35-11.58-5.22-17.76,0.18-21.01
			c3.22-1.14,9.34-2.39,17.41,11.45c1.39,12.62,4.45,22.61,7.46,28.55C895.2,474.73,899.33,482.95,899.95,483.96z"/>
		<path class="st4" d="M893.75,504.42l0.65,1.73c-3.31,1.28-5.62,2.18-7.81,3.04c-6.11,2.43-16.71,6.88-25.78,12.54
			c-1.13,0.67-2.16,1.3-3.14,1.93c-11.27,2.15-17.82,0.82-19.82-5c-0.47-3.47-0.77-7.78,11.21-12.75c1.44-0.59,3.69-1.11,5.1-1.63
			c10.23,2.16,19.69,2.74,25.32,2.25C884.83,506.07,892.05,504.88,893.75,504.42z"/>
		<path class="st4" d="M893.71,493.08l-0.19,0.64c-3.35-0.95-5.74-1.62-8.02-2.24c-6.46-1.76-17.97-5.19-28.82-6.18
			c-1.82-0.22-3.5-0.37-5.06-0.46c0,0-0.01,0-0.01-0.01c-11.96-6.43-16.89-11.53-14.38-17.7c1.93-2.94,4.4-6.69,16.68-2.55
			c0.92,0.31,3.57,1.48,4.46,1.81c7.98,9.47,15.79,16.12,21.5,19.38C884.34,488.31,891.39,491.98,893.71,493.08z"/>
	</g>
	<g>
		<path class="st3" d="M899.95,483.84c0.1,0.25,0.1,0.28,0,0.12c-0.62-1.01-4.74-9.24-7.34-14.37c-3.01-5.95-6.06-15.94-7.46-28.55
			c-1.38-12.62,1.65-14.72,4.7-15.97c3.59-0.68,6.58,0.39,9.18,3.97c1.94,2.7,3.65,6.81,5.2,12.68c3.01,10.27,4.2,23.14,4.91,29.68
			c0.27,2.37,0.49,5.25,0.83,8.85"/>
		<path class="st3" d="M916.54,429.28c-1.51,3.08-2.65,7.55-3.6,13.55c-1.94,10.53-1.6,21.91-1.65,28.5
			c-0.01,2.4-0.1,5.31-0.07,8.93"/>
		<path class="st3" d="M921.61,482.7c1.23-2.67,4.06-8.18,5.44-12.48c2.27-5.89,4.66-17.36,4.98-29.31
			c0.03-0.71,0.04-1.42,0.04-2.13c0.09-12.71-4.15-14.04-7.31-14.96c-3.63-0.3-6.24,1.38-8.23,5.46"/>
		<path class="st3" d="M962.87,462.06c7.38-10.33,5.29-14.16,3.25-16.74c-3.99-3.32-8.93-2-15.92,4.05
			c-1.62,1.41-3.35,3.07-5.22,4.98c-7.64,7.49-14.44,17.23-18.27,22.58c-1.29,1.81-2.25,3.4-4.08,6.02"/>
		<path class="st3" d="M930.16,491.09c2.83-1.68,6.26-3.44,9.96-5.93c5.53-3.72,15.37-12.77,22.74-23.1"/>
		<path class="st3" d="M931.13,502.84c2.67,0.24,10.33,0.62,15.33,0.68c1.57,0.03,3.37-0.03,5.35-0.19
			c6.46-0.49,14.93-2.02,24.06-5.31c0.24-0.09,0.46-0.16,0.68-0.25c11.28-4.21,11.71-8.35,11.49-11.56
			c-1.48-5.37-6.85-7.43-17.38-6.05c-1.56,0.21-3.25,0.49-5.04,0.85c-10.56,1.81-21.53,6.08-27.71,8.3
			c-2.12,0.77-4.33,1.59-7.4,2.73c-0.19,0.09-0.4,0.16-0.61,0.24"/>
		<path class="st3" d="M894.46,493.39c-0.03-0.04-0.09-0.09-0.16-0.15"/>
		<path class="st3" d="M867.57,450.6c-6.54-4.39-10.99-4.67-14.48-1.28c-1.87,2.74-3.51,6.46,4.67,16.34
			c0.19,0.24,0.4,0.47,0.61,0.71c7.98,9.47,15.79,16.12,21.5,19.38c4.48,2.55,11.53,6.23,13.85,7.32c0.43,0.19,0.7,0.31,0.76,0.31
			c0.01,0,0.01,0,0.01,0"/>
		<path class="st3" d="M900.05,484.44c-0.09-0.12-0.18-0.22-0.27-0.34c-2.15-2.67-3.69-4.55-5.17-6.35
			c-4.26-5.11-11.61-14.46-19.85-21.44c-2.64-2.36-5.03-4.26-7.18-5.69"/>
		<path class="st3" d="M966.25,532.86c-7.8-9.67-16.1-16.98-21.76-20.31c-5.34-3.13-13.82-7.53-13.82-7.32
			c0,0.03,0.06,0.07,0.19,0.16"/>
		<path class="st3" d="M924.03,513.75c0.13,0.16,0.61-0.18,0.74,0c2.22,2.86,3.9,5.43,5.4,7.31c4.11,5.13,10.72,13.27,18.67,20.74
			c2.39,2.19,4.55,4.05,6.54,5.56c6.72,5.13,11.34,6.29,15.05,2.88c1.96-2.71,4.2-6.92-3.74-16.86c-0.13-0.18-0.28-0.34-0.42-0.5"/>
		<path class="st3" d="M937.68,557.71c-0.01-0.21-0.03-0.42-0.04-0.62c-1.01-12.84-3.81-24.03-6.64-30.16
			c-1.94-4.2-5.44-10.35-6.97-13.18"/>
		<path class="st3" d="M914.06,517.69c0,0,0,0.12,0.01,0.31c0.03,1.16,0.16,5.2,0.33,7.26c0.52,6.66,1.3,18.47,4,28.98
			c0.7,3.04,1.39,5.68,2.11,7.92c2.59,8.1,5.56,11.22,10.51,10.44c3.02-1.16,7.47-2.64,6.66-14.89"/>
		<path class="st3" d="M902.99,515.5c-1.65,2.8-3.25,4.98-4.36,6.94c-3.25,5.71-9.19,16.12-12.72,26.21
			c-0.55,1.44-1.02,2.79-1.42,4.06c-3.26,10.41-1.73,15.33,1.94,17.82c3.23,0.82,7.89,2,14.14-9.03c0.44-0.79,0.89-1.59,1.3-2.37
			c5.5-10.17,8.9-19.84,9.83-25.98c0.74-4.97,1.39-12.42,1.59-15.12"/>
		<path class="st3" d="M895.07,505.92c-0.18,0.06-0.36,0.13-0.53,0.19c-0.04,0.01-0.09,0.03-0.13,0.04
			c-3.31,1.28-5.62,2.18-7.81,3.04c-6.11,2.43-16.71,6.88-25.78,12.54c-1.13,0.67-2.16,1.3-3.14,1.93
			c-9.65,6.21-12.29,10.91-9.73,16.26c2.02,2.67,4.28,5.74,16.07,1.05c2.43-0.98,4.76-2,6.94-3.05c8.38-4.03,14.83-8.48,18.73-12.08
			c3.65-3.37,8.88-8.55,10.72-10.51c0.64-0.7,0.86-0.99,0.46-0.67"/>
		<path class="st3" d="M851.6,484.82c-10.7-0.64-15.43,1.57-16.46,7.07c0.07,3.29,0.36,7.52,12.85,10.91
			c2.06,0.56,4.12,1.05,6.15,1.48c10.23,2.16,19.69,2.74,25.32,2.25c5.35-0.47,12.57-1.66,14.28-2.12c0.46-0.12,0.53-0.18,0.12-0.18
			"/>
		<path class="st3" d="M893.87,493.82c-0.12-0.03-0.24-0.07-0.36-0.1c-3.35-0.95-5.74-1.62-8.02-2.24
			c-6.46-1.76-17.97-5.19-28.82-6.18c-1.82-0.22-3.5-0.37-5.06-0.46"/>
		<path class="st3" d="M916.54,429.28v-0.01c-2.28-8.78-6.02-10.53-9.21-10.72c-4.55,0.61-7.26,4.03-8.3,10.5"/>
		<path class="st3" d="M950.19,449.37c6.27-12.62,3.07-17.2,0.58-19.39c-5.46-3.14-11.09,0.1-18.74,10.93"/>
		<path class="st3" d="M970.67,480.15c1.44-0.83,3.11-1.79,4.58-2.73c10.96-6.98,10.17-11.21,9.27-14.4
			c-2.98-5.66-8.42-6.86-21.65-0.96"/>
		<path class="st3" d="M976.91,516.24c12.17-0.03,13.28-3.28,13.7-7.84c0.42-4.57-3.45-8.26-14.06-10.62"/>
		<path class="st3" d="M976.91,516.24c-1.32-0.92-3.35-2.08-4.98-3.07c-6.35-4.14-14.16-7.31-20.12-9.84
			c-0.03-0.01-0.04-0.01-0.07-0.03"/>
		<path class="st3" d="M966.26,532.87c11.92,4.98,16.59,3.88,18.81,0.21c2.21-3.66,0.61-10.67-8.17-16.84"/>
		<path class="st3" d="M966.22,532.84c0,0,0.01,0,0.03,0.01"/>
		<line class="st3" x1="966.25" y1="532.86" x2="966.26" y2="532.87"/>
		<path class="st3" d="M966.81,533.16c0,0-0.01-0.01-0.03-0.01c-0.09-0.06-0.42-0.21-0.52-0.27"/>
		<path class="st3" d="M937.68,557.71v0.01c5.47,7.8,13.83,8.97,17.04,7.72c4.94-3.16,5.11-8.14,0.62-18.04"/>
		<path class="st3" d="M901.95,559.16c0.5,12.93,5.31,14.29,8.64,15.08c5.16,0.13,7.95-3.91,9.92-12.07"/>
		<path class="st3" d="M870.95,537.93c-1.78,1.87-3.32,4.36-4.4,6.23c-6.52,11.16-4.31,14.51-1.91,16.96
			c5.23,3.56,11.53,1.36,19.85-8.41"/>
		<path class="st3" d="M854.15,504.29c-1.41,0.52-3.66,1.04-5.1,1.63c-11.98,4.97-11.68,9.28-11.21,12.75c2,5.81,8.55,7.15,19.82,5"
			/>
		<path class="st3" d="M858.36,466.38c-0.89-0.33-3.54-1.5-4.46-1.81c-12.28-4.14-14.75-0.39-16.68,2.55
			c-2.51,6.17,2.42,11.27,14.38,17.7c0,0.01,0.01,0.01,0.01,0.01"/>
		<path class="st3" d="M885.15,441.04c-8.07-13.83-14.19-12.59-17.41-11.45c-5.4,3.25-5.53,9.43-0.18,21.01c0,0,0,0,0.01,0.01
			c0.04,0.09,0.09,0.19,0.13,0.3"/>
	</g>
</g>
<circle class="st5" cx="912.51" cy="499.15" r="18.9"/>
</svg>
