<?xml version="1.0" encoding="utf-8"?>
<!-- Generator: Adobe Illustrator 26.3.1, SVG Export Plug-In . SVG Version: 6.00 Build 0)  -->
<svg version="1.1" id="레이어_1" xmlns="http://www.w3.org/2000/svg" xmlns:xlink="http://www.w3.org/1999/xlink" x="0px"
	 y="0px" viewBox="0 0 1280 1024" style="enable-background:new 0 0 1280 1024;" xml:space="preserve">
<style type="text/css">
	.st0{fill:url(#SVGID_1_);}
	.st1{fill:#FFFFFF;}
	.st2{fill:#B3B3B3;}
	.st3{fill:none;stroke:#000000;stroke-width:2;stroke-miterlimit:10;}
	.st4{fill:#FFEBF9;}
	.st5{fill:none;stroke:#BA9BC9;stroke-width:2;stroke-miterlimit:10;}
	.st6{fill:#FFC600;stroke:#000000;stroke-width:2;stroke-miterlimit:10;}
</style>
<linearGradient id="SVGID_1_" gradientUnits="userSpaceOnUse" x1="108.0309" y1="512.0112" x2="1171.7668" y2="512.0112">
	<stop  offset="0" style="stop-color:#C1C1C1"/>
	<stop  offset="0.9942" style="stop-color:#B29CD3"/>
	<stop  offset="1" style="stop-color:#B29CD3"/>
</linearGradient>
<path class="st0" d="M287.42,536.7c0,27.61-10.85,50.48-32.55,68.63c-21.22,17.76-47.4,26.64-78.55,26.64
	c-17.94,0-33.37-3.96-46.3-11.87c-14.66-8.98-21.99-21.04-21.99-36.2c0-7.63,1.85-14.41,5.55-20.34c3.7-5.94,8.58-8.9,14.63-8.9
	c4.42,0,7.83,1.16,10.24,3.48c2.4,2.32,3.6,5.21,3.6,8.69c0,3.09-0.27,5.43-0.8,7.02c-0.53,1.59-1.42,3.11-2.68,4.56
	c-0.68,0.77-1.21,1.16-1.59,1.16c-0.29,0-0.72-0.79-1.3-2.39c-0.58-1.59-1.4-2.92-2.46-3.98c-1.45-1.54-3.24-2.32-5.36-2.32
	c-3.09,0-5.45,1.57-7.09,4.7c-1.64,3.14-2.46,6.68-2.46,10.64c0,11.78,5.89,20.95,17.66,27.51c10.04,5.6,22.3,8.4,36.78,8.4
	c25.58,0,47.25-7.92,65.01-23.74c18.82-16.7,28.23-38.22,28.23-64.57c0-8.49-1.76-16.34-5.29-23.53
	c-3.52-7.19-8.23-12.76-14.12-16.72c-3.76,4.92-8.57,9.22-14.44,12.89c-6.93,4.34-13.58,6.52-19.93,6.52
	c-7.03,0-12.32-1.35-15.88-4.05c-3.08-2.32-4.62-5.5-4.62-9.56c0-4.92,2.65-9.29,7.94-13.1c5.29-3.81,11.31-6.2,18.04-7.17
	c3.85-0.48,7.22-0.72,10.11-0.72c4.33,0,8.18,0.43,11.55,1.3c2.03-4.25,3.64-8.57,4.85-12.96c1.2-4.39,1.81-9.05,1.81-13.97
	c0-15.06-6.66-26.93-19.98-35.62c-11.78-7.72-25.97-11.58-42.57-11.58c-15.25,0-28.98,3.72-41.19,11.15
	c-12.21,7.43-18.94,16.46-20.2,27.07c-0.2,1.74-0.29,2.99-0.29,3.76c0,3.38,0.67,5.96,2.03,7.75c1.35,1.79,3.18,2.68,5.5,2.68
	c2.12,0,3.91-0.38,5.36-1.16c0.67-0.38,1.5-1.06,2.46-2.03c0.38-0.67,0.72-0.97,1.01-0.87c0.29,0.1,0.43,0.39,0.43,0.87
	c0.58,3.28-1.16,6.47-5.21,9.56c-2.8,2.12-6.18,3.18-10.13,3.18c-3.57,0-6.71-1.59-9.41-4.78c-2.99-3.48-4.49-7.96-4.49-13.47
	c0-13.8,7.62-26.06,22.88-36.78c15.93-11.19,34.84-16.79,56.76-16.79c20.85,0,38.37,4.05,52.56,12.16
	c16.89,9.65,25.34,23.65,25.34,41.99c0,6.66-1.21,12.84-3.62,18.53c-1.74,4.15-4.88,9.36-9.41,15.64
	c7.62,3.38,14.82,9.7,21.57,18.97C283.41,513.97,287.42,525.21,287.42,536.7z M187.37,599.59c0.2,0.19,0.34,0.48,0.44,0.85
	c0.1,0.29,0.15,0.52,0.15,0.71c0,1.04-0.87,1.56-2.62,1.56c-0.97,0.1-3.85-0.02-8.64-0.36c-4.8-0.34-8.11-0.51-9.95-0.51
	c-3.1,0-7.75,0.24-13.95,0.72c-2.33,0.19-3.97,0.24-4.94,0.15c-1.65,0-2.47-0.58-2.47-1.74c0-0.48,0.14-0.87,0.43-1.16
	c0.29-0.38,2.36-2.08,6.23-5.07c2.99-2.32,4.49-4.39,4.49-6.23v-133.2c0-2.99-0.92-5.11-2.75-6.37c-2.22-0.87-3.74-1.52-4.56-1.96
	c-0.82-0.43-1.23-0.94-1.23-1.52c0-0.58,0.43-1.06,1.31-1.45c0.77-0.67,2.28-1.64,4.5-2.9c7.07-3.96,11.29-6.37,12.64-7.24
	c2.32-1.45,6.2-4.1,11.63-7.96c3.97-2.9,6.59-4.49,7.85-4.78c1.06-0.48,1.6-0.19,1.6,0.87c0,0.29-0.15,0.68-0.44,1.16
	c-3.62,5.99-6.17,11.79-7.63,17.39c-1.76,6.86-2.64,14.3-2.64,22.31v125.78c0,1.84,1.47,3.86,4.4,6.09
	C185.12,597.7,187.17,599.31,187.37,599.59z M234.72,488.63c-3.76-1.25-8.01-1.88-12.74-1.88c-1.55,0-3.48,0.12-5.79,0.36
	c-2.32,0.24-5.07,1.18-8.25,2.82c-3.96,2.12-5.94,4.68-5.94,7.67c0,2.7,1.5,4.54,4.49,5.5c1.74,0.58,3.43,0.87,5.07,0.87
	c4.34,0,8.76-1.52,13.25-4.56C229.29,496.37,232.59,492.78,234.72,488.63z M363.29,598.16c1.16,1.14,1.74,2.09,1.74,2.85
	c0,1.14-1.06,1.71-3.18,1.71c-1.74,0-3.19-0.06-4.34-0.17c-5.99-0.56-9.94-0.84-11.87-0.84c-3.47,0-6.3,0.11-8.47,0.34
	c-2.17,0.23-4.66,0.45-7.46,0.67c-2.32,0-3.47-0.59-3.47-1.77c0-0.59,0.48-1.47,1.45-2.65c2.41-1.96,4.2-3.48,5.36-4.56
	c2.22-1.93,3.33-3.71,3.33-5.35V433.6c0-2.8-0.1-5.02-0.29-6.66c-0.19-1.64-1.35-2.31-3.47-2.02c-1.06,0.2-2.85,1.14-5.36,2.82
	c-2.51,1.69-4.2,2.68-5.07,2.97c-1.45,0.48-2.17-0.05-2.17-1.6c0-0.48,0.29-1.16,0.87-2.03c0.58-0.87,3.23-3.58,7.96-8.14
	c3.76-3.68,6.75-6.64,8.98-8.86c3.28-3.29,6.85-7.22,10.71-11.77c2.7-3.2,4.44-5.08,5.21-5.67c0.19-0.19,0.48-0.34,0.87-0.44
	c0.29-0.09,0.53-0.15,0.72-0.15c0.87,0,1.3,0.78,1.3,2.32c-0.48,3.1-0.89,6.94-1.23,11.53c-0.34,4.59-0.51,9.45-0.51,14.57v168.19
	c0,1.55,1.01,3.24,3.04,5.07C359.67,595.26,361.45,596.74,363.29,598.16z M665.31,556.1c0,15.25-6.61,27.75-19.84,37.5
	c-12.36,9.17-27.07,13.75-44.16,13.75c-14.48,0-26.5-2.37-36.05-7.09c-11.68-5.79-17.52-14.33-17.52-25.63
	c0-8.59,3.16-15.86,9.48-21.79c6.32-5.94,13.87-8.9,22.66-8.9c9.07,0,16.45,1.64,22.15,4.92c6.46,3.76,9.7,9.07,9.7,15.93
	c0,4.34-1.57,8.13-4.7,11.37c-3.14,3.23-6.88,4.85-11.22,4.85c-4.15,0-7.14-0.77-8.98-2.32c-0.48-0.48-0.72-0.87-0.72-1.16
	c0-0.67,0.63-1.16,1.88-1.45c1.64-0.58,3.02-1.59,4.13-3.04c1.11-1.45,1.66-3.71,1.66-6.81c0-2.8-1.5-5.09-4.49-6.88
	c-2.99-1.78-6.23-2.68-9.7-2.68c-6.85,0-12.62,1.64-17.3,4.92c-4.68,3.28-7.02,7.82-7.02,13.61c0,8.11,5.16,14.38,15.49,18.82
	c8.59,3.67,18.77,5.5,30.55,5.5c12.26,0,22.97-2.75,32.14-8.25c10.81-6.47,16.22-15.2,16.22-26.21c0-11-3.96-19.16-11.87-24.47
	c-4.92-3.28-14.29-6.61-28.09-9.99c-7.91-1.74-15.78-3.52-23.6-5.36c-8.88-2.41-15.4-5.55-19.55-9.41
	c-5.41-5.02-8.11-12.06-8.11-21.14c0-10.33,5.45-18.87,16.36-25.63c10.04-6.27,21.57-9.41,34.6-9.41c11.77,0,21.28,1.5,28.52,4.49
	c9.56,3.96,14.33,10.09,14.33,18.39c0,5.31-2.56,9.7-7.67,13.17c-4.73,3.19-10.18,4.78-16.36,4.78c-5.89,0-10.81-1.11-14.77-3.33
	c-4.83-2.7-7.24-6.56-7.24-11.58c0-2.61,0.89-4.9,2.68-6.88c1.79-1.98,3.79-3.31,6.01-3.98c0.97-0.19,1.5-0.29,1.59-0.29
	c0.67,0,1.01,0.48,1.01,1.45l-0.29,2.9c0,2.12,0.67,3.86,2.03,5.21c1.74,1.74,4.53,2.61,8.4,2.61c2.51,0,4.68-0.87,6.51-2.61
	c1.83-1.74,2.75-3.76,2.75-6.08c0-4.34-3.14-7.43-9.41-9.27c-4.63-1.35-10.67-2.03-18.1-2.03c-9.27,0-17.62,2.08-25.05,6.23
	c-8.21,4.63-12.31,10.38-12.31,17.23c0,6.18,2.7,11,8.11,14.48c3.38,2.22,14.19,5.41,32.43,9.56c11.29,2.61,19.98,5.12,26.06,7.53
	c8.49,3.38,14.86,7.53,19.11,12.45C662.8,539.88,665.31,547.22,665.31,556.1z M809.52,556.1c0,15.25-6.61,27.75-19.83,37.5
	c-12.36,9.17-27.08,13.75-44.16,13.75c-14.48,0-26.49-2.37-36.05-7.09c-11.68-5.79-17.52-14.33-17.52-25.63
	c0-8.59,3.16-15.86,9.48-21.79c6.32-5.94,13.88-8.9,22.66-8.9c9.07,0,16.46,1.64,22.15,4.92c6.46,3.76,9.7,9.07,9.7,15.93
	c0,4.34-1.57,8.13-4.7,11.37c-3.14,3.23-6.88,4.85-11.22,4.85c-4.15,0-7.14-0.77-8.98-2.32c-0.48-0.48-0.72-0.87-0.72-1.16
	c0-0.67,0.63-1.16,1.88-1.45c1.64-0.58,3.02-1.59,4.13-3.04c1.11-1.45,1.67-3.71,1.67-6.81c0-2.8-1.5-5.09-4.49-6.88
	c-2.99-1.78-6.23-2.68-9.7-2.68c-6.86,0-12.62,1.64-17.3,4.92c-4.68,3.28-7.02,7.82-7.02,13.61c0,8.11,5.16,14.38,15.49,18.82
	c8.59,3.67,18.77,5.5,30.55,5.5c12.26,0,22.97-2.75,32.14-8.25c10.81-6.47,16.22-15.2,16.22-26.21c0-11-3.96-19.16-11.87-24.47
	c-4.92-3.28-14.29-6.61-28.09-9.99c-7.92-1.74-15.78-3.52-23.6-5.36c-8.88-2.41-15.4-5.55-19.55-9.41
	c-5.41-5.02-8.11-12.06-8.11-21.14c0-10.33,5.45-18.87,16.36-25.63c10.04-6.27,21.57-9.41,34.6-9.41c11.77,0,21.28,1.5,28.52,4.49
	c9.56,3.96,14.33,10.09,14.33,18.39c0,5.31-2.56,9.7-7.67,13.17c-4.73,3.19-10.19,4.78-16.36,4.78c-5.89,0-10.81-1.11-14.77-3.33
	c-4.83-2.7-7.24-6.56-7.24-11.58c0-2.61,0.89-4.9,2.68-6.88c1.78-1.98,3.79-3.31,6.01-3.98c0.96-0.19,1.5-0.29,1.59-0.29
	c0.67,0,1.01,0.48,1.01,1.45l-0.29,2.9c0,2.12,0.67,3.86,2.03,5.21c1.74,1.74,4.53,2.61,8.4,2.61c2.51,0,4.68-0.87,6.51-2.61
	c1.83-1.74,2.75-3.76,2.75-6.08c0-4.34-3.14-7.43-9.41-9.27c-4.63-1.35-10.67-2.03-18.1-2.03c-9.27,0-17.62,2.08-25.05,6.23
	c-8.21,4.63-12.31,10.38-12.31,17.23c0,6.18,2.7,11,8.11,14.48c3.38,2.22,14.19,5.41,32.43,9.56c11.29,2.61,19.98,5.12,26.06,7.53
	c8.49,3.38,14.86,7.53,19.11,12.45C807,539.88,809.52,547.22,809.52,556.1z M1171.77,513.3c0,12.66-3.23,26.14-9.7,40.44
	c-6.08,13.43-14.24,25.94-24.47,37.54c0.29,0,0.8,0.02,1.52,0.07c0.72,0.05,1.71,0.07,2.97,0.07c2.99,0,5.84-0.17,8.54-0.51
	c2.7-0.34,5.36-1.42,7.96-3.26c1.54-1.25,3.13-2.56,4.78-3.91c0.58-0.58,1.16-0.67,1.74-0.29c0.48,0.39,0.67,1.06,0.58,2.03
	c-0.29,1.93-0.56,3.84-0.8,5.72c-0.24,1.88-0.36,3.26-0.36,4.13c0,2.12,0.07,3.89,0.22,5.29c0.15,1.4,0.36,3.01,0.65,4.85
	c0.19,1.64-0.15,2.46-1.01,2.46c-0.68,0-1.4-0.34-2.17-1.01c-1.83-1.26-3.86-2.27-6.08-3.04c-2.22-0.77-4.27-1.3-6.15-1.59
	s-4.9-0.43-9.05-0.43c-2.8,0-5.02,0.04-6.66,0.11c-1.64,0.07-3.81,0.29-6.51,0.65c-0.39,0.07-0.72,0.11-1.01,0.11
	c-0.48,0-0.82,0-1.01,0c-1.83,0-2.75-0.63-2.75-1.88c0-0.58,0.34-1.44,1.01-2.6c4.83-7.42,9.03-14.51,12.6-21.26
	c4.73-8.87,8.35-17.07,10.86-24.59c3.09-9.26,4.63-17.59,4.63-25.02c0-15.81-2.27-28.11-6.8-36.88
	c-5.41-10.32-13.85-15.47-25.34-15.47c-4.73,0-9.22,0.94-13.47,2.82s-8.06,4.8-11.44,8.76c1.74,4.73,2.99,10.47,3.76,17.23
	c0.77,6.76,1.16,13.95,1.16,21.57c0,9.46-2.22,20.51-6.66,33.16c-3.48,9.94-7.82,19.69-13.03,29.25c-4.25,7.82-7.24,12.6-8.98,14.33
	c-0.29,0.39-0.92,0.58-1.88,0.58c-1.55,0-2.46-0.29-2.75-0.87c-0.29-0.38-0.34-0.92-0.14-1.59c0.58-1.35,0.92-2.17,1.01-2.46
	c8.49-17.57,12.74-40.92,12.74-70.08c0-14.09-2.7-26.06-8.11-35.91c-5.89-10.62-13.52-15.93-22.88-15.93
	c-6.37,0-12.36,2.66-17.95,7.96c-4.73,4.44-8.21,9.7-10.42,15.78v88.76c0,1.64,1.11,3.37,3.33,5.2c1.74,1.47,3.52,2.94,5.36,4.41
	c1.16,1.18,1.74,2.16,1.74,2.94c0,1.18-1.06,1.77-3.19,1.77c-1.06,0-3.86-0.15-8.4-0.43c-4.54-0.29-7.24-0.43-8.11-0.43
	c-3.48,0-6.3,0.1-8.47,0.29c-2.17,0.19-4.66,0.39-7.46,0.58c-2.22,0-3.33-0.54-3.33-1.62c0-0.78,0.53-1.72,1.59-2.79
	c2.32-1.96,4.05-3.48,5.21-4.56c2.12-1.93,3.19-3.71,3.19-5.35v-85.62c0-8.19-2.56-14.85-7.67-19.96
	c-1.93-1.93-5.65-4.44-11.15-7.52c-0.77-0.48-1.16-1.06-1.16-1.74c0-0.48,0.29-0.96,0.87-1.45c1.54-1.15,3.76-3.18,6.66-6.07
	c1.45-1.44,2.56-2.6,3.33-3.47c0.77-0.87,1.47-1.66,2.1-2.39c0.63-0.72,1.18-1.09,1.66-1.09c0.48,0,1.01,0.29,1.59,0.87
	c3.67,3.18,7.33,7.19,11,12.02c5.11,6.66,8.11,12.4,8.98,17.23c3.38-7.05,7.24-12.84,11.58-17.37c7.72-8.11,16.6-12.16,26.64-12.16
	c8.3,0,15.68,2.32,22.15,6.95c4.44,3.18,8.83,7.82,13.18,13.9c3.86-5.79,8.25-10.47,13.17-14.04c6.27-4.54,12.98-6.81,20.13-6.81
	c16.6,0,29,6.43,37.21,19.28C1168.73,488.52,1171.77,499.97,1171.77,513.3z"/>
<g id="XMLID_00000079453846272889917190000009736579791756433544_">
	<g>
		<path class="st1" d="M518.15,549.13c-6.35-4.13-14.13-7.3-20.1-9.83c6.46-0.5,14.92-2.03,24.05-5.32
			c0.23-0.08,0.46-0.17,0.68-0.25c10.59,2.37,14.46,6.06,14.04,10.63c-0.41,4.56-1.52,7.81-13.69,7.84
			C521.8,551.27,519.77,550.12,518.15,549.13z"/>
		<path class="st1" d="M512.47,568.82v0.01C512.43,568.81,512.43,568.8,512.47,568.82z"/>
		<path class="st1" d="M498.05,539.3c-1.99,0.15-3.8,0.2-5.37,0.18c-5-0.06-12.66-0.44-15.34-0.68l-0.07-0.01
			c0.24-1.19,0.36-2.42,0.36-3.68c0-2.45-0.47-4.8-1.32-6.95c3.29-1.23,5.61-2.09,7.83-2.9c6.18-2.23,17.15-6.5,27.7-8.31
			c1.8-0.36,3.48-0.64,5.05-0.84h0.01c10.52-1.38,15.87,0.68,17.36,6.05c0.22,3.22-0.2,7.36-11.48,11.57
			c-0.22,0.08-0.45,0.17-0.68,0.25C512.97,537.27,504.51,538.8,498.05,539.3z"/>
		<path class="st1" d="M477.34,538.8c2.68,0.24,10.34,0.62,15.34,0.68c1.57,0.02,3.38-0.03,5.37-0.18c5.97,2.53,13.75,5.7,20.1,9.83
			c1.62,0.99,3.65,2.14,4.98,3.07c8.77,6.16,10.37,13.18,8.16,16.84c-2.21,3.67-6.89,4.77-18.81-0.21l-0.01-0.01
			c-7.81-9.65-16.1-16.98-21.77-20.31c-5.33-3.14-13.82-7.55-13.82-7.32l-0.23-0.07c0.26-0.75,0.46-1.53,0.62-2.33L477.34,538.8z"/>
		<path class="st1" d="M476.38,527.05c2.83-1.67,6.25-3.44,9.96-5.93c5.54-3.72,15.38-12.77,22.75-23.1
			c13.22-5.89,18.66-4.7,21.65,0.97c0.9,3.18,1.69,7.42-9.27,14.39c-1.47,0.93-3.13,1.9-4.57,2.73h-0.01
			c-1.57,0.2-3.25,0.48-5.05,0.84c-10.55,1.81-21.52,6.08-27.7,8.31c-2.22,0.81-4.54,1.67-7.83,2.9c-0.12-0.31-0.24-0.61-0.38-0.9
			L476.38,527.05z"/>
		<path class="st1" d="M464.63,590.21c-2.71-10.5-3.49-22.33-4.01-28.98c-0.16-2.07-0.3-6.16-0.34-7.29
			c3.81-0.3,7.29-1.73,10.12-3.96c1.58,2.94,4.92,8.84,6.81,12.91c2.84,6.13,5.63,17.32,6.64,30.15c0.02,0.21,0.03,0.42,0.04,0.62
			c0.82,12.27-3.63,13.76-6.66,14.91c-4.95,0.79-7.9-2.34-10.49-10.45C466.02,595.87,465.33,593.24,464.63,590.21z"/>
		<path class="st1" d="M483.85,593.04c-1.01-12.83-3.8-24.02-6.64-30.15c-1.89-4.07-5.23-9.97-6.81-12.91
			c0.13-0.1,0.26-0.2,0.39-0.31c0.09-0.02,0.16-0.01,0.2,0.04c2.21,2.85,3.9,5.43,5.39,7.3c4.11,5.14,10.72,13.28,18.67,20.75
			c2.38,2.19,4.55,4.05,6.53,5.56l-0.03,0.04c4.49,9.91,4.31,14.89-0.62,18.05c-3.19,1.24-11.57,0.07-17.03-7.75h-0.01
			C483.88,593.46,483.87,593.25,483.85,593.04z"/>
		<path class="st1" d="M495.05,577.76c-7.95-7.47-14.56-15.61-18.67-20.75c-1.49-1.87-3.18-4.45-5.39-7.3
			c-0.04-0.05-0.11-0.06-0.2-0.04c2.68-2.22,4.73-5.17,5.86-8.55l0.23,0.07c0-0.23,8.49,4.18,13.82,7.32
			c5.67,3.33,13.96,10.66,21.77,20.31c-0.04-0.02-0.04-0.01,0,0.01c0,0,0,0,0.01,0c0.14,0.17,0.27,0.34,0.41,0.51
			c7.93,9.92,5.7,14.15,3.74,16.85c-3.71,3.41-8.33,2.25-15.05-2.87C499.6,581.81,497.43,579.95,495.05,577.76z"/>
		<path class="st2" d="M470.79,549.67c-0.13,0.11-0.26,0.21-0.39,0.31c-0.05-0.09-0.1-0.18-0.15-0.27
			C470.33,549.83,470.6,549.7,470.79,549.67z"/>
		<path class="st1" d="M468.84,518.92c1.83-2.63,2.8-4.22,4.08-6.03c3.83-5.35,10.63-15.09,18.28-22.58
			c1.86-1.91,3.59-3.57,5.21-4.98c7-6.05,11.94-7.37,15.93-4.04c2.05,2.57,4.13,6.4-3.25,16.73c-7.37,10.33-17.21,19.38-22.75,23.1
			c-3.71,2.49-7.13,4.26-9.96,5.93l-0.45,0.21c-1.55-3.38-4.06-6.23-7.19-8.19L468.84,518.92z"/>
		<path class="st1" d="M467.87,518.56c1.26-2.7,4.04-8.14,5.4-12.39c2.26-5.88,4.65-17.37,4.98-29.31
			c7.65-10.82,13.28-14.06,18.74-10.92c2.5,2.2,5.69,6.77-0.58,19.39c-1.62,1.41-3.35,3.07-5.21,4.98
			c-7.65,7.49-14.45,17.23-18.28,22.58c-1.28,1.81-2.25,3.4-4.08,6.03l-0.1,0.15C468.45,518.89,468.16,518.72,467.87,518.56z"/>
		<path class="st2" d="M447.43,550.27c-2.82-2.11-5.03-4.99-6.33-8.32c-0.22-0.57-0.41-1.16-0.58-1.76
			c-0.45-1.62-0.69-3.32-0.69-5.08c0-1.8,0.25-3.54,0.72-5.19h0.01c0.04-0.19,0.1-0.37,0.16-0.55c1.09-3.42,3.12-6.42,5.79-8.69
			c2.69-2.27,6.03-3.81,9.7-4.3c0.4-0.06,0.81-0.1,1.22-0.12c0.43-0.04,0.86-0.05,1.3-0.05c3.31,0,6.43,0.85,9.14,2.35
			c0.29,0.16,0.58,0.33,0.87,0.51c3.13,1.96,5.64,4.81,7.19,8.19c0.14,0.29,0.26,0.59,0.38,0.9c0.85,2.15,1.32,4.5,1.32,6.95
			c0,1.26-0.12,2.49-0.36,3.68c-0.16,0.8-0.36,1.58-0.62,2.33c-1.13,3.38-3.18,6.33-5.86,8.55c-0.19,0.03-0.46,0.16-0.54,0.04
			c0.05,0.09,0.1,0.18,0.15,0.27c-2.83,2.23-6.31,3.66-10.12,3.96c-0.25,0.03-0.51,0.04-0.77,0.05c-0.26,0.01-0.52,0.02-0.78,0.02
			c-3.47,0-6.72-0.93-9.52-2.57C448.6,551.08,448,550.69,447.43,550.27z"/>
		<path class="st1" d="M460.62,561.23c0.52,6.65,1.3,18.48,4.01,28.98c0.7,3.03,1.39,5.66,2.11,7.91
			c-1.99,8.17-4.76,12.22-9.93,12.07c-3.34-0.77-8.13-2.15-8.64-15.07l-0.07-0.04c5.49-10.17,8.89-19.83,9.82-25.97
			c0.75-4.96,1.39-12.42,1.59-15.12c0.26-0.01,0.52-0.02,0.77-0.05C460.32,555.07,460.46,559.16,460.62,561.23z"/>
		<path class="st1" d="M457.43,516.21c-0.02-3.61,0.06-6.52,0.07-8.92c0.05-6.58-0.29-17.97,1.66-28.49
			c0.95-6.02,2.09-10.47,3.59-13.56c1.99-4.09,4.6-5.77,8.24-5.47c3.16,0.93,7.39,2.26,7.3,14.96c-0.01,0.71-0.02,1.42-0.04,2.13
			c-0.33,11.94-2.72,23.43-4.98,29.31c-1.36,4.25-4.14,9.69-5.4,12.39c-2.71-1.5-5.83-2.35-9.14-2.35c-0.44,0-0.87,0.01-1.3,0.05
			V516.21z"/>
		<path class="st1" d="M432.12,584.6c3.54-10.1,9.48-20.49,12.73-26.2c1.11-1.96,2.71-4.14,4.35-6.94l0.01-0.02
			c2.8,1.64,6.05,2.57,9.52,2.57c0.26,0,0.52-0.01,0.78-0.02c-0.2,2.7-0.84,10.16-1.59,15.12c-0.93,6.14-4.33,15.8-9.82,25.97
			c-0.42,0.79-0.87,1.59-1.32,2.39c-6.25,11.02-10.9,9.84-14.14,9.02c-3.66-2.49-5.2-7.41-1.94-17.81
			C431.1,587.4,431.57,586.05,432.12,584.6z"/>
		<path class="st1" d="M445.24,465c1.05-6.46,3.75-9.89,8.31-10.49c3.18,0.2,6.93,1.95,9.2,10.73c-1.5,3.09-2.64,7.54-3.59,13.56
			c-1.95,10.52-1.61,21.91-1.66,28.49c-0.01,2.4-0.09,5.31-0.07,8.92v0.05c-0.41,0.02-0.82,0.06-1.22,0.12l-0.02-0.17
			c-0.34-3.59-0.57-6.47-0.83-8.85c-0.72-6.54-1.9-19.41-4.91-29.68c-1.55-5.87-3.26-9.98-5.21-12.67V465z"/>
		<path class="st1" d="M438.83,505.56c-3.01-5.95-6.07-15.94-7.45-28.56c-1.39-12.62,1.64-14.73,4.69-15.97
			c3.59-0.67,6.59,0.39,9.17,3.97v0.01c1.95,2.69,3.66,6.8,5.21,12.67c3.01,10.27,4.19,23.14,4.91,29.68
			c0.26,2.38,0.49,5.26,0.83,8.85l0.02,0.17c-3.67,0.49-7.01,2.03-9.7,4.3l-0.24-0.28c-0.07-0.08-0.13-0.16-0.2-0.24l0.16-0.13
			C446.11,520.03,441.61,511.04,438.83,505.56z"/>
		<path class="st1" d="M407.02,557.7c9.08-5.67,19.68-10.11,25.79-12.54c2.22-0.88,4.57-1.8,7.94-3.08
			c0.12-0.05,0.24-0.09,0.35-0.13c1.3,3.33,3.51,6.21,6.33,8.32l-0.17,0.23c0.27,0-6.8,7.09-11.37,11.31
			c-3.89,3.6-10.35,8.06-18.73,12.09c-2.19,1.05-4.5,2.07-6.94,3.04c-11.77,4.69-14.04,1.62-16.06-1.05
			c-2.57-5.34,0.07-10.05,9.72-16.26C404.85,559,405.9,558.36,407.02,557.7z"/>
		<path class="st1" d="M444.85,558.4c-3.25,5.71-9.19,16.1-12.73,26.2c-0.55,1.45-1.02,2.8-1.42,4.08
			c-8.31,9.76-14.61,11.95-19.85,8.39c-2.4-2.44-4.62-5.79,1.91-16.96c1.09-1.86,2.63-4.36,4.4-6.21
			c8.38-4.03,14.84-8.49,18.73-12.09c4.57-4.22,11.64-11.31,11.37-11.31l0.17-0.23c0.57,0.42,1.17,0.81,1.78,1.17l-0.01,0.02
			C447.56,554.26,445.96,556.44,444.85,558.4z"/>
		<path class="st1" d="M402.89,521.25c10.85,1,22.35,4.43,28.82,6.18c2.36,0.64,4.84,1.34,8.38,2.35l0.46,0.14
			c-0.47,1.65-0.72,3.39-0.72,5.19c0,1.76,0.24,3.46,0.69,5.08l-0.16,0.05c0,0.24-8.54,1.7-14.67,2.25
			c-5.63,0.51-15.09-0.07-25.33-2.25c-2.03-0.43-4.09-0.92-6.15-1.48c-12.49-3.38-12.77-7.62-12.84-10.91
			c1.01-5.5,5.74-7.71,16.46-7.06C399.39,520.88,401.07,521.04,402.89,521.25z"/>
		<path class="st1" d="M413.81,486.59c-5.38-11.59-5.24-17.78,0.15-21.03c3.22-1.15,9.34-2.39,17.42,11.44
			c1.38,12.62,4.44,22.61,7.45,28.56c2.78,5.48,7.28,14.47,7.4,14.47l-0.16,0.13c-2.18-2.72-3.74-4.63-5.25-6.45
			c-4.24-5.11-11.6-14.45-19.85-21.43C418.33,489.93,415.96,488.04,413.81,486.59z"/>
		<path class="st1" d="M426.08,521.72c-5.72-3.26-13.52-9.89-21.5-19.38c-0.2-0.24-0.4-0.48-0.6-0.72
			c-8.19-9.87-6.55-13.59-4.68-16.34c3.51-3.38,7.96-3.1,14.51,1.31c2.15,1.45,4.52,3.34,7.16,5.69
			c8.25,6.98,15.61,16.32,19.85,21.43c1.51,1.82,3.07,3.73,5.25,6.45c0.07,0.08,0.13,0.16,0.2,0.24l0.24,0.28
			c-2.67,2.27-4.7,5.27-5.79,8.69l-0.02-0.01C440.7,529.56,431.51,524.81,426.08,521.72z"/>
		<path class="st1" d="M425.69,542.49c6.13-0.55,14.67-2.01,14.67-2.25l0.16-0.05c0.17,0.6,0.36,1.19,0.58,1.76
			c-0.11,0.04-0.23,0.08-0.35,0.13c-3.37,1.28-5.72,2.2-7.94,3.08c-6.11,2.43-16.71,6.87-25.79,12.54c-1.12,0.66-2.17,1.3-3.14,1.93
			c-11.27,2.15-17.82,0.81-19.82-5c-0.47-3.46-0.77-7.78,11.21-12.75c1.43-0.6,3.69-1.11,5.09-1.63v-0.01
			C410.6,542.42,420.06,543,425.69,542.49z"/>
		<path class="st1" d="M431.71,527.43c-6.47-1.75-17.97-5.18-28.82-6.18c-1.82-0.21-3.5-0.37-5.06-0.46
			c-11.98-6.45-16.89-11.55-14.39-17.72c1.92-2.93,4.41-6.67,16.67-2.54c0.93,0.31,3.58,1.48,4.47,1.81
			c7.98,9.49,15.78,16.12,21.5,19.38c5.43,3.09,14.62,7.84,14.62,7.64l0.02,0.01c-0.06,0.18-0.12,0.36-0.16,0.55h-0.01l-0.46-0.14
			C436.55,528.77,434.07,528.07,431.71,527.43z"/>
	</g>
	<g>
		<path class="st3" d="M476.31,528.16c0.85,2.15,1.32,4.5,1.32,6.95c0,1.26-0.12,2.49-0.36,3.68c-0.16,0.8-0.36,1.58-0.62,2.33
			c-1.13,3.38-3.18,6.33-5.86,8.55c-0.13,0.11-0.26,0.21-0.39,0.31c-2.83,2.23-6.31,3.66-10.12,3.96c-0.25,0.03-0.51,0.04-0.77,0.05
			c-0.26,0.01-0.52,0.02-0.78,0.02c-3.47,0-6.72-0.93-9.52-2.57c-0.61-0.36-1.21-0.75-1.78-1.17c-2.82-2.11-5.03-4.99-6.33-8.32
			c-0.22-0.57-0.41-1.16-0.58-1.76c-0.45-1.62-0.69-3.32-0.69-5.08c0-1.8,0.25-3.54,0.72-5.19h0.01c0.04-0.19,0.1-0.37,0.16-0.55
			c1.09-3.42,3.12-6.42,5.79-8.69c2.69-2.27,6.03-3.81,9.7-4.3c0.4-0.06,0.81-0.1,1.22-0.12c0.43-0.04,0.86-0.05,1.3-0.05
			c3.31,0,6.43,0.85,9.14,2.35c0.29,0.16,0.58,0.33,0.87,0.51c3.13,1.96,5.64,4.81,7.19,8.19
			C476.07,527.55,476.19,527.85,476.31,528.16z"/>
		<path class="st3" d="M445.24,465.01c1.95,2.69,3.66,6.8,5.21,12.67c3.01,10.27,4.19,23.14,4.91,29.68
			c0.26,2.38,0.49,5.26,0.83,8.85"/>
		<path class="st3" d="M446.16,519.81c0.06,0.15,0.08,0.22,0.07,0.22c-0.12,0-4.62-8.99-7.4-14.47c-3.01-5.95-6.07-15.94-7.45-28.56
			c-1.39-12.62,1.64-14.73,4.69-15.97c3.59-0.67,6.59,0.39,9.17,3.97"/>
		<path class="st3" d="M467.82,518.66c0.01-0.03,0.03-0.06,0.05-0.1c1.26-2.7,4.04-8.14,5.4-12.39c2.26-5.88,4.65-17.37,4.98-29.31
			c0.02-0.71,0.03-1.42,0.04-2.13c0.09-12.7-4.14-14.03-7.3-14.96c-3.64-0.3-6.25,1.38-8.24,5.47c-1.5,3.09-2.64,7.54-3.59,13.56
			c-1.95,10.52-1.61,21.91-1.66,28.49c-0.01,2.4-0.09,5.31-0.07,8.92"/>
		<path class="st3" d="M509.09,498.02c7.38-10.33,5.3-14.16,3.25-16.73c-3.99-3.33-8.93-2.01-15.93,4.04
			c-1.62,1.41-3.35,3.07-5.21,4.98c-7.65,7.49-14.45,17.23-18.28,22.58c-1.28,1.81-2.25,3.4-4.08,6.03"/>
		<path class="st3" d="M476.38,527.05c2.83-1.67,6.25-3.44,9.96-5.93c5.54-3.72,15.38-12.77,22.75-23.1"/>
		<path class="st3" d="M516.89,516.11c-1.57,0.2-3.25,0.48-5.05,0.84c-10.55,1.81-21.52,6.08-27.7,8.31
			c-2.22,0.81-4.54,1.67-7.83,2.9c-0.06,0.02-0.12,0.05-0.18,0.07"/>
		<path class="st3" d="M477.34,538.8c2.68,0.24,10.34,0.62,15.34,0.68c1.57,0.02,3.38-0.03,5.37-0.18
			c6.46-0.5,14.92-2.03,24.05-5.32c0.23-0.08,0.46-0.17,0.68-0.25c11.28-4.21,11.7-8.35,11.48-11.57
			c-1.49-5.37-6.84-7.43-17.36-6.05"/>
		<path class="st3" d="M446.27,520.4c-0.07-0.08-0.13-0.16-0.2-0.24c-2.18-2.72-3.74-4.63-5.25-6.45
			c-4.24-5.11-11.6-14.45-19.85-21.43c-2.64-2.35-5.01-4.24-7.16-5.69c-6.55-4.41-11-4.69-14.51-1.31
			c-1.87,2.75-3.51,6.47,4.68,16.34c0.2,0.24,0.4,0.48,0.6,0.72c7.98,9.49,15.78,16.12,21.5,19.38c5.43,3.09,14.62,7.84,14.62,7.64
			c0-0.02-0.06-0.07-0.18-0.15"/>
		<path class="st3" d="M512.47,568.83v-0.01c-7.81-9.65-16.1-16.98-21.77-20.31c-5.33-3.14-13.82-7.55-13.82-7.32
			c0,0.02,0.06,0.07,0.19,0.16"/>
		<path class="st3" d="M470.25,549.71c0.08,0.12,0.35-0.01,0.54-0.04c0.09-0.02,0.16-0.01,0.2,0.04c2.21,2.85,3.9,5.43,5.39,7.3
			c4.11,5.14,10.72,13.28,18.67,20.75c2.38,2.19,4.55,4.05,6.53,5.56c6.72,5.12,11.34,6.28,15.05,2.87
			c1.96-2.7,4.19-6.93-3.74-16.85c-0.14-0.17-0.27-0.34-0.41-0.51"/>
		<path class="st3" d="M460.27,553.65c0,0,0,0.11,0.01,0.29c0.04,1.13,0.18,5.22,0.34,7.29c0.52,6.65,1.3,18.48,4.01,28.98
			c0.7,3.03,1.39,5.66,2.11,7.91c2.59,8.11,5.54,11.24,10.49,10.45c3.03-1.15,7.48-2.64,6.66-14.91c-0.01-0.2-0.02-0.41-0.04-0.62
			c-1.01-12.83-3.8-24.02-6.64-30.15c-1.89-4.07-5.23-9.97-6.81-12.91c-0.05-0.09-0.1-0.18-0.15-0.27"/>
		<path class="st3" d="M449.2,551.46c-1.64,2.8-3.24,4.98-4.35,6.94c-3.25,5.71-9.19,16.1-12.73,26.2c-0.55,1.45-1.02,2.8-1.42,4.08
			c-3.26,10.4-1.72,15.32,1.94,17.81c3.24,0.82,7.89,2,14.14-9.02c0.45-0.8,0.9-1.6,1.32-2.39c5.49-10.17,8.89-19.83,9.82-25.97
			c0.75-4.96,1.39-12.42,1.59-15.12"/>
		<path class="st3" d="M441.28,541.88c-0.06,0.02-0.12,0.04-0.18,0.07c-0.11,0.04-0.23,0.08-0.35,0.13
			c-3.37,1.28-5.72,2.2-7.94,3.08c-6.11,2.43-16.71,6.87-25.79,12.54c-1.12,0.66-2.17,1.3-3.14,1.93
			c-9.65,6.21-12.29,10.92-9.72,16.26c2.02,2.67,4.29,5.74,16.06,1.05c2.44-0.97,4.75-1.99,6.94-3.04
			c8.38-4.03,14.84-8.49,18.73-12.09c4.57-4.22,11.64-11.31,11.37-11.31c-0.02,0-0.08,0.04-0.19,0.13"/>
		<path class="st3" d="M440.09,529.78c-3.54-1.01-6.02-1.71-8.38-2.35c-6.47-1.75-17.97-5.18-28.82-6.18
			c-1.82-0.21-3.5-0.37-5.06-0.46c-10.72-0.65-15.45,1.56-16.46,7.06c0.07,3.29,0.35,7.53,12.84,10.91
			c2.06,0.56,4.12,1.05,6.15,1.48c10.24,2.18,19.7,2.76,25.33,2.25c6.13-0.55,14.67-2.01,14.67-2.25c0-0.02-0.08-0.03-0.27-0.03"/>
		<path class="st3" d="M462.75,465.24c-2.27-8.78-6.02-10.53-9.2-10.73c-4.56,0.6-7.26,4.03-8.31,10.49v0.01"/>
		<path class="st3" d="M496.41,485.33c6.27-12.62,3.08-17.19,0.58-19.39c-5.46-3.14-11.09,0.1-18.74,10.92"/>
		<path class="st3" d="M516.89,516.11h0.01c1.44-0.83,3.1-1.8,4.57-2.73c10.96-6.97,10.17-11.21,9.27-14.39
			c-2.99-5.67-8.43-6.86-21.65-0.97"/>
		<path class="st3" d="M523.13,552.2c12.17-0.03,13.28-3.28,13.69-7.84c0.42-4.57-3.45-8.26-14.04-10.63"/>
		<path class="st3" d="M523.13,552.2c-1.33-0.93-3.36-2.08-4.98-3.07c-6.35-4.13-14.13-7.3-20.1-9.83c-0.03-0.01-0.07-0.03-0.1-0.04
			"/>
		<path class="st3" d="M513.03,569.11c0,0-0.01,0-0.03-0.01c-0.09-0.05-0.41-0.21-0.52-0.27c-0.01,0-0.01,0-0.01,0
			c-0.04-0.02-0.04-0.03,0-0.01l0.01,0.01c11.92,4.98,16.6,3.88,18.81,0.21c2.21-3.66,0.61-10.68-8.16-16.84"/>
		<path class="st3" d="M483.9,593.66c5.46,7.82,13.84,8.99,17.03,7.75c4.93-3.16,5.11-8.14,0.62-18.05"/>
		<path class="st3" d="M448.17,595.12c0.51,12.92,5.3,14.3,8.64,15.07c5.17,0.15,7.94-3.9,9.93-12.07"/>
		<path class="st3" d="M417.16,573.9c-1.77,1.85-3.31,4.35-4.4,6.21c-6.53,11.17-4.31,14.52-1.91,16.96
			c5.24,3.56,11.54,1.37,19.85-8.39l0.01-0.01"/>
		<path class="st3" d="M400.36,540.25c-1.4,0.52-3.66,1.03-5.09,1.63c-11.98,4.97-11.68,9.29-11.21,12.75c2,5.81,8.55,7.15,19.82,5"
			/>
		<path class="st3" d="M404.58,502.34c-0.89-0.33-3.54-1.5-4.47-1.81c-12.26-4.13-14.75-0.39-16.67,2.54
			c-2.5,6.17,2.41,11.27,14.39,17.72"/>
		<path class="st3" d="M431.38,477c-8.08-13.83-14.2-12.59-17.42-11.44c-5.39,3.25-5.53,9.44-0.15,21.03
			c0.04,0.09,0.09,0.19,0.13,0.28"/>
	</g>
</g>
<g id="XMLID_00000130642162731235225900000018434521524639262091_">
	<g>
		<path class="st4" d="M965.73,540.58c10.59,2.37,14.46,6.06,14.04,10.63c-0.42,4.55-1.53,7.81-13.68,7.84
			c-1.33-0.93-3.37-2.09-4.98-3.08c-6.36-4.14-14.17-7.29-20.12-9.83c6.46-0.49,14.91-2.02,24.06-5.31
			C965.29,540.75,965.51,540.67,965.73,540.58z"/>
		<path class="st4" d="M952.05,504.87c13.22-5.89,18.65-4.7,21.65,0.98c0.9,3.17,1.69,7.41-9.27,14.38
			c-1.48,0.93-3.14,1.9-4.58,2.73c-1.57,0.21-3.25,0.49-5.06,0.85c-10.54,1.81-21.51,6.08-27.7,8.32c-2.12,0.77-4.33,1.59-7.4,2.73
			l-0.36-0.95c2.82-1.66,6.24-3.44,9.95-5.93C934.83,524.25,944.66,515.2,952.05,504.87z"/>
		<path class="st4" d="M966.09,559.06c8.76,6.15,10.36,13.17,8.15,16.84c-2.21,3.66-6.89,4.76-18.81-0.24
			c-0.01-0.01-0.03-0.01-0.03-0.01c-7.8-9.65-16.07-16.96-21.75-20.3c-5.34-3.13-13.82-7.55-13.82-7.31l0.46-2.39
			c2.68,0.24,10.33,0.61,15.34,0.68c1.57,0.01,3.37-0.03,5.35-0.19c5.95,2.54,13.76,5.69,20.12,9.83
			C962.72,556.97,964.75,558.12,966.09,559.06z"/>
		<path class="st4" d="M920.17,569.75c-1.96-4.21-5.44-10.35-6.97-13.18c0.12,0.16,0.61-0.18,0.74,0c2.21,2.85,3.9,5.43,5.4,7.29
			c4.11,5.14,10.72,13.28,18.67,20.74c2.39,2.19,4.55,4.05,6.54,5.54l-0.04,0.06c4.49,9.92,4.31,14.89-0.62,18.06
			c-3.19,1.23-11.55,0.06-17.04-7.74v-0.01c-0.01-0.21-0.03-0.42-0.04-0.62C925.8,587.06,923,575.87,920.17,569.75z"/>
		<path class="st4" d="M910.77,525.52c1.25-2.68,4.06-8.2,5.46-12.5c2.25-5.87,4.64-17.36,4.97-29.31h0.01
			c7.65-10.82,13.28-14.06,18.74-10.93c2.49,2.21,5.68,6.78-0.58,19.39c-1.63,1.41-3.37,3.07-5.22,4.98
			c-7.65,7.49-14.46,17.23-18.28,22.58c-1.29,1.81-2.25,3.4-4.08,6.03L910.77,525.52z"/>
		<path class="st4" d="M900.87,575.96c0.76-4.95,1.39-12.42,1.6-15.11l0.76-0.01c0.04,1.17,0.18,5.19,0.34,7.25
			c0.52,6.64,1.32,18.47,4.02,28.97c0.7,3.04,1.39,5.68,2.11,7.92c-1.99,8.17-4.76,12.22-9.92,12.07
			c-3.35-0.77-8.14-2.15-8.64-15.08l-0.07-0.04C896.54,591.75,899.95,582.1,900.87,575.96z"/>
		<path class="st4" d="M899.15,523.06c-0.34-3.59-0.58-6.46-0.83-8.85c-0.73-6.54-1.91-19.41-4.91-29.68
			c-1.56-5.87-3.28-9.98-5.22-12.68c1.05-6.46,3.75-9.89,8.32-10.5c3.17,0.21,6.92,1.96,9.19,10.73c-1.5,3.08-2.64,7.55-3.59,13.57
			c-1.96,10.51-1.62,21.91-1.66,28.48c-0.01,2.4-0.09,5.31-0.06,8.93H899.15z"/>
		<path class="st4" d="M887.81,565.24c-3.25,5.72-9.19,16.12-12.74,26.21c-0.55,1.44-1.02,2.79-1.41,4.06l-0.01,0.01
			c-8.3,9.76-14.6,11.95-19.84,8.39c-2.4-2.45-4.63-5.8,1.9-16.96c1.1-1.87,2.64-4.36,4.4-6.21c8.39-4.03,14.84-8.48,18.74-12.08
			c3.65-3.37,8.87-8.55,10.7-10.51l2.61,0.15C890.52,561.12,888.9,563.3,887.81,565.24z"/>
		<path class="st4" d="M856.92,472.41c3.22-1.16,9.33-2.39,17.41,11.43c1.38,12.63,4.45,22.61,7.46,28.57
			c2.59,5.13,6.73,13.36,7.32,14.37l-0.15,0.12c-2.16-2.65-3.71-4.55-5.19-6.33c-4.24-5.11-11.59-14.46-19.85-21.44
			c-2.64-2.36-5.01-4.24-7.16-5.68C851.38,481.86,851.53,475.66,856.92,472.41z"/>
		<path class="st4" d="M849.97,564.56c9.07-5.68,19.69-10.11,25.78-12.54c2.21-0.87,4.52-1.78,7.83-3.04l-0.65-1.73
			c-1.7,0.44-8.93,1.63-14.28,2.11c-5.65,0.5-15.09-0.07-25.34-2.24c-2.03-0.44-4.09-0.93-6.15-1.5
			c-12.48-3.38-12.77-7.62-12.84-10.91c1.02-5.5,5.74-7.71,16.44-7.07c1.56,0.1,3.26,0.25,5.09,0.47
			c10.85,1.01,22.34,4.43,28.82,6.18c2.28,0.62,4.67,1.29,8.04,2.24l0.18-0.62c-2.31-1.08-9.37-4.77-13.85-7.32
			c-5.71-3.26-13.52-9.89-21.5-19.38c-0.21-0.24-0.4-0.47-0.61-0.73c-8.18-9.87-6.55-13.6-4.67-16.34c3.5-3.38,7.96-3.1,14.5,1.32
			c2.15,1.44,4.52,3.32,7.16,5.68c8.26,6.98,15.61,16.32,19.85,21.44c1.48,1.78,3.02,3.68,5.19,6.33l0.15-0.12
			c-0.59-1.01-4.73-9.24-7.32-14.37c-3.01-5.96-6.08-15.94-7.46-28.57c-1.38-12.62,1.65-14.72,4.68-15.97
			c3.6-0.67,6.6,0.39,9.18,3.97c1.94,2.7,3.66,6.81,5.22,12.68c2.99,10.27,4.18,23.14,4.91,29.68c0.25,2.39,0.49,5.26,0.83,8.85
			h1.25c-0.03-3.62,0.04-6.52,0.06-8.93c0.04-6.57-0.3-17.97,1.66-28.48c0.95-6.02,2.09-10.48,3.59-13.57
			c2-4.09,4.61-5.78,8.24-5.47c3.16,0.93,7.4,2.27,7.29,14.96c0,0.71-0.01,1.42-0.04,2.13c-0.33,11.95-2.71,23.44-4.97,29.31
			c-1.39,4.3-4.21,9.81-5.46,12.5l1.02,0.25c1.82-2.64,2.79-4.23,4.08-6.03c3.83-5.35,10.63-15.09,18.28-22.58
			c1.85-1.91,3.59-3.57,5.22-4.98c7-6.05,11.93-7.37,15.92-4.03c2.05,2.56,4.12,6.39-3.25,16.72c-7.38,10.33-17.21,19.38-22.76,23.1
			c-3.71,2.49-7.13,4.27-9.95,5.93l0.36,0.95c3.07-1.14,5.28-1.96,7.4-2.73c6.18-2.24,17.15-6.51,27.7-8.32
			c1.81-0.36,3.48-0.64,5.06-0.85c10.53-1.38,15.88,0.68,17.38,6.05c0.21,3.23-0.21,7.35-11.49,11.58
			c-0.22,0.09-0.44,0.16-0.68,0.25c-9.15,3.29-17.6,4.82-24.06,5.31c-1.99,0.16-3.78,0.21-5.35,0.19
			c-5.01-0.07-12.66-0.44-15.34-0.68l-0.46,2.39c0-0.24,8.48,4.18,13.82,7.31c5.68,3.34,13.95,10.65,21.75,20.3
			c0.15,0.18,0.3,0.37,0.44,0.55c7.93,9.92,5.69,14.14,3.74,16.84c-3.69,3.42-8.32,2.25-15.03-2.89c-1.99-1.5-4.15-3.35-6.54-5.54
			c-7.95-7.46-14.56-15.6-18.67-20.74c-1.5-1.87-3.19-4.45-5.4-7.29c-0.13-0.18-0.62,0.16-0.74,0c1.53,2.83,5.01,8.97,6.97,13.18
			c2.83,6.12,5.63,17.32,6.63,30.14c0.01,0.21,0.03,0.42,0.04,0.62v0.01c0.82,12.25-3.62,13.74-6.66,14.9
			c-4.95,0.79-7.9-2.34-10.5-10.45c-0.71-2.24-1.41-4.88-2.11-7.92c-2.7-10.5-3.5-22.33-4.02-28.97c-0.16-2.06-0.3-6.08-0.34-7.25
			l-0.76,0.01c-0.21,2.68-0.85,10.16-1.6,15.11c-0.92,6.14-4.33,15.79-9.81,25.96c-0.42,0.8-0.86,1.6-1.32,2.4
			c-6.26,11.02-10.9,9.84-14.14,9.03c-3.66-2.49-5.2-7.41-1.94-17.82l0.01-0.01c0.39-1.28,0.86-2.62,1.41-4.06
			c3.54-10.1,9.49-20.49,12.74-26.21c1.1-1.94,2.71-4.12,4.36-6.94l-2.61-0.15c-1.84,1.96-7.06,7.15-10.7,10.51
			c-3.9,3.6-10.35,8.05-18.74,12.08c-2.18,1.05-4.49,2.08-6.94,3.04c-11.77,4.7-14.04,1.62-16.06-1.05
			c-2.56-5.35,0.06-10.05,9.71-16.25C847.81,565.86,848.84,565.21,849.97,564.56z"/>
		<path class="st4" d="M875.75,552.01c-6.09,2.43-16.71,6.86-25.78,12.54c-1.13,0.65-2.16,1.3-3.14,1.93
			c-11.27,2.13-17.81,0.8-19.81-5c-0.47-3.47-0.79-7.8,11.19-12.77c1.44-0.59,3.71-1.11,5.1-1.62c10.24,2.16,19.69,2.74,25.34,2.24
			c5.35-0.47,12.57-1.66,14.28-2.11l0.65,1.73C880.27,550.24,877.96,551.14,875.75,552.01z"/>
		<path class="st4" d="M847.54,509.2c7.98,9.49,15.79,16.12,21.5,19.38c4.48,2.55,11.53,6.24,13.85,7.32l-0.18,0.62
			c-3.37-0.95-5.75-1.62-8.04-2.24c-6.48-1.75-17.97-5.17-28.82-6.18c-1.82-0.22-3.53-0.37-5.09-0.47
			c-11.96-6.43-16.87-11.53-14.37-17.7c1.91-2.94,4.4-6.67,16.66-2.55C843.99,507.68,846.63,508.87,847.54,509.2z"/>
	</g>
	<g>
		<path class="st5" d="M889.11,526.66c0.1,0.25,0.1,0.28,0,0.12c-0.59-1.01-4.73-9.24-7.32-14.37c-3.01-5.96-6.08-15.94-7.46-28.57
			c-1.38-12.62,1.65-14.72,4.68-15.97c3.6-0.67,6.6,0.39,9.18,3.97c1.94,2.7,3.66,6.81,5.22,12.68c2.99,10.27,4.18,23.14,4.91,29.68
			c0.25,2.39,0.49,5.26,0.83,8.85"/>
		<path class="st5" d="M910.77,525.52c1.25-2.68,4.06-8.2,5.46-12.5c2.25-5.87,4.64-17.36,4.97-29.31c0.03-0.71,0.04-1.42,0.04-2.13
			c0.1-12.69-4.14-14.03-7.29-14.96c-3.63-0.31-6.24,1.38-8.24,5.47c-1.5,3.08-2.64,7.55-3.59,13.57
			c-1.96,10.51-1.62,21.91-1.66,28.48c-0.01,2.4-0.09,5.31-0.06,8.93"/>
		<path class="st5" d="M952.05,504.87c7.37-10.33,5.29-14.16,3.25-16.72c-3.99-3.34-8.93-2.02-15.92,4.03
			c-1.63,1.41-3.37,3.07-5.22,4.98c-7.65,7.49-14.46,17.23-18.28,22.58c-1.29,1.81-2.25,3.4-4.08,6.03"/>
		<path class="st5" d="M919.34,533.9c2.82-1.66,6.24-3.44,9.95-5.93c5.54-3.72,15.37-12.77,22.76-23.1"/>
		<path class="st5" d="M920.29,545.65c2.68,0.24,10.33,0.61,15.34,0.68c1.57,0.01,3.37-0.03,5.35-0.19
			c6.46-0.49,14.91-2.02,24.06-5.31c0.24-0.09,0.46-0.16,0.68-0.25c11.28-4.23,11.7-8.35,11.49-11.58
			c-1.5-5.37-6.85-7.43-17.38-6.05c-1.57,0.21-3.25,0.49-5.06,0.85c-10.54,1.81-21.51,6.08-27.7,8.32c-2.12,0.77-4.33,1.59-7.4,2.73
			c-0.19,0.09-0.4,0.16-0.61,0.24"/>
		<path class="st5" d="M883.64,536.21c-0.03-0.04-0.09-0.09-0.16-0.15"/>
		<path class="st5" d="M889.23,527.24c-0.09-0.12-0.19-0.22-0.27-0.34c-2.16-2.65-3.71-4.55-5.19-6.33
			c-4.24-5.11-11.59-14.46-19.85-21.44c-2.64-2.36-5.01-4.24-7.16-5.68c-6.54-4.42-11-4.7-14.5-1.32
			c-1.88,2.74-3.51,6.46,4.67,16.34c0.21,0.25,0.4,0.49,0.61,0.73c7.98,9.49,15.79,16.12,21.5,19.38
			c4.48,2.55,11.53,6.24,13.85,7.32c0.43,0.19,0.7,0.31,0.76,0.31c0.01,0,0.01,0,0.01,0"/>
		<path class="st5" d="M913.2,556.57c0.12,0.16,0.61-0.18,0.74,0c2.21,2.85,3.9,5.43,5.4,7.29c4.11,5.14,10.72,13.28,18.67,20.74
			c2.39,2.19,4.55,4.05,6.54,5.54c6.72,5.14,11.34,6.32,15.03,2.89c1.96-2.7,4.2-6.92-3.74-16.84c-0.15-0.18-0.3-0.37-0.44-0.55
			c-7.8-9.65-16.07-16.96-21.75-20.3c-5.34-3.13-13.82-7.55-13.82-7.31c0,0.03,0.06,0.07,0.19,0.16"/>
		<path class="st5" d="M926.84,600.51c-0.01-0.21-0.03-0.42-0.04-0.62c-0.99-12.82-3.8-24.02-6.63-30.14
			c-1.96-4.21-5.44-10.35-6.97-13.18"/>
		<path class="st5" d="M903.22,560.51c0,0,0,0.12,0,0.33c0.04,1.17,0.18,5.19,0.34,7.25c0.52,6.64,1.32,18.47,4.02,28.97
			c0.7,3.04,1.39,5.68,2.11,7.92c2.59,8.11,5.54,11.24,10.5,10.45c3.04-1.16,7.47-2.65,6.66-14.9"/>
		<path class="st5" d="M873.65,595.53c-3.26,10.41-1.72,15.33,1.94,17.82c3.25,0.82,7.89,1.99,14.14-9.03c0.46-0.8,0.9-1.6,1.32-2.4
			c5.49-10.17,8.9-19.82,9.81-25.96c0.76-4.95,1.39-12.42,1.6-15.11"/>
		<path class="st5" d="M892.16,558.3c-1.65,2.82-3.26,5-4.36,6.94c-3.25,5.72-9.19,16.12-12.74,26.21
			c-0.55,1.44-1.02,2.79-1.41,4.06"/>
		<path class="st5" d="M884.23,548.72c-0.16,0.07-0.34,0.13-0.53,0.21c-0.04,0.01-0.09,0.03-0.12,0.04
			c-3.31,1.26-5.62,2.16-7.83,3.04c-6.09,2.43-16.71,6.86-25.78,12.54c-1.13,0.65-2.16,1.3-3.14,1.93
			c-9.65,6.2-12.28,10.9-9.71,16.25c2.02,2.67,4.28,5.75,16.06,1.05c2.45-0.96,4.76-1.99,6.94-3.04
			c8.39-4.03,14.84-8.48,18.74-12.08c3.65-3.37,8.87-8.55,10.7-10.51c0.64-0.7,0.86-0.99,0.46-0.67"/>
		<path class="st5" d="M883.05,536.62c-0.12-0.03-0.22-0.06-0.34-0.1c-3.37-0.95-5.75-1.62-8.04-2.24
			c-6.48-1.75-17.97-5.17-28.82-6.18c-1.82-0.22-3.53-0.37-5.09-0.47c-10.7-0.64-15.42,1.57-16.44,7.07
			c0.07,3.29,0.36,7.53,12.84,10.91c2.06,0.56,4.12,1.05,6.15,1.5c10.24,2.16,19.69,2.74,25.34,2.24
			c5.35-0.47,12.57-1.66,14.28-2.11c0.46-0.12,0.53-0.18,0.12-0.18"/>
		<path class="st5" d="M905.7,472.09c-2.27-8.78-6.02-10.53-9.19-10.73c-4.57,0.61-7.26,4.03-8.32,10.5"/>
		<path class="st5" d="M939.37,492.18c6.26-12.62,3.07-17.18,0.58-19.39c-5.46-3.13-11.09,0.1-18.74,10.93"/>
		<path class="st5" d="M959.85,522.96c1.44-0.83,3.1-1.79,4.58-2.73c10.96-6.97,10.17-11.21,9.27-14.38
			c-2.99-5.68-8.42-6.86-21.65-0.98"/>
		<path class="st5" d="M966.09,559.06c12.16-0.03,13.27-3.29,13.68-7.84c0.42-4.57-3.45-8.26-14.04-10.63"/>
		<path class="st5" d="M966.09,559.06c-1.33-0.93-3.37-2.09-4.98-3.08c-6.36-4.14-14.17-7.29-20.12-9.83
			c-0.03-0.01-0.04-0.01-0.07-0.03"/>
		<path class="st5" d="M955.4,575.65c0,0,0.01,0,0.03,0.01c11.92,5,16.61,3.9,18.81,0.24c2.21-3.68,0.61-10.69-8.15-16.84"/>
		<path class="st5" d="M955.98,575.96c0,0-0.01-0.01-0.03-0.01c-0.09-0.06-0.43-0.22-0.52-0.28"/>
		<path class="st5" d="M926.84,600.51v0.01c5.49,7.8,13.85,8.97,17.04,7.74c4.94-3.17,5.11-8.14,0.62-18.06"/>
		<path class="st5" d="M891.13,601.96c0.5,12.93,5.29,14.31,8.64,15.08c5.16,0.15,7.93-3.9,9.92-12.07"/>
		<path class="st5" d="M860.11,580.75c-1.76,1.85-3.31,4.34-4.4,6.21c-6.52,11.16-4.3,14.51-1.9,16.96
			c5.23,3.56,11.53,1.36,19.84-8.39l0.01-0.01"/>
		<path class="st5" d="M843.31,547.11c-1.39,0.5-3.66,1.02-5.1,1.62c-11.98,4.97-11.67,9.3-11.19,12.77c2,5.8,8.54,7.13,19.81,5"/>
		<path class="st5" d="M847.54,509.2c-0.9-0.33-3.54-1.51-4.48-1.82c-12.26-4.12-14.75-0.39-16.66,2.55
			c-2.51,6.17,2.4,11.27,14.37,17.7c0,0.01,0.01,0.01,0.01,0.01"/>
		<path class="st5" d="M874.33,483.84c-8.08-13.82-14.19-12.59-17.41-11.43c-5.4,3.25-5.54,9.44-0.16,21.04
			c0.04,0.09,0.09,0.18,0.13,0.27"/>
	</g>
</g>
<circle class="st6" cx="901.68" cy="541.96" r="18.9"/>
</svg>
